<svg width="432" height="286" viewBox="0 0 432 286" fill="none" xmlns="http://www.w3.org/2000/svg">
<g filter="url(#filter0_d_718_152)">
<mask id="mask0_718_152" style="mask-type:alpha" maskUnits="userSpaceOnUse" x="262" y="57" width="148" height="184">
<path d="M333.64 241V212.66H262.14V174.18L342.22 57.7H386.94V171.58H409.56V212.66H386.94V241H333.64ZM333.64 171.58V124H340.66L300.36 184.32V171.58H333.64Z" fill="#171717"/>
</mask>
<g mask="url(#mask0_718_152)">
<rect x="-4.15039" y="10.3999" width="440.7" height="248.3" fill="url(#paint0_linear_718_152)"/>
</g>
<mask id="mask1_718_152" style="mask-type:alpha" maskUnits="userSpaceOnUse" x="22" y="57" width="148" height="184">
<path d="M93.7908 241V212.66H22.2908V174.18L102.371 57.7H147.091V171.58H169.711V212.66H147.091V241H93.7908ZM93.7908 171.58V124H100.811L60.5108 184.32V171.58H93.7908Z" fill="#171717"/>
</mask>
<g mask="url(#mask1_718_152)">
<rect x="-4.15039" y="10.3999" width="440.7" height="248.3" fill="url(#paint1_linear_718_152)"/>
</g>
<mask id="mask2_718_152" style="mask-type:alpha" maskUnits="userSpaceOnUse" x="125" y="52" width="182" height="182">
<circle cx="216.12" cy="142.92" r="90.35" transform="rotate(150 216.12 142.92)" fill="#C4C4C4"/>
</mask>
<g mask="url(#mask2_718_152)">
<rect x="521.423" y="124.049" width="541.603" height="283.199" transform="rotate(148.831 521.423 124.049)" fill="#AD3EE1"/>
</g>
</g>
<defs>
<filter id="filter0_d_718_152" x="0.841015" y="46.0552" width="430.17" height="231.345" filterUnits="userSpaceOnUse" color-interpolation-filters="sRGB">
<feFlood flood-opacity="0" result="BackgroundImageFix"/>
<feColorMatrix in="SourceAlpha" type="matrix" values="0 0 0 0 0 0 0 0 0 0 0 0 0 0 0 0 0 0 127 0" result="hardAlpha"/>
<feOffset dy="14.95"/>
<feGaussianBlur stdDeviation="10.725"/>
<feComposite in2="hardAlpha" operator="out"/>
<feColorMatrix type="matrix" values="0 0 0 0 0.404167 0 0 0 0 0.404167 0 0 0 0 0.404167 0 0 0 0.25 0"/>
<feBlend mode="normal" in2="BackgroundImageFix" result="effect1_dropShadow_718_152"/>
<feBlend mode="normal" in="SourceGraphic" in2="effect1_dropShadow_718_152" result="shape"/>
</filter>
<linearGradient id="paint0_linear_718_152" x1="385.525" y1="58.8249" x2="251.95" y2="244.725" gradientUnits="userSpaceOnUse">
<stop stop-color="#7A23A5"/>
<stop offset="1" stop-color="#AD3EE1"/>
</linearGradient>
<linearGradient id="paint1_linear_718_152" x1="109.275" y1="58.8249" x2="144.375" y2="240.825" gradientUnits="userSpaceOnUse">
<stop stop-color="#8D2ED1"/>
<stop offset="1" stop-color="#AD3EE1"/>
</linearGradient>
</defs>
</svg>
