<svg width="220" height="144" viewBox="0 0 220 144" fill="none" xmlns="http://www.w3.org/2000/svg">
<rect x="0.5" y="0.5" width="219" height="143" rx="7.5" fill="#FAFAFA" stroke="#DFDFDF"/>
<path d="M63.6639 73.552C63.6639 72.6667 63.8452 71.8827 64.2079 71.2C64.5812 70.5173 65.0825 69.9893 65.7119 69.616C66.3519 69.232 67.0559 69.04 67.8239 69.04C68.5172 69.04 69.1199 69.1787 69.6319 69.456C70.1545 69.7227 70.5705 70.0587 70.8799 70.464V69.184H72.7199V78H70.8799V76.688C70.5705 77.104 70.1492 77.4507 69.6159 77.728C69.0825 78.0053 68.4745 78.144 67.7919 78.144C67.0345 78.144 66.3412 77.952 65.7119 77.568C65.0825 77.1733 64.5812 76.6293 64.2079 75.936C63.8452 75.232 63.6639 74.4373 63.6639 73.552ZM70.8799 73.584C70.8799 72.976 70.7519 72.448 70.4959 72C70.2505 71.552 69.9252 71.2107 69.5199 70.976C69.1145 70.7413 68.6772 70.624 68.2079 70.624C67.7385 70.624 67.3012 70.7413 66.8959 70.976C66.4905 71.2 66.1599 71.536 65.9039 71.984C65.6585 72.4213 65.5359 72.944 65.5359 73.552C65.5359 74.16 65.6585 74.6933 65.9039 75.152C66.1599 75.6107 66.4905 75.9627 66.8959 76.208C67.3119 76.4427 67.7492 76.56 68.2079 76.56C68.6772 76.56 69.1145 76.4427 69.5199 76.208C69.9252 75.9733 70.2505 75.632 70.4959 75.184C70.7519 74.7253 70.8799 74.192 70.8799 73.584ZM79.8836 69.04C80.577 69.04 81.1956 69.184 81.7396 69.472C82.2943 69.76 82.7263 70.1867 83.0356 70.752C83.345 71.3173 83.4996 72 83.4996 72.8V78H81.6916V73.072C81.6916 72.2827 81.4943 71.68 81.0996 71.264C80.705 70.8373 80.1663 70.624 79.4836 70.624C78.801 70.624 78.257 70.8373 77.8516 71.264C77.457 71.68 77.2596 72.2827 77.2596 73.072V78H75.4356V69.184H77.2596V70.192C77.5583 69.8293 77.937 69.5467 78.3956 69.344C78.865 69.1413 79.361 69.04 79.8836 69.04ZM85.5383 73.552C85.5383 72.6667 85.7196 71.8827 86.0823 71.2C86.4556 70.5173 86.9569 69.9893 87.5863 69.616C88.2263 69.232 88.9356 69.04 89.7143 69.04C90.2903 69.04 90.8556 69.168 91.4103 69.424C91.9756 69.6693 92.4236 70 92.7543 70.416V66.16H94.5943V78H92.7543V76.672C92.4556 77.0987 92.0396 77.4507 91.5063 77.728C90.9836 78.0053 90.3809 78.144 89.6983 78.144C88.9303 78.144 88.2263 77.952 87.5863 77.568C86.9569 77.1733 86.4556 76.6293 86.0823 75.936C85.7196 75.232 85.5383 74.4373 85.5383 73.552ZM92.7543 73.584C92.7543 72.976 92.6263 72.448 92.3703 72C92.1249 71.552 91.7996 71.2107 91.3943 70.976C90.9889 70.7413 90.5516 70.624 90.0823 70.624C89.6129 70.624 89.1756 70.7413 88.7703 70.976C88.3649 71.2 88.0343 71.536 87.7783 71.984C87.5329 72.4213 87.4103 72.944 87.4103 73.552C87.4103 74.16 87.5329 74.6933 87.7783 75.152C88.0343 75.6107 88.3649 75.9627 88.7703 76.208C89.1863 76.4427 89.6236 76.56 90.0823 76.56C90.5516 76.56 90.9889 76.4427 91.3943 76.208C91.7996 75.9733 92.1249 75.632 92.3703 75.184C92.6263 74.7253 92.7543 74.192 92.7543 73.584ZM112.458 69.04C113.152 69.04 113.77 69.184 114.314 69.472C114.869 69.76 115.301 70.1867 115.61 70.752C115.93 71.3173 116.09 72 116.09 72.8V78H114.282V73.072C114.282 72.2827 114.085 71.68 113.69 71.264C113.296 70.8373 112.757 70.624 112.074 70.624C111.392 70.624 110.848 70.8373 110.442 71.264C110.048 71.68 109.85 72.2827 109.85 73.072V78H108.042V73.072C108.042 72.2827 107.845 71.68 107.45 71.264C107.056 70.8373 106.517 70.624 105.834 70.624C105.152 70.624 104.608 70.8373 104.202 71.264C103.808 71.68 103.61 72.2827 103.61 73.072V78H101.786V69.184H103.61V70.192C103.909 69.8293 104.288 69.5467 104.746 69.344C105.205 69.1413 105.696 69.04 106.218 69.04C106.922 69.04 107.552 69.1893 108.106 69.488C108.661 69.7867 109.088 70.2187 109.386 70.784C109.653 70.2507 110.069 69.8293 110.634 69.52C111.2 69.2 111.808 69.04 112.458 69.04ZM122.555 78.144C121.723 78.144 120.971 77.9573 120.299 77.584C119.627 77.2 119.099 76.6667 118.715 75.984C118.331 75.2907 118.139 74.4907 118.139 73.584C118.139 72.688 118.337 71.8933 118.731 71.2C119.126 70.5067 119.665 69.9733 120.347 69.6C121.03 69.2267 121.793 69.04 122.635 69.04C123.478 69.04 124.241 69.2267 124.923 69.6C125.606 69.9733 126.145 70.5067 126.539 71.2C126.934 71.8933 127.131 72.688 127.131 73.584C127.131 74.48 126.929 75.2747 126.523 75.968C126.118 76.6613 125.563 77.2 124.859 77.584C124.166 77.9573 123.398 78.144 122.555 78.144ZM122.555 76.56C123.025 76.56 123.462 76.448 123.867 76.224C124.283 76 124.619 75.664 124.875 75.216C125.131 74.768 125.259 74.224 125.259 73.584C125.259 72.944 125.137 72.4053 124.891 71.968C124.646 71.52 124.321 71.184 123.915 70.96C123.51 70.736 123.073 70.624 122.603 70.624C122.134 70.624 121.697 70.736 121.291 70.96C120.897 71.184 120.582 71.52 120.347 71.968C120.113 72.4053 119.995 72.944 119.995 73.584C119.995 74.5333 120.235 75.2693 120.715 75.792C121.206 76.304 121.819 76.56 122.555 76.56ZM131.078 70.464C131.345 70.016 131.697 69.6693 132.134 69.424C132.582 69.168 133.11 69.04 133.718 69.04V70.928H133.254C132.54 70.928 131.996 71.1093 131.622 71.472C131.26 71.8347 131.078 72.464 131.078 73.36V78H129.254V69.184H131.078V70.464ZM143.795 73.376C143.795 73.7067 143.774 74.0053 143.731 74.272H136.995C137.048 74.976 137.31 75.5413 137.779 75.968C138.248 76.3947 138.824 76.608 139.507 76.608C140.488 76.608 141.182 76.1973 141.587 75.376H143.555C143.288 76.1867 142.803 76.8533 142.099 77.376C141.406 77.888 140.542 78.144 139.507 78.144C138.664 78.144 137.907 77.9573 137.235 77.584C136.574 77.2 136.051 76.6667 135.667 75.984C135.294 75.2907 135.107 74.4907 135.107 73.584C135.107 72.6773 135.288 71.8827 135.651 71.2C136.024 70.5067 136.542 69.9733 137.203 69.6C137.875 69.2267 138.643 69.04 139.507 69.04C140.339 69.04 141.08 69.2213 141.731 69.584C142.382 69.9467 142.888 70.4587 143.251 71.12C143.614 71.7707 143.795 72.5227 143.795 73.376ZM141.891 72.8C141.88 72.128 141.64 71.5893 141.171 71.184C140.702 70.7787 140.12 70.576 139.427 70.576C138.798 70.576 138.259 70.7787 137.811 71.184C137.363 71.5787 137.096 72.1173 137.011 72.8H141.891ZM146.646 78.112C146.315 78.112 146.038 78 145.814 77.776C145.59 77.552 145.478 77.2747 145.478 76.944C145.478 76.6133 145.59 76.336 145.814 76.112C146.038 75.888 146.315 75.776 146.646 75.776C146.966 75.776 147.238 75.888 147.462 76.112C147.686 76.336 147.798 76.6133 147.798 76.944C147.798 77.2747 147.686 77.552 147.462 77.776C147.238 78 146.966 78.112 146.646 78.112ZM150.825 78.112C150.495 78.112 150.217 78 149.993 77.776C149.769 77.552 149.657 77.2747 149.657 76.944C149.657 76.6133 149.769 76.336 149.993 76.112C150.217 75.888 150.495 75.776 150.825 75.776C151.145 75.776 151.417 75.888 151.641 76.112C151.865 76.336 151.977 76.6133 151.977 76.944C151.977 77.2747 151.865 77.552 151.641 77.776C151.417 78 151.145 78.112 150.825 78.112ZM155.005 78.112C154.674 78.112 154.397 78 154.173 77.776C153.949 77.552 153.837 77.2747 153.837 76.944C153.837 76.6133 153.949 76.336 154.173 76.112C154.397 75.888 154.674 75.776 155.005 75.776C155.325 75.776 155.597 75.888 155.821 76.112C156.045 76.336 156.157 76.6133 156.157 76.944C156.157 77.2747 156.045 77.552 155.821 77.776C155.597 78 155.325 78.112 155.005 78.112Z" fill="black"/>
</svg>
