<svg width="189" height="25" viewBox="0 0 189 25" fill="none" xmlns="http://www.w3.org/2000/svg">
<path d="M15.3276 18.0335C14.998 18.3084 14.6134 18.4733 14.119 18.6383C13.6245 18.8032 13.0752 18.8582 12.4159 18.8582C11.5918 18.8582 10.8777 18.7482 10.3283 18.5283C9.7789 18.3084 9.39433 17.9235 9.22952 17.4287C8.57027 15.3395 8.02089 13.6351 7.58139 12.3706C7.14189 11.106 6.81227 9.95145 6.59252 8.96181H6.4277C6.37277 10.3363 6.31783 11.6008 6.26289 12.7554C6.20795 13.91 6.20795 15.0096 6.20795 16.1092C6.20795 17.2088 6.15301 18.3084 6.15301 19.408C6.09808 20.5076 6.04314 21.7721 5.9882 23.0916C5.65858 23.2016 5.27401 23.3115 4.77957 23.3665C4.28514 23.4765 3.7907 23.4765 3.29626 23.4765C2.25244 23.4765 1.42838 23.3115 0.879002 22.9817C0.329626 22.6518 0 22.047 0 21.1673L1.04382 3.07897C1.20863 2.74909 1.64813 2.41921 2.25244 2.08934C2.91169 1.75946 3.7907 1.53954 4.94439 1.53954C6.20795 1.53954 7.14189 1.75946 7.85608 2.14432C8.57027 2.52917 9.06471 3.18893 9.39433 4.06861C9.61409 4.61841 9.83384 5.27816 10.1085 5.9929C10.3283 6.70764 10.603 7.47736 10.8777 8.24707C11.0974 9.01679 11.3721 9.78651 11.5918 10.5562C11.8116 11.3259 12.0313 12.0407 12.2511 12.6455H12.4159C12.9653 10.6662 13.5696 8.74189 14.119 6.87258C14.6683 5.00326 15.2177 3.46383 15.6572 2.1993C15.9869 2.03436 16.4813 1.86942 17.0307 1.70448C17.58 1.59452 18.1844 1.48456 18.8985 1.48456C20.0522 1.48456 20.9862 1.6495 21.7004 1.97938C22.4146 2.30925 22.8541 2.80407 22.9639 3.46383C23.0738 3.95865 23.1837 4.67339 23.2386 5.66302C23.3485 6.65266 23.4584 7.75225 23.5682 8.96181C23.6781 10.1714 23.788 11.4909 23.8979 12.8654C24.0077 14.2399 24.1176 15.5594 24.2275 16.8239C24.3374 18.0885 24.4472 19.243 24.5022 20.2876C24.5571 21.3323 24.6121 22.157 24.667 22.7068C24.2824 22.9267 23.8429 23.0916 23.4034 23.2016C22.9639 23.3115 22.4146 23.3665 21.7004 23.3665C20.8214 23.3665 20.0522 23.2016 19.4479 22.9267C18.8436 22.5968 18.514 21.992 18.459 21.1123C18.2942 18.5283 18.2393 16.2191 18.1844 14.1849C18.1294 12.1506 18.0745 10.3913 18.0195 9.01679H17.8547C17.635 9.95145 17.3054 11.106 16.8109 12.4805C16.4813 14.0749 15.9319 15.8893 15.3276 18.0335Z" fill="#8D2ED1"/>
<path d="M29.1719 12.5354C29.1719 10.6661 29.4466 9.07168 30.0509 7.6422C30.6003 6.21273 31.4243 5.05815 32.4132 4.06852C33.4021 3.13386 34.6107 2.36414 35.9292 1.86933C37.3026 1.37451 38.731 1.09961 40.3242 1.09961C41.9174 1.09961 43.3458 1.37451 44.7192 1.86933C46.0927 2.36414 47.2464 3.07888 48.2902 4.06852C49.279 5.00317 50.1031 6.21273 50.6525 7.6422C51.2568 9.07168 51.5315 10.6661 51.5315 12.5354C51.5315 14.4047 51.2568 15.9991 50.7074 17.4286C50.1581 18.8581 49.334 20.0676 48.3451 21.0023C47.3562 21.9369 46.1476 22.7067 44.7742 23.2015C43.4007 23.6963 41.9174 23.9712 40.3242 23.9712C38.731 23.9712 37.2477 23.6963 35.8743 23.2015C34.5008 22.7067 33.3471 21.9369 32.3583 21.0023C31.3694 20.0127 30.6003 18.8581 30.0509 17.4286C29.4466 15.9991 29.1719 14.4047 29.1719 12.5354ZM35.5446 12.5354C35.5446 14.6796 35.9841 16.274 36.8631 17.3736C37.7421 18.4182 38.8958 18.968 40.3792 18.968C41.8625 18.968 43.0162 18.4182 43.8952 17.3736C44.7742 16.329 45.2137 14.6796 45.2137 12.5354C45.2137 10.3912 44.7742 8.79678 43.9501 7.75216C43.0711 6.70755 41.9174 6.15775 40.4341 6.15775C38.9508 6.15775 37.7971 6.70755 36.9181 7.75216C35.9841 8.79678 35.5446 10.3912 35.5446 12.5354Z" fill="#8D2ED1"/>
<path d="M60.1009 23.4211C59.1121 23.4211 58.288 23.1462 57.6837 22.5414C57.0794 21.9367 56.8047 21.1669 56.8047 20.1223V1.75908C57.0794 1.7041 57.4639 1.64912 58.0133 1.53916C58.5627 1.48418 59.1121 1.4292 59.6614 1.4292C60.2108 1.4292 60.7053 1.48418 61.0898 1.53916C61.5293 1.64912 61.8589 1.75908 62.1336 1.979C62.4083 2.19892 62.6281 2.47382 62.7929 2.85867C62.9577 3.24353 63.0126 3.73835 63.0126 4.34313V18.363H71.0885C71.2533 18.6379 71.4181 18.9678 71.528 19.4076C71.6928 19.8474 71.7477 20.2873 71.7477 20.7821C71.7477 21.7167 71.528 22.3765 71.1434 22.7614C70.7588 23.1462 70.2095 23.3661 69.5502 23.3661H60.1009V23.4211Z" fill="#8D2ED1"/>
<path d="M76.6914 5.1689C76.6914 4.17927 76.9661 3.35457 77.5704 2.74979C78.1747 2.14502 78.9438 1.87012 79.9877 1.87012H91.6344C91.7993 2.14502 91.9641 2.47489 92.0739 2.91473C92.1838 3.35457 92.2937 3.79441 92.2937 4.28923C92.2937 5.1689 92.0739 5.82866 91.6894 6.21352C91.3048 6.59838 90.8104 6.76332 90.1511 6.76332H82.6796V10.0621H90.6456C90.8104 10.337 90.9752 10.6669 91.0851 11.0517C91.1949 11.4916 91.3048 11.9314 91.3048 12.3713C91.3048 13.2509 91.14 13.9107 90.7554 14.2955C90.3709 14.6804 89.8764 14.8453 89.2172 14.8453H82.7345V18.584H91.7993C91.9641 18.8589 92.1289 19.1887 92.2388 19.6286C92.3486 20.0684 92.4585 20.5083 92.4585 21.0031C92.4585 21.8828 92.2388 22.5425 91.8542 22.9274C91.4696 23.3122 90.9752 23.5322 90.3159 23.5322H79.9877C78.9988 23.5322 78.1747 23.2573 77.5704 22.6525C76.9661 22.0477 76.6914 21.278 76.6914 20.2334V5.1689Z" fill="#8D2ED1"/>
<path d="M146.134 15.3943C146.134 16.6588 145.914 17.8134 145.475 18.913C145.035 20.0126 144.431 20.8373 143.607 21.607C142.783 22.3767 141.794 22.9265 140.585 23.3114C139.432 23.6962 138.058 23.9161 136.575 23.9161C135.091 23.9161 133.773 23.6962 132.564 23.3114C131.411 22.9265 130.367 22.3217 129.543 21.607C128.719 20.8373 128.114 19.9576 127.675 18.913C127.235 17.8684 127.016 16.7138 127.016 15.3943V1.86923C127.29 1.81425 127.675 1.75927 128.224 1.64931C128.774 1.53935 129.323 1.53935 129.872 1.53935C130.422 1.53935 130.916 1.59433 131.301 1.64931C131.685 1.70429 132.07 1.86923 132.345 2.08915C132.619 2.30907 132.839 2.58397 133.004 2.96883C133.169 3.35369 133.224 3.84851 133.224 4.45328V15.2843C133.224 16.4389 133.553 17.3186 134.158 17.9233C134.762 18.5831 135.586 18.858 136.575 18.858C137.564 18.858 138.388 18.5281 138.992 17.9233C139.596 17.2636 139.926 16.3839 139.926 15.2843V1.81425C140.201 1.75927 140.585 1.70429 141.135 1.59433C141.684 1.48438 142.233 1.48438 142.783 1.48438C143.332 1.48438 143.827 1.53935 144.211 1.59433C144.651 1.64931 144.98 1.81425 145.255 2.03417C145.53 2.25409 145.749 2.52899 145.914 2.91385C146.079 3.29871 146.134 3.79353 146.134 4.3983V15.3943Z" fill="#8D2ED1"/>
<path d="M155.64 23.4211C154.651 23.4211 153.827 23.1462 153.223 22.5414C152.618 21.9367 152.344 21.1669 152.344 20.1223V1.75908C152.618 1.7041 153.003 1.64912 153.552 1.53916C154.102 1.48418 154.651 1.4292 155.201 1.4292C155.75 1.4292 156.244 1.48418 156.629 1.53916C157.013 1.64912 157.398 1.75908 157.673 1.979C157.947 2.19892 158.167 2.47382 158.332 2.85867C158.497 3.24353 158.552 3.73835 158.552 4.34313V18.363H166.628C166.792 18.6379 166.957 18.9678 167.067 19.4076C167.232 19.8474 167.287 20.2873 167.287 20.7821C167.287 21.7167 167.067 22.3765 166.682 22.7614C166.298 23.1462 165.749 23.3661 165.089 23.3661H155.64V23.4211Z" fill="#8D2ED1"/>
<path d="M172.234 5.1689C172.234 4.17927 172.509 3.35457 173.113 2.74979C173.718 2.14502 174.487 1.87012 175.531 1.87012H187.177C187.342 2.14502 187.507 2.47489 187.617 2.91473C187.727 3.35457 187.837 3.79441 187.837 4.28923C187.837 5.1689 187.617 5.82866 187.232 6.21352C186.848 6.59838 186.353 6.76332 185.694 6.76332H178.223V10.0621H186.189C186.353 10.337 186.518 10.6669 186.628 11.0517C186.738 11.4916 186.848 11.9314 186.848 12.3713C186.848 13.2509 186.683 13.9107 186.298 14.2955C185.914 14.6804 185.419 14.8453 184.76 14.8453H178.278V18.584H187.342C187.507 18.8589 187.672 19.1887 187.782 19.6286C187.892 20.0684 188.001 20.5083 188.001 21.0031C188.001 21.8828 187.782 22.5425 187.397 22.9274C187.013 23.3122 186.518 23.5322 185.859 23.5322H175.531C174.542 23.5322 173.718 23.2573 173.113 22.6525C172.509 22.0477 172.234 21.278 172.234 20.2334V5.1689Z" fill="#8D2ED1"/>
<path d="M116.03 16.2188C113.832 16.2188 112.02 18.0331 112.02 20.2323C112.02 22.4315 113.832 24.2458 116.03 24.2458H120.04V20.2323C120.04 18.0331 118.227 16.2188 116.03 16.2188Z" fill="url(#paint0_linear_102_1479)"/>
<path d="M111.415 23.1465L111.58 24.0811C105.043 25.1258 98.8348 20.6174 97.791 14.0198C96.7471 7.42227 101.252 1.20956 107.79 0.164939C108.614 0.0549798 109.383 0 110.152 0C104.878 1.97927 101.527 7.47725 102.461 13.2501C103.23 18.2533 106.911 21.9919 111.415 23.1465Z" fill="url(#paint1_linear_102_1479)"/>
<path d="M121.575 10.281L119.103 10.6659C117.29 10.9408 115.477 10.226 114.378 8.74157C113.609 7.64197 112.455 6.87226 111.192 6.54238C110.422 6.32246 109.598 6.26748 108.774 6.43242C105.588 6.92724 103.445 9.95112 103.94 13.14C104.324 15.4491 106.027 17.2634 108.17 17.8682C109.708 18.3081 110.862 19.6276 111.137 21.222L111.466 23.2013C106.906 22.0467 103.281 18.3081 102.511 13.3599C101.577 7.58699 104.929 2.08901 110.203 0.109741C115.751 0.274681 120.641 4.45314 121.575 10.281Z" fill="url(#paint2_linear_102_1479)"/>
<path d="M111.415 23.1465L111.58 24.0811C105.043 25.1258 98.8348 20.6174 97.791 14.0198C96.7471 7.42227 101.252 1.20956 107.79 0.164939C108.614 0.0549798 109.383 0 110.152 0C104.878 1.97927 101.527 7.47725 102.461 13.2501C103.23 18.2533 106.911 21.9919 111.415 23.1465Z" fill="url(#paint3_linear_102_1479)"/>
<path d="M121.575 10.281L119.103 10.6659C117.29 10.9408 115.477 10.226 114.378 8.74157C113.609 7.64197 112.455 6.87226 111.192 6.54238C110.422 6.32246 109.598 6.26748 108.774 6.43242C105.588 6.92724 103.445 9.95112 103.94 13.14C104.324 15.4491 106.027 17.2634 108.17 17.8682C109.708 18.3081 110.862 19.6276 111.137 21.222L111.466 23.2013C106.906 22.0467 103.281 18.3081 102.511 13.3599C101.577 7.58699 104.929 2.08901 110.203 0.109741C115.751 0.274681 120.641 4.45314 121.575 10.281Z" fill="url(#paint4_linear_102_1479)"/>
<path d="M106.415 22.7612L106.14 23.6959C99.8225 21.7166 96.2516 14.9541 98.2293 8.57647C100.207 2.19881 106.964 -1.37487 113.282 0.604398C114.051 0.824317 114.766 1.1542 115.48 1.53905C109.876 0.989256 104.437 4.398 102.734 10.0059C101.196 14.7342 102.844 19.7374 106.415 22.7612Z" fill="url(#paint5_linear_102_1479)"/>
<path d="M121.195 15.7245L118.833 15.0098C117.075 14.46 115.756 12.9755 115.427 11.1612C115.207 9.84167 114.548 8.63211 113.504 7.75244C112.9 7.20264 112.186 6.81778 111.416 6.54288C108.34 5.60822 105.099 7.3126 104.165 10.3915C103.45 12.6456 104.22 15.0098 105.868 16.4942C107.076 17.5938 107.516 19.2432 107.021 20.8376L106.417 22.7619C102.846 19.738 101.253 14.7349 102.681 9.95163C104.439 4.34369 109.823 0.879962 115.427 1.48474C120.371 4.17875 122.898 10.1166 121.195 15.7245Z" fill="url(#paint6_linear_102_1479)"/>
<path d="M120.698 17.0434L118.39 16.0537C116.687 15.284 115.589 13.6896 115.479 11.8203C115.424 10.5008 114.874 9.23623 113.995 8.24659C113.446 7.64181 112.787 7.147 112.073 6.81712C109.161 5.4976 105.7 6.8721 104.381 9.78603C103.447 11.9302 103.887 14.3493 105.315 16.0537C106.359 17.2633 106.634 19.0226 105.975 20.5071L105.15 22.3214C101.964 18.9127 100.975 13.7446 102.953 9.18125C105.315 3.84821 111.139 1.04424 116.632 2.25379C121.247 5.4976 123.06 11.7103 120.698 17.0434Z" fill="url(#paint7_linear_102_1479)"/>
<defs>
<linearGradient id="paint0_linear_102_1479" x1="113.206" y1="17.4173" x2="120.002" y2="24.1801" gradientUnits="userSpaceOnUse">
<stop stop-color="#EB5DFF"/>
<stop offset="1" stop-color="#40128B"/>
</linearGradient>
<linearGradient id="paint1_linear_102_1479" x1="102.855" y1="5.00941" x2="108.944" y2="18.6959" gradientUnits="userSpaceOnUse">
<stop stop-color="#AD3EE1"/>
<stop offset="1" stop-color="#40128B"/>
</linearGradient>
<linearGradient id="paint2_linear_102_1479" x1="107.732" y1="0.579997" x2="115.95" y2="22.0051" gradientUnits="userSpaceOnUse">
<stop stop-color="#AD3EE1"/>
<stop offset="1" stop-color="#40128B"/>
</linearGradient>
<linearGradient id="paint3_linear_102_1479" x1="102.855" y1="5.00941" x2="117.583" y2="24.1802" gradientUnits="userSpaceOnUse">
<stop stop-color="#AD3EE1"/>
<stop offset="1" stop-color="#40128B"/>
</linearGradient>
<linearGradient id="paint4_linear_102_1479" x1="107.732" y1="0.579997" x2="121.151" y2="23.632" gradientUnits="userSpaceOnUse">
<stop stop-color="#AD3EE1"/>
<stop offset="1" stop-color="#40128B"/>
</linearGradient>
<linearGradient id="paint5_linear_102_1479" x1="106.741" y1="2.7048" x2="113.457" y2="17.8641" gradientUnits="userSpaceOnUse">
<stop stop-color="#AD3EE1"/>
<stop offset="1" stop-color="#40128B"/>
</linearGradient>
<linearGradient id="paint6_linear_102_1479" x1="113.037" y1="0.889318" x2="110.941" y2="23.744" gradientUnits="userSpaceOnUse">
<stop stop-color="#AD3EE1"/>
<stop offset="1" stop-color="#40128B"/>
</linearGradient>
<linearGradient id="paint7_linear_102_1479" x1="114.323" y1="1.3755" x2="115.371" y2="25.0155" gradientUnits="userSpaceOnUse">
<stop stop-color="#AD3EE1"/>
<stop offset="1" stop-color="#40128B"/>
</linearGradient>
</defs>
</svg>
