<svg width="28" height="28" viewBox="0 0 28 28" fill="none" xmlns="http://www.w3.org/2000/svg">
<path opacity="0.1" d="M0 4C0 1.79086 1.79086 0 4 0H24C26.2091 0 28 1.79086 28 4V24C28 26.2091 26.2091 28 24 28H4C1.79086 28 0 26.2091 0 24V4Z" fill="#8D2ED1"/>
<path d="M14.1269 7C10.3314 7 7.25419 10.0532 7.25419 13.8197C7.25419 15.1082 7.61456 16.3132 8.24041 17.3412L7 21L10.8051 19.7912C11.7898 20.3313 12.9222 20.6395 14.1269 20.6395C17.923 20.6395 21 17.5859 21 13.8197C21 10.0532 17.923 7 14.1269 7ZM17.5445 16.4097C17.3828 16.8105 16.6516 17.1763 16.3289 17.1932C16.0066 17.2103 15.9974 17.443 14.2402 16.6796C12.4831 15.9161 11.426 14.0595 11.3427 13.9399C11.2593 13.8208 10.6621 12.9697 10.6943 12.1132C10.7267 11.2566 11.1958 10.8524 11.3632 10.6843C11.5304 10.516 11.7221 10.4858 11.8392 10.4839C11.9775 10.4817 12.0672 10.4798 12.1696 10.4836C12.2719 10.4874 12.4256 10.4622 12.5586 10.816C12.6916 11.1699 13.01 12.0396 13.0507 12.1282C13.0914 12.2169 13.1166 12.3196 13.0539 12.4335C12.991 12.5477 12.9588 12.619 12.8676 12.7174C12.7759 12.8157 12.6747 12.9374 12.5928 13.0127C12.5016 13.0959 12.4063 13.1868 12.5022 13.3648C12.5981 13.5427 12.9289 14.1259 13.4328 14.6066C14.0805 15.2244 14.639 15.4293 14.8109 15.5227C14.9832 15.6166 15.0861 15.6062 15.1929 15.4937C15.2993 15.3812 15.6504 15.0016 15.7741 14.8322C15.8977 14.6622 16.0135 14.6955 16.1722 14.7594C16.3309 14.8235 17.1772 15.2768 17.3495 15.3703C17.5217 15.4638 17.6368 15.5119 17.678 15.586C17.7191 15.6603 17.7061 16.0088 17.5445 16.4097V16.4097Z" stroke="#8D2ED1"/>
</svg>
