<svg width="70" height="70" viewBox="0 0 70 70" fill="none" xmlns="http://www.w3.org/2000/svg">
<path d="M65.8418 46.8227C66.6592 47.2961 66.7448 47.5271 66.4896 48.4027C66.0631 49.8728 65.4137 51.2362 64.6124 52.5367C64.5171 52.6918 64.5284 53.0197 64.6302 53.1716C65.4912 54.4478 65.9613 55.8322 65.8385 57.3799C65.6996 59.131 64.9726 60.5688 63.5898 61.7061C62.1989 62.8499 60.6286 63.3167 58.8629 63.2198C58.5511 63.202 58.3605 63.2763 58.2329 63.5752C57.6061 65.0372 56.4849 66.0469 55.0714 66.6624C52.9745 67.5767 50.9035 67.3522 49.0408 66.0307C48.3623 65.5493 47.8664 64.8078 47.2913 64.181C47.1992 64.0808 47.1297 63.9597 47.0053 63.7868C46.0231 65.4443 44.6484 66.5703 42.9667 67.2973C42.2397 67.6123 41.4449 67.769 40.6824 67.9984C39.0055 67.9984 37.327 67.9984 35.6502 67.9984C35.4289 67.6559 35.2059 67.3134 34.9846 66.9693C35.2318 66.1987 35.781 66.0097 36.5468 66.0485C37.6146 66.1034 38.6873 66.0469 39.7583 66.0646C40.6937 66.0808 41.5628 65.8595 42.3835 65.4233C42.4626 65.3765 42.5402 65.3296 42.6193 65.2828L42.6145 65.286C43.6839 64.9128 44.4545 64.1422 45.0506 63.244C46.5611 60.963 46.7178 58.5575 45.4044 56.1343C44.2703 54.0407 43.0668 51.9842 41.8875 49.9148C41.104 48.54 40.3157 47.1668 39.5079 45.805C39.3851 45.5998 39.1396 45.3058 38.97 45.3171C38.1429 45.3753 37.3222 45.5223 36.4401 45.6467C36.781 46.1798 37.117 46.7048 37.4514 47.2315C37.7648 47.8211 38.0621 48.4172 38.3916 48.9972C39.991 51.8049 41.6646 54.5722 43.1815 57.4219C44.6952 60.2635 42.5951 63.4734 39.6178 63.4815C29.9217 63.5074 20.2272 63.4815 10.5312 63.4896C7.7154 63.4912 5.45535 60.0729 7.11768 57.2522C9.26949 53.5997 11.3486 49.9035 13.4552 46.2234C15.3824 42.8568 17.3065 39.4885 19.2224 36.1154C19.5487 35.5419 19.9769 35.2866 20.6634 35.2963C23.0269 35.327 25.3919 35.3012 27.757 35.2963C28.1172 35.3173 28.4807 35.319 28.8393 35.3642C29.3111 35.4223 29.5453 35.1816 29.6875 34.7745C30.324 32.962 31.4596 31.5565 33.109 30.563C33.2754 30.4628 33.4967 30.269 33.5016 30.1123C33.5355 28.9863 33.5194 27.8603 33.5194 26.7359C27.8587 26.7359 22.2918 26.7359 16.7055 26.7359C16.7055 27.2303 16.7055 27.6761 16.7055 28.1236C16.6991 28.8054 16.6667 29.4871 16.6942 30.1672C16.7217 30.8344 16.4454 31.1963 15.7815 31.2625C15.1385 31.2625 14.8574 30.9152 14.8558 30.3013C14.8542 29.1252 14.8558 27.9492 14.8558 26.7182C14.1078 26.7182 13.4245 26.744 12.7428 26.7133C10.935 26.6293 9.53766 25.8394 8.6863 24.2142C7.297 21.5664 8.74446 18.3985 11.5974 17.7474C12.6798 17.5003 13.8445 17.6085 14.9721 17.5697C15.5941 17.5487 16.3 17.7361 16.817 17.4987C17.2839 17.2854 17.5391 16.6166 17.901 16.1594C19.6344 13.964 21.9138 12.7508 24.6714 12.3792C24.8217 12.3582 25.0446 12.1127 25.0591 11.9544C25.1835 10.6507 25.4888 9.40837 26.2433 8.31631C27.5647 6.40035 29.2933 5.22752 31.7181 5.15806C34.0428 5.09182 35.2285 5.75255 36.3594 6.57806C36.928 5.97549 37.4789 5.3503 38.0718 4.77196C39.5015 3.37619 41.2219 2.55714 43.188 2.20012C46.5369 1.58947 49.5449 2.38267 52.1587 4.49248C53.9923 5.97225 55.1037 7.98029 55.6465 10.2743C55.7354 10.6523 55.8824 10.7654 56.2426 10.8671C58.8807 11.6103 60.8968 13.8525 61.228 16.7491C61.4687 18.8573 60.8758 20.6569 59.543 22.1948C58.9421 22.8879 58.0633 23.3483 57.2862 23.8782C57.0455 24.0413 56.6707 23.9912 56.6836 24.4549C56.695 24.9024 56.745 25.2578 57.2022 25.5017C58.7547 26.3272 59.808 27.576 60.3104 29.2771C60.6286 30.353 60.6981 31.437 60.3637 32.508C60.2377 32.9119 60.3653 33.1106 60.6577 33.2915C62.8144 34.6243 64.4024 36.4708 65.5348 38.7195C66.2618 40.1621 66.6382 41.713 66.8821 43.3026C66.9984 44.0651 66.6964 44.5546 65.9775 44.8002C65.3184 44.6338 65.0324 44.1928 64.9468 43.532C64.7497 42.0216 64.3604 40.5741 63.6156 39.2187C62.6577 37.474 61.3879 36.0508 59.724 34.9522C59.3863 34.7293 59.228 34.676 58.9308 34.9749C57.2604 36.6566 55.1441 36.9926 52.9034 36.8973C52.3574 36.8747 51.7548 36.2188 51.7855 35.7826C51.8195 35.3109 52.3122 35.0056 52.9632 34.9652C53.8275 34.9119 54.7128 34.9005 55.5464 34.7002C58.2797 34.0395 59.2199 31.8166 58.3023 29.3514C57.8646 28.1753 56.9647 27.3886 55.7547 26.9573C55.2152 26.765 54.8404 26.4096 54.8598 25.7214C54.8727 25.2303 54.7467 24.7214 54.6013 24.2449C54.2572 23.1124 54.4511 22.7667 55.5674 22.4485C56.6174 22.1496 57.5544 21.6423 58.2377 20.7474C59.1666 19.5325 59.5366 18.2095 59.2926 16.6618C58.9825 14.6974 57.3428 12.9656 55.3703 12.6458C54.8226 12.5569 54.2007 12.4972 53.9858 11.8251C53.8776 11.4875 53.7952 11.1418 53.7225 10.7944C53.086 7.71535 51.2637 5.65078 48.3607 4.5054C47.0231 3.97714 45.6419 3.8786 44.2203 4.00299C43.1363 4.0983 42.1234 4.38101 41.1686 4.89473C39.6549 5.70893 38.4999 6.87046 37.6485 8.368C37.1897 9.17574 36.4304 9.27913 35.8618 8.65879C33.8279 6.43751 29.7957 6.46659 28.0074 9.15797C27.2949 10.229 26.8733 11.3873 27.1318 12.7152C27.2869 13.5101 26.9444 14.0932 26.2934 14.1869C25.7909 14.2596 25.2788 14.2645 24.7764 14.3356C23.4727 14.5213 22.245 14.9091 21.1933 15.7426C20.4615 16.2063 19.7798 16.7216 19.3032 17.5633C19.5875 17.5633 19.7975 17.5633 20.0075 17.5633C23.875 17.5633 27.7424 17.5504 31.6099 17.5681C33.7504 17.5794 35.8973 17.5633 38.0314 17.7038C41.2623 17.9171 42.8907 21.2934 41.6323 24.0252C40.7922 25.8474 39.2478 26.6406 37.2963 26.7133C36.6808 26.7359 36.0637 26.7166 35.4676 26.7166C35.4676 27.723 35.4676 28.6664 35.4676 29.6454C36.0961 29.5582 36.6502 29.4806 37.2059 29.4047C37.5177 29.4548 37.8294 29.5226 38.1445 29.5517C40.0281 29.7213 41.6436 30.4467 42.9263 31.857C43.2542 32.2172 43.2332 32.7649 42.8827 33.0993C42.398 33.5629 41.9344 33.5403 41.3415 32.9749C40.1961 31.8828 38.7745 31.3901 37.2592 31.3917C35.8763 31.3934 34.55 31.7471 33.4127 32.7132C32.0816 33.8424 31.3142 35.2333 31.1559 36.928C30.9605 39.0152 31.786 40.7324 33.3239 42.1185C34.4709 43.1524 35.8796 43.6209 37.3707 43.5837C38.9716 43.5449 40.3657 42.8325 41.6016 41.7873C41.8326 41.5918 42.3705 41.5773 42.671 41.7049C42.9053 41.8035 43.1492 42.2784 43.1056 42.5385C43.0458 42.8858 42.713 43.1847 42.4966 43.5046C42.0151 43.8632 41.5321 44.2218 41.0442 44.5869C42.8342 47.708 44.6128 50.7677 46.3478 53.8533C46.8923 54.8226 47.4884 55.8177 47.7565 56.8774C48.099 58.2328 48.1378 59.6658 48.3009 61.0648C48.3995 61.9145 48.6111 62.7174 49.1879 63.383C49.8066 64.4944 51.6886 65.4944 52.8889 65.2795C54.8178 64.9354 56.2394 63.9613 56.8242 61.9823C57.1085 61.0195 57.4381 60.8499 58.4284 61.1407C60.6949 61.8063 63.3249 60.257 63.8014 57.9598C64.1278 56.3863 63.7917 55.039 62.6496 53.8937C61.9905 53.2329 61.9323 52.9502 62.4848 52.199C63.4945 50.8259 64.2279 49.3267 64.6883 47.6935C64.8547 47.0861 65.244 46.8324 65.8418 46.8227ZM27.5195 37.2882C25.5228 37.2753 23.5244 37.2866 21.5277 37.2365C20.9655 37.222 20.6844 37.4449 20.4308 37.8956C18.8686 40.6726 17.2952 43.4432 15.712 46.2072C13.4471 50.1587 11.1677 54.1021 8.8947 58.0487C8.52798 58.6852 8.4149 59.362 8.66207 60.0632C9.04978 61.1568 9.71698 61.5639 11.0917 61.5639C20.1384 61.5656 29.1867 61.5656 38.2333 61.5639C38.4046 61.5639 38.5758 61.5478 38.747 61.5397C38.9393 61.5478 39.1331 61.5656 39.3254 61.5639C41.2268 61.5462 42.2833 59.8515 41.432 58.165C41.1169 57.5414 40.7454 56.9453 40.3964 56.3395C38.4239 52.9115 36.4563 49.4802 34.4725 46.057C34.0557 45.3381 33.71 44.5966 32.8877 44.1491C31.4273 43.3543 30.4096 42.0878 29.8377 40.5402C29.4564 39.5063 29.2771 38.3964 29.0009 37.2882C28.5873 37.2882 28.0542 37.2882 27.5195 37.2882ZM24.9703 24.7538C29.0994 24.7538 33.2286 24.7683 37.3561 24.7473C39.6598 24.736 40.705 22.5842 39.7777 20.8168C39.2511 19.8136 38.2882 19.5148 37.264 19.5115C29.135 19.4922 21.0075 19.4922 12.8785 19.5132C11.9851 19.5148 11.1499 19.7716 10.6023 20.6052C10.0158 21.4986 9.88499 22.4259 10.4229 23.3483C10.9318 24.2206 11.6782 24.7667 12.7767 24.7602C16.8412 24.7392 20.9057 24.7521 24.9703 24.7538Z" fill="black"/>
<path d="M9.33085 68C8.44557 67.6914 7.50375 67.4895 6.68632 67.0549C4.07733 65.6689 2.57656 63.4767 2.09676 60.5413C1.71712 58.2199 2.50224 56.2345 3.62015 54.2975C5.74773 50.611 7.86077 46.9148 9.98189 43.2251C11.4164 40.7292 12.8671 38.2413 14.2823 35.7341C14.5101 35.3303 14.6038 34.8472 14.7508 34.3998C14.9204 33.8812 15.1336 33.4159 15.7847 33.3949C16.0803 33.6017 16.594 33.7762 16.6279 34.0201C16.7071 34.5823 16.7233 35.2705 16.4648 35.7422C14.8218 38.7373 13.0981 41.6888 11.397 44.6516C9.27754 48.3445 7.15965 52.0375 5.03207 55.7256C3.71869 58.0018 3.48445 60.2974 4.8156 62.6576C5.9642 64.6963 7.70891 65.9968 10.0174 66.0291C17.1497 66.1293 24.2837 66.0711 31.4176 66.0566C32.2189 66.055 32.8279 66.2391 33.0622 67.0856C32.8069 67.391 32.5533 67.6963 32.298 68C24.6423 68 16.9866 68 9.33085 68Z" fill="black"/>
<path d="M65.8417 46.8227C65.244 46.8324 64.8547 47.0877 64.6818 47.6967C64.2214 49.3299 63.488 50.8275 62.4783 52.2023C61.9258 52.9534 61.984 53.2362 62.6431 53.8969C63.7852 55.0406 64.1212 56.3896 63.7949 57.963C63.3184 60.2602 60.6884 61.8095 58.4219 61.1439C57.4316 60.8531 57.102 61.0227 56.8177 61.9856C56.2329 63.9645 54.8113 64.9386 52.8824 65.2827C51.6821 65.496 49.8001 64.496 49.1813 63.3862C50.338 60.53 50.3332 57.6852 48.9083 54.9405C47.7436 52.6966 46.4367 50.527 45.1944 48.3235C44.2913 46.7193 43.3915 45.1136 42.4901 43.5094C42.7065 43.1895 43.0393 42.889 43.0991 42.5433C43.1427 42.2832 42.8988 41.8083 42.6645 41.7098C42.3624 41.5837 41.8245 41.5967 41.5951 41.7921C40.3609 42.839 38.9667 43.5498 37.3642 43.5885C35.8731 43.6257 34.4644 43.1572 33.3174 42.1233C31.7795 40.7372 30.9539 39.0184 31.1494 36.9328C31.3077 35.2382 32.0751 33.8472 33.4062 32.718C34.5435 31.7536 35.8715 31.3982 37.2527 31.3966C38.7664 31.395 40.188 31.8877 41.335 32.9797C41.9279 33.5451 42.3915 33.5662 42.8762 33.1041C43.2267 32.7697 43.2461 32.2221 42.9198 31.8618C41.6355 30.4499 40.0216 29.7262 38.138 29.5565C37.8229 29.5275 37.5128 29.4596 37.1994 29.4095C37.1994 29.0961 37.1994 28.7811 37.1994 28.4451C37.4126 28.4241 37.537 28.4063 37.6614 28.3999C40.0798 28.2706 41.9295 27.1915 43.0522 25.0332C43.4464 24.2756 43.6273 23.4048 43.9068 22.5874C44.7339 23.4937 45.7727 24.0849 46.9778 24.1189C49.435 24.1899 51.5803 22.4792 51.7806 19.7635C51.8275 19.1222 51.5157 18.7506 50.9535 18.7183C50.17 18.6747 49.8938 18.9106 49.855 19.6569C49.7839 21.0333 48.54 22.2191 47.1814 22.2061C45.9375 22.1948 44.7873 20.9784 44.658 19.6424C44.6273 19.329 44.3608 18.8831 44.0958 18.7846C43.734 18.6505 43.1976 18.5164 42.9165 19.0608C42.8568 18.9009 42.8309 18.7167 42.7324 18.5842C41.5385 16.9752 39.9667 15.9252 37.9425 15.9026C32.6017 15.8428 27.2594 15.8832 21.9186 15.8751C21.6747 15.8751 21.4324 15.7911 21.1884 15.7459C22.2401 14.9123 23.4678 14.5246 24.7715 14.3388C25.2739 14.2677 25.7861 14.2612 26.2885 14.1902C26.9395 14.0965 27.282 13.5133 27.1269 12.7185C26.8684 11.3905 27.2917 10.2322 28.0025 9.16119C29.7908 6.46981 33.8214 6.44073 35.8569 8.662C36.4256 9.28235 37.1848 9.17896 37.6436 8.37122C38.495 6.87368 39.65 5.71215 41.1637 4.89795C42.1185 4.38423 43.1314 4.10152 44.2154 4.00621C45.637 3.88182 47.0182 3.98036 48.3558 4.50862C51.2588 5.65399 53.0811 7.71857 53.7176 10.7977C53.7887 11.145 53.8727 11.4907 53.9809 11.8283C54.1958 12.5004 54.8177 12.5601 55.3654 12.649C57.3379 12.9689 58.9776 14.7006 59.2877 16.6651C59.5317 18.2111 59.1617 19.5358 58.2328 20.7506C57.5479 21.6456 56.6109 22.1528 55.5625 22.4517C54.4446 22.7699 54.2507 23.1156 54.5964 24.2481C54.7418 24.7247 54.8678 25.2352 54.8549 25.7246C54.8355 26.4144 55.2103 26.7682 55.7499 26.9605C56.9599 27.3918 57.858 28.1769 58.2975 29.3546C59.215 31.8198 58.2748 34.0427 55.5415 34.7034C54.7079 34.9054 53.8226 34.9151 52.9583 34.9684C52.3073 35.0088 51.8146 35.3157 51.7806 35.7858C51.7499 36.2236 52.3525 36.8779 52.8985 36.9005C55.1376 36.9958 57.2555 36.6598 58.9259 34.9781C59.2231 34.6792 59.3814 34.7325 59.7191 34.9555C61.3814 36.054 62.6528 37.4772 63.6108 39.2219C64.3555 40.5773 64.7432 42.0248 64.9419 43.5352C65.0275 44.1944 65.3135 44.637 65.9726 44.8034C65.929 45.4738 65.8853 46.1475 65.8417 46.8227ZM56.5576 45.6531C56.6141 44.238 56.0681 43.1346 55.0891 42.2364C54.4914 41.6888 53.737 41.8568 53.4123 42.5466C53.1716 43.0587 53.5044 43.364 53.8016 43.6499C54.6255 44.4399 54.7983 45.406 54.548 46.4528C54.2378 47.7549 52.3073 48.8356 50.8114 47.8776C50.6191 47.7532 50.4123 47.5545 50.2136 47.5578C49.8857 47.5626 49.5125 47.6321 49.2443 47.8082C48.9326 48.0117 48.8243 48.3671 49.0521 48.7548C49.6789 49.8194 50.758 50.1264 51.8307 50.17C54.2685 50.2701 56.6965 48.4075 56.5576 45.6531ZM57.2054 52.0019C56.5834 52.0003 56.3024 52.2879 56.2927 52.9341C56.283 53.5415 56.6626 54.0213 57.1796 54.0584C57.6303 54.0907 58.2232 53.4688 58.2215 52.9664C58.2215 52.4187 57.7837 52.0035 57.2054 52.0019ZM50.8776 13.7136C50.8792 13.0254 50.6417 12.7847 49.9649 12.7847C49.4188 12.7847 48.9293 13.2516 48.9439 13.7588C48.9584 14.2806 49.4043 14.7071 49.9487 14.7216C50.5787 14.7362 50.876 14.4147 50.8776 13.7136ZM52.9389 17.5213C52.9309 18.1254 53.3153 18.5859 53.8323 18.5891C54.3492 18.5923 54.8678 18.0689 54.8597 17.5503C54.8517 17.0657 54.3509 16.5568 53.863 16.5407C53.3783 16.5229 52.947 16.9801 52.9389 17.5213Z" fill="#EDD6FF"/>
<path d="M34.9862 66.9709C34.3449 67.008 33.7035 67.0468 33.0622 67.0839C32.8279 66.2374 32.2189 66.0533 31.4176 66.0549C24.2837 66.0694 17.1498 66.1276 10.0174 66.0274C7.70893 65.9951 5.96421 64.6963 4.81561 62.6559C3.48446 60.2957 3.71871 58.0001 5.03209 55.7239C7.15967 52.0358 9.27756 48.3428 11.3971 44.6499C13.0982 41.6871 14.8219 38.7356 16.4648 35.7405C16.7233 35.2688 16.7055 34.5806 16.628 34.0184C16.594 33.7761 16.0803 33.6 15.7847 33.3932C15.7831 32.6824 15.7831 31.9716 15.7814 31.2608C16.4454 31.1946 16.7217 30.8327 16.6942 30.1655C16.6667 29.4854 16.699 28.8037 16.7055 28.1236C18.9817 28.1219 21.2563 28.1203 23.5325 28.1187C26.1092 28.1171 28.6842 28.1123 31.2609 28.13C31.4709 28.1316 31.8425 28.2657 31.8603 28.382C31.9297 28.8295 31.9653 29.2528 31.4645 29.6179C29.5227 31.0346 28.2691 32.9328 27.757 35.2979C25.3919 35.3027 23.0269 35.3286 20.6634 35.2979C19.9785 35.2898 19.5487 35.5434 19.2224 36.1169C17.3065 39.49 15.3824 42.8583 13.4552 46.2249C11.3486 49.905 9.26947 53.6012 7.11766 57.2538C5.45534 60.076 7.71539 63.4944 10.5312 63.4911C20.2272 63.4847 29.9217 63.5089 39.6178 63.4831C42.5967 63.475 44.6968 60.265 43.1815 57.4234C41.663 54.5737 39.9893 51.8064 38.3916 48.9987C38.0621 48.4188 37.7632 47.8227 37.4514 47.233C38.0378 47.2217 38.5306 47.149 38.9247 47.876C40.4271 50.6433 42.0927 53.3201 43.6015 56.0842C45.0958 58.824 44.9795 61.5752 43.3253 64.2391C43.1023 64.5961 42.8536 64.9386 42.6177 65.2875L42.6226 65.2843C42.5434 65.3312 42.4658 65.378 42.3867 65.4249C41.566 65.8626 40.6985 66.084 39.7615 66.0662C38.6905 66.0468 37.6178 66.105 36.55 66.05C35.7826 66.0113 35.2334 66.2003 34.9862 66.9709Z" fill="#8D2ED1"/>
<path d="M15.9106 13.6893C15.909 13.1482 16.3258 12.6635 16.7992 12.6554C17.3904 12.6474 17.8444 13.0884 17.846 13.6764C17.8476 14.1594 17.2854 14.7232 16.804 14.7184C16.3291 14.7152 15.9123 14.237 15.9106 13.6893Z" fill="black"/>
<path d="M20.0479 9.817C20.6876 9.82508 21.0866 10.1676 21.0672 10.7249C21.0495 11.2903 20.5729 11.7669 20.0398 11.754C19.5196 11.741 19.119 11.2758 19.1367 10.6781C19.1545 10.0932 19.4534 9.81054 20.0479 9.817Z" fill="black"/>
<path d="M38.7486 61.538C38.5774 61.5461 38.4061 61.5623 38.2349 61.5623C29.1882 61.5639 20.14 61.5639 11.0933 61.5623C9.71693 61.5623 9.05135 61.1552 8.66364 60.0615C8.41485 59.3604 8.52955 58.6851 8.89627 58.047C11.1692 54.1004 13.4471 50.157 15.7136 46.2056C17.2983 43.4415 18.8702 40.671 20.4324 37.894C20.686 37.4433 20.9671 37.2203 21.5293 37.2349C23.526 37.2866 25.5243 37.2752 27.5211 37.2866C27.5631 37.839 27.576 38.3964 27.6519 38.944C28.0348 41.7372 29.5162 43.8518 31.7229 45.5271C32.0848 45.8017 32.466 46.1184 32.689 46.5012C34.6873 49.9212 36.6582 53.3557 38.6226 56.795C39.0959 57.6238 39.5838 58.4299 39.5531 59.4783C39.5273 60.3022 39.0943 60.8838 38.7486 61.538ZM23.5341 41.9407C20.6327 41.8761 18.5326 44.288 18.6376 46.9406C18.7442 49.6207 20.7958 51.745 23.5034 51.6917C26.2529 51.6384 28.3918 49.7758 28.3983 46.7742C28.4047 44.0021 26.3967 42.0086 23.5341 41.9407ZM32.8134 55.5737C32.8812 53.4623 31.2092 52.0116 29.2722 52.0278C27.0671 52.0455 25.7812 53.6125 25.7537 55.5705C25.7295 57.4283 27.2464 59.1471 29.3579 59.1084C31.08 59.0761 32.9248 57.5462 32.8134 55.5737ZM30.2318 48.9535C30.227 49.5125 30.7326 50.0843 31.2157 50.065C31.6098 50.0488 32.1866 49.4123 32.1752 49.0068C32.1575 48.4285 31.7342 48.0004 31.1833 48.0036C30.6389 48.0068 30.2383 48.4075 30.2318 48.9535Z" fill="#EDD6FF"/>
<path d="M24.9703 24.7521C20.9058 24.7521 16.8413 24.7391 12.7783 24.7601C11.6798 24.765 10.9351 24.2206 10.4246 23.3482C9.88664 22.4258 10.0175 21.4985 10.6039 20.6051C11.1516 19.7699 11.9868 19.5147 12.8801 19.5131C21.0092 19.4921 29.1366 19.4921 37.2657 19.5115C38.2899 19.5147 39.2527 19.8136 39.7794 20.8168C40.7066 22.5841 39.6614 24.7359 37.3578 24.7472C33.227 24.7682 29.0978 24.7537 24.9703 24.7521Z" fill="#8D2ED1"/>
<path d="M43.9085 22.5842C43.6306 23.4033 43.4497 24.2724 43.0539 25.03C41.9311 27.1883 40.0798 28.2674 37.663 28.3967C37.5387 28.4031 37.4143 28.4209 37.201 28.4419C37.201 28.7779 37.201 29.0913 37.201 29.4064C36.6469 29.4839 36.0912 29.5598 35.4628 29.6471C35.4628 28.6681 35.4628 27.7246 35.4628 26.7182C36.0589 26.7182 36.676 26.7376 37.2915 26.715C39.243 26.6423 40.7874 25.8507 41.6274 24.0268C42.8859 21.2967 41.2575 17.9187 38.0265 17.7055C35.8925 17.5649 33.7471 17.5795 31.605 17.5698C27.7376 17.5504 23.8701 17.5649 20.0027 17.5649C19.7927 17.5649 19.5827 17.5649 19.2983 17.5649C19.7749 16.7249 20.4583 16.2095 21.1884 15.7443C21.4324 15.7895 21.6747 15.8735 21.9186 15.8735C27.2594 15.8816 32.6018 15.8412 37.9425 15.901C39.9667 15.9236 41.5386 16.9737 42.7324 18.5827C42.8293 18.7152 42.8568 18.8993 42.9166 19.0592C42.86 19.2563 42.7534 19.4534 42.7534 19.6505C42.7566 20.7733 43.23 21.7215 43.9085 22.5842Z" fill="#EDD6FF"/>
<path d="M38.7486 61.538C39.0943 60.8838 39.5272 60.3038 39.5515 59.4799C39.5805 58.4331 39.0943 57.627 38.6209 56.7966C36.6565 53.3573 34.6856 49.9228 32.6873 46.5028C32.4628 46.1199 32.0831 45.8033 31.7213 45.5287C29.5145 43.855 28.0347 41.7388 27.6503 38.9456C27.5743 38.398 27.5614 37.8406 27.5194 37.2881C28.0525 37.2881 28.5872 37.2881 29.0024 37.2881C29.2803 38.3964 29.458 39.5062 29.8392 40.5401C30.4111 42.0877 31.4272 43.3543 32.8892 44.1491C33.7099 44.5949 34.0572 45.3381 34.474 46.0569C36.4578 49.4785 38.4255 52.9098 40.398 56.3394C40.7469 56.9452 41.1185 57.5413 41.4335 58.1649C42.2848 59.8515 41.2283 61.5445 39.3269 61.5639C39.1347 61.5639 38.9408 61.5461 38.7486 61.538Z" fill="#EDD6FF"/>
<path d="M27.7553 35.298C28.2674 32.933 29.521 31.0348 31.4628 29.618C31.9636 29.2529 31.9265 28.8313 31.8586 28.3822C31.8408 28.2658 31.4693 28.1318 31.2593 28.1301C28.6826 28.1124 26.1075 28.1188 23.5309 28.1188C21.2546 28.1188 18.9801 28.1221 16.7039 28.1237C16.7039 27.6762 16.7039 27.2303 16.7039 26.736C22.2902 26.736 27.8587 26.736 33.5177 26.736C33.5177 27.8604 33.5339 28.9863 33.4999 30.1123C33.4951 30.269 33.2738 30.4629 33.1074 30.563C31.458 31.5566 30.3223 32.962 29.6858 34.7746C29.5436 35.1801 29.3094 35.4224 28.8377 35.3642C28.479 35.3222 28.1156 35.319 27.7553 35.298Z" fill="#8D2ED1"/>
<path d="M42.4917 43.5062C43.3932 45.1103 44.2914 46.7161 45.196 48.3203C46.4383 50.5238 47.7453 52.6934 48.91 54.9373C50.3349 57.6819 50.3397 60.5268 49.183 63.383C48.6063 62.7174 48.3963 61.9145 48.2961 61.0647C48.133 59.6641 48.0958 58.2328 47.7517 56.8774C47.4836 55.8177 46.8874 54.8242 46.343 53.8533C44.6096 50.7677 42.831 47.708 41.0394 44.5869C41.5273 44.2234 42.0103 43.8648 42.4917 43.5062Z" fill="#EDD6FF"/>
<path d="M42.6129 65.2893C42.8487 64.9403 43.0975 64.5995 43.3205 64.2408C44.9747 61.5769 45.091 58.8258 43.5967 56.0859C42.0895 53.3219 40.4223 50.645 38.9199 47.8777C38.5257 47.1508 38.033 47.2234 37.4466 47.2348C37.1106 46.7097 36.7746 46.1831 36.4353 45.65C37.3174 45.5256 38.1396 45.3786 38.9651 45.3204C39.1348 45.3091 39.3819 45.6015 39.5031 45.8083C40.3108 47.1701 41.0992 48.5433 41.8827 49.9181C43.062 51.9875 44.2655 54.044 45.3996 56.1376C46.7129 58.5608 46.5579 60.9663 45.0458 63.2473C44.4545 64.1455 43.6823 64.9161 42.6129 65.2893Z" fill="#8D2ED1"/>
<path d="M42.3834 65.425C42.4626 65.3782 42.5401 65.3313 42.6193 65.2845C42.5401 65.3313 42.461 65.3782 42.3834 65.425Z" fill="black"/>
<path d="M56.5576 45.6531C56.6965 48.4075 54.2701 50.2701 51.8339 50.1684C50.7613 50.1231 49.6821 49.8178 49.0553 48.7532C48.8259 48.3655 48.9358 48.0101 49.2476 47.8065C49.5157 47.6321 49.8889 47.5626 50.2168 47.5561C50.4139 47.5529 50.6207 47.7532 50.8146 47.876C52.3105 48.834 54.2394 47.7532 54.5512 46.4512C54.8016 45.4043 54.6271 44.4383 53.8048 43.6483C53.5059 43.3624 53.1748 43.057 53.4155 42.5449C53.7386 41.8551 54.4946 41.6871 55.0923 42.2348C56.0665 43.1346 56.6141 44.238 56.5576 45.6531Z" fill="black"/>
<path d="M43.9085 22.5841C43.2283 21.7215 42.7566 20.7748 42.755 19.6504C42.755 19.4534 42.8616 19.2563 42.9182 19.0592C43.2009 18.5148 43.7356 18.6472 44.0991 18.7829C44.364 18.8815 44.6306 19.3273 44.6613 19.6407C44.7905 20.9767 45.9391 22.1916 47.1846 22.2045C48.5432 22.2174 49.7888 21.0301 49.8582 19.6553C49.897 18.9089 50.1716 18.6731 50.9568 18.7167C51.5189 18.7474 51.8307 19.119 51.7839 19.7619C51.5836 22.4791 49.4382 24.1899 46.9811 24.1172C45.7743 24.0801 44.7372 23.4888 43.9085 22.5841Z" fill="black"/>
<path d="M57.2054 52.0019C57.7822 52.0035 58.2216 52.4187 58.2232 52.9664C58.2248 53.4688 57.6319 54.0891 57.1812 54.0584C56.6643 54.0229 56.2846 53.5415 56.2943 52.9341C56.304 52.2879 56.5851 52.0003 57.2054 52.0019Z" fill="black"/>
<path d="M50.8776 13.7137C50.876 14.4148 50.5787 14.7363 49.9471 14.7201C49.4027 14.7072 48.9568 14.2807 48.9423 13.7573C48.9277 13.25 49.4172 12.7831 49.9633 12.7831C50.6418 12.7848 50.8792 13.0271 50.8776 13.7137Z" fill="black"/>
<path d="M52.9389 17.5213C52.9454 16.9801 53.3767 16.523 53.863 16.5407C54.3509 16.5585 54.8516 17.0658 54.8597 17.5504C54.8678 18.069 54.3492 18.594 53.8323 18.5891C53.3169 18.5859 52.9325 18.1255 52.9389 17.5213Z" fill="black"/>
<path d="M23.534 41.9407C26.3966 42.0085 28.4047 44.002 28.3998 46.7742C28.3934 49.7757 26.2529 51.6368 23.5049 51.6917C20.7958 51.745 18.7458 49.6207 18.6391 46.9406C18.5325 44.288 20.6326 41.8761 23.534 41.9407ZM23.5114 43.876C21.7683 43.7193 20.5018 45.527 20.5567 46.8194C20.6278 48.5399 22.0559 49.8517 23.5486 49.7709C25.1963 49.682 26.4483 48.5641 26.4887 46.7758C26.5243 45.1668 25.0849 43.7516 23.5114 43.876Z" fill="black"/>
<path d="M32.8134 55.5737C32.9248 57.5462 31.08 59.0761 29.3595 59.1084C27.248 59.1471 25.7311 57.4283 25.7554 55.5705C25.7812 53.6125 27.0687 52.0455 29.2739 52.0278C31.2092 52.0116 32.8812 53.4607 32.8134 55.5737ZM30.8796 55.5269C30.8796 54.6416 30.2141 53.9566 29.3385 53.9389C28.5065 53.9211 27.6309 54.7724 27.6535 55.5769C27.6745 56.3459 28.4952 57.1585 29.2577 57.1633C30.2028 57.1682 30.8796 56.4848 30.8796 55.5269Z" fill="black"/>
<path d="M30.2318 48.9535C30.2367 48.4075 30.6389 48.0052 31.1834 48.0036C31.7342 48.0004 32.1575 48.4301 32.1753 49.0068C32.1882 49.4123 31.6098 50.0488 31.2157 50.065C30.7326 50.0844 30.227 49.5141 30.2318 48.9535Z" fill="black"/>
<path d="M23.5115 43.8762C25.085 43.7518 26.5243 45.1686 26.4888 46.7759C26.4484 48.5643 25.1964 49.6806 23.5486 49.771C22.0559 49.8518 20.6279 48.54 20.5568 46.8196C20.5018 45.5272 21.7684 43.7195 23.5115 43.8762Z" fill="#EDD6FF"/>
<path d="M30.8797 55.527C30.8797 56.4866 30.2028 57.1683 29.2577 57.1635C28.4952 57.1586 27.6746 56.3477 27.6536 55.5771C27.6309 54.7742 28.5065 53.9228 29.3385 53.939C30.2141 53.9567 30.8781 54.6417 30.8797 55.527Z" fill="#EDD6FF"/>
</svg>
