<svg width="28" height="28" viewBox="0 0 28 28" fill="none" xmlns="http://www.w3.org/2000/svg">
<path opacity="0.1" d="M0 4C0 1.79086 1.79086 0 4 0H24C26.2091 0 28 1.79086 28 4V24C28 26.2091 26.2091 28 24 28H4C1.79086 28 0 26.2091 0 24V4Z" fill="#8D2ED1"/>
<path d="M15.75 13.125C15.75 13.5891 15.5656 14.0342 15.2374 14.3624C14.9092 14.6906 14.4641 14.875 14 14.875C13.5359 14.875 13.0908 14.6906 12.7626 14.3624C12.4344 14.0342 12.25 13.5891 12.25 13.125C12.25 12.6609 12.4344 12.2158 12.7626 11.8876C13.0908 11.5594 13.5359 11.375 14 11.375C14.4641 11.375 14.9092 11.5594 15.2374 11.8876C15.5656 12.2158 15.75 12.6609 15.75 13.125V13.125Z" stroke="#7A23A5" stroke-linecap="round" stroke-linejoin="round"/>
<path d="M18.375 13.125C18.375 17.2912 14 19.6875 14 19.6875C14 19.6875 9.625 17.2912 9.625 13.125C9.625 11.9647 10.0859 10.8519 10.9064 10.0314C11.7269 9.21094 12.8397 8.75 14 8.75C15.1603 8.75 16.2731 9.21094 17.0936 10.0314C17.9141 10.8519 18.375 11.9647 18.375 13.125V13.125Z" stroke="#7A23A5" stroke-linecap="round" stroke-linejoin="round"/>
</svg>
