<svg width="40" height="40" viewBox="0 0 40 40" fill="none" xmlns="http://www.w3.org/2000/svg">
<rect width="40" height="40" rx="4" fill="white"/>
<path d="M20.1938 9.47363C14.4862 9.47363 9.8588 14.0648 9.8588 19.7289C9.8588 21.6664 10.4007 23.4784 11.3418 25.0243L9.47656 30.5263L15.1986 28.7085C16.6792 29.5208 18.3821 29.9842 20.1938 29.9842C25.9021 29.9842 30.5292 25.3923 30.5292 19.7289C30.5292 14.0648 25.9021 9.47363 20.1938 9.47363ZM25.333 23.6235C25.0898 24.2263 23.9902 24.7764 23.505 24.8017C23.0203 24.8274 23.0065 25.1774 20.364 24.0295C17.7219 22.8812 16.1322 20.0894 16.0069 19.9096C15.8815 19.7305 14.9834 18.4507 15.0319 17.1627C15.0807 15.8745 15.786 15.2667 16.0377 15.014C16.2892 14.7608 16.5775 14.7155 16.7535 14.7126C16.9616 14.7092 17.0963 14.7064 17.2503 14.7121C17.4042 14.7179 17.6353 14.6799 17.8354 15.212C18.0354 15.7441 18.5141 17.0519 18.5753 17.1852C18.6365 17.3186 18.6744 17.4731 18.5801 17.6444C18.4856 17.816 18.4372 17.9233 18.3 18.0712C18.1621 18.2191 18.0099 18.4021 17.8869 18.5152C17.7496 18.6405 17.6063 18.7771 17.7506 19.0448C17.8947 19.3123 18.3922 20.1893 19.15 20.9121C20.1239 21.8412 20.9638 22.1493 21.2222 22.2898C21.4814 22.4309 21.6361 22.4152 21.7968 22.2461C21.9567 22.077 22.4847 21.5062 22.6706 21.2513C22.8565 20.9958 23.0307 21.0458 23.2694 21.1419C23.508 21.2383 24.7806 21.9199 25.0398 22.0606C25.2987 22.2011 25.4718 22.2734 25.5337 22.3849C25.5955 22.4967 25.576 23.0207 25.333 23.6235Z" fill="#8D2ED1"/>
</svg>
