<svg width="242" height="282" viewBox="0 0 242 282" fill="none" xmlns="http://www.w3.org/2000/svg">
<g opacity="0.1">
<g style="mix-blend-mode:overlay">
<path d="M49.7386 65.3742L56.9062 52.9616L49.7386 40.5435H35.4032L28.2355 52.9616L35.4032 65.3742H49.7386Z" fill="#7A23A5"/>
</g>
<g style="mix-blend-mode:overlay">
<path d="M2.82059 65.3742L9.98828 52.9616L2.82059 40.5435H-11.5148L-18.6825 52.9616L-11.5148 65.3742H2.82059Z" fill="#7A23A5"/>
</g>
<g style="mix-blend-mode:overlay">
<path d="M2.82059 92.4031L9.98828 79.9905L2.82059 67.5779H-11.5148L-18.6825 79.9905L-11.5148 92.4031H2.82059Z" fill="#7A23A5"/>
</g>
<g style="mix-blend-mode:overlay">
<path d="M73.1995 105.923L80.3672 93.505L73.1995 81.0924H58.8641L51.6964 93.505L58.8641 105.923H73.1995Z" fill="#7A23A5"/>
</g>
<g style="mix-blend-mode:overlay">
<path d="M49.7386 119.438L56.9062 107.02L49.7386 94.6069H35.4032L28.2355 107.02L35.4032 119.438H49.7386Z" fill="#7A23A5"/>
</g>
<g style="mix-blend-mode:overlay">
<path d="M26.2815 105.923L33.4492 93.505L26.2815 81.0924H11.9462L4.77847 93.505L11.9462 105.923H26.2815Z" fill="#7A23A5"/>
</g>
<g style="mix-blend-mode:overlay">
<path d="M120.121 132.952L127.289 120.534L120.121 108.121H105.786L98.6182 120.534L105.786 132.952H120.121Z" fill="#7A23A5"/>
</g>
<g style="mix-blend-mode:overlay">
<path d="M49.7386 146.467L56.9062 134.054L49.7386 121.636H35.4032L28.2355 134.054L35.4032 146.467H49.7386Z" fill="#7A23A5"/>
</g>
<g style="mix-blend-mode:overlay">
<path d="M2.82059 146.467L9.98828 134.054L2.82059 121.636H-11.5148L-18.6825 134.054L-11.5148 146.467H2.82059Z" fill="#7A23A5"/>
</g>
<g style="mix-blend-mode:overlay">
<path d="M73.1995 159.981L80.3672 147.569L73.1995 135.15H58.8641L51.6964 147.569L58.8641 159.981H73.1995Z" fill="#7A23A5"/>
</g>
<g style="mix-blend-mode:overlay">
<path d="M49.7386 173.496L56.9062 161.083L49.7386 148.665H35.4032L28.2355 161.083L35.4032 173.496H49.7386Z" fill="#7A23A5"/>
</g>
<g style="mix-blend-mode:overlay">
<path d="M26.2815 159.981L33.4492 147.569L26.2815 135.15H11.9462L4.77847 147.569L11.9462 159.981H26.2815Z" fill="#7A23A5"/>
</g>
<g style="mix-blend-mode:overlay">
<path d="M49.7386 200.524L56.9062 188.112L49.7386 175.699H35.4032L28.2355 188.112L35.4032 200.524H49.7386Z" fill="#7A23A5"/>
</g>
<g style="mix-blend-mode:overlay">
<path d="M2.82059 200.524L9.98828 188.112L2.82059 175.699H-11.5148L-18.6825 188.112L-11.5148 200.524H2.82059Z" fill="#7A23A5"/>
</g>
<g style="mix-blend-mode:overlay">
<path d="M96.6565 227.559L103.824 215.141L96.6565 202.728H82.3212L75.1535 215.141L82.3212 227.559H96.6565Z" fill="#7A23A5"/>
</g>
<g style="mix-blend-mode:overlay">
<path d="M120.121 241.073L127.289 228.655L120.121 216.243H105.786L98.6182 228.655L105.786 241.073H120.121Z" fill="#7A23A5"/>
</g>
<g style="mix-blend-mode:overlay">
<path d="M73.1995 241.073L80.3672 228.655L73.1995 216.243H58.8641L51.6964 228.655L58.8641 241.073H73.1995Z" fill="#7A23A5"/>
</g>
<g style="mix-blend-mode:overlay">
<path d="M26.2815 241.073L33.4492 228.655L26.2815 216.243H11.9462L4.77847 228.655L11.9462 241.073H26.2815Z" fill="#7A23A5"/>
</g>
<g style="mix-blend-mode:overlay">
<path d="M96.6565 281.617L103.824 269.204L96.6565 256.786H82.3212L75.1535 269.204L82.3212 281.617H96.6565Z" fill="#7A23A5"/>
</g>
<g style="mix-blend-mode:overlay">
<path d="M73.1995 268.102L80.3672 255.684L73.1995 243.272H58.8641L51.6964 255.684L58.8641 268.102H73.1995Z" fill="#7A23A5"/>
</g>
<g style="mix-blend-mode:overlay">
<path d="M2.82059 92.4031L9.98828 79.9905L2.82059 67.5779H-11.5148L-18.6825 79.9905L-11.5148 92.4031H2.82059Z" fill="#7A23A5"/>
</g>
<g style="mix-blend-mode:overlay">
<path d="M49.7386 146.467L56.9062 134.054L49.7386 121.636H35.4032L28.2355 134.054L35.4032 146.467H49.7386Z" fill="#7A23A5"/>
</g>
<g style="mix-blend-mode:overlay">
<path d="M26.2815 241.073L33.4492 228.655L26.2815 216.243H11.9462L4.77847 228.655L11.9462 241.073H26.2815Z" fill="#7A23A5"/>
</g>
<g style="mix-blend-mode:overlay">
<path d="M73.1995 268.102L80.3672 255.684L73.1995 243.272H58.8641L51.6964 255.684L58.8641 268.102H73.1995Z" fill="#7A23A5"/>
</g>
<g style="mix-blend-mode:overlay" opacity="0.3">
<path d="M26.2815 51.8595L33.4492 39.4469L26.2815 27.0288H11.9462L4.77847 39.4469L11.9462 51.8595H26.2815Z" fill="#7A23A5"/>
</g>
<g style="mix-blend-mode:overlay" opacity="0.3">
<path d="M96.6565 92.4031L103.824 79.9905L96.6565 67.5779H82.3212L75.1535 79.9905L82.3212 92.4031H96.6565Z" fill="#7A23A5"/>
</g>
<g style="mix-blend-mode:overlay" opacity="0.3">
<path d="M143.582 119.438L150.75 107.02L143.582 94.6069H129.247L122.079 107.02L129.247 119.438H143.582Z" fill="#7A23A5"/>
</g>
<g style="mix-blend-mode:overlay" opacity="0.3">
<path d="M96.6565 119.438L103.824 107.02L96.6565 94.6069H82.3212L75.1535 107.02L82.3212 119.438H96.6565Z" fill="#7A23A5"/>
</g>
<g style="mix-blend-mode:overlay" opacity="0.3">
<path d="M26.2815 132.952L33.4492 120.534L26.2815 108.121H11.9462L4.77847 120.534L11.9462 132.952H26.2815Z" fill="#7A23A5"/>
</g>
<g style="mix-blend-mode:overlay" opacity="0.3">
<path d="M96.6565 173.496L103.824 161.083L96.6565 148.665H82.3212L75.1535 161.083L82.3212 173.496H96.6565Z" fill="#7A23A5"/>
</g>
<g style="mix-blend-mode:overlay" opacity="0.3">
<path d="M26.2815 214.039L33.4492 201.626L26.2815 189.214H11.9462L4.77847 201.626L11.9462 214.039H26.2815Z" fill="#7A23A5"/>
</g>
<g style="mix-blend-mode:overlay" opacity="0.3">
<path d="M155.866 26.5827L158.77 21.5526L155.866 16.5281H150.059L147.156 21.5526L150.059 26.5827H155.866Z" fill="#7A23A5"/>
</g>
<g style="mix-blend-mode:overlay" opacity="0.3">
<path d="M200.53 150.543L203.434 145.513L200.53 140.489H194.723L191.825 145.513L194.723 150.543H200.53Z" fill="#7A23A5"/>
</g>
<g style="mix-blend-mode:overlay" opacity="0.3">
<path d="M159.21 214.865L162.113 209.835L159.21 204.811H153.403L150.505 209.835L153.403 214.865H159.21Z" fill="#7A23A5"/>
</g>
<g style="mix-blend-mode:overlay" opacity="0.3">
<path d="M239.097 268.995L242 263.965L239.097 258.94H233.29L230.392 263.965L233.29 268.995H239.097Z" fill="#7A23A5"/>
</g>
<g style="mix-blend-mode:overlay" opacity="0.3">
<path d="M61.8214 26.3073L66.2344 18.6603L61.8214 11.0188H52.9954L48.5824 18.6603L52.9954 26.3073H61.8214Z" fill="#7A23A5"/>
</g>
<g style="mix-blend-mode:overlay" opacity="0.3">
<path d="M141.708 176.3L146.121 168.658L141.708 161.011H132.882L128.469 168.658L132.882 176.3H141.708Z" fill="#7A23A5"/>
</g>
<g style="mix-blend-mode:overlay" opacity="0.3">
<path d="M176.39 260.455L180.809 252.808L176.39 245.167H167.564L163.151 252.808L167.564 260.455H176.39Z" fill="#7A23A5"/>
</g>
<g style="mix-blend-mode:overlay" opacity="0.3">
<path d="M79.976 60.603L84.3945 52.9615L79.976 45.3145H71.15L66.737 52.9615L71.15 60.603H79.976Z" fill="#7A23A5"/>
</g>
<g style="mix-blend-mode:overlay" opacity="0.3">
<path d="M118.539 44.0751L122.957 36.4336L118.539 28.7866H109.713L105.3 36.4336L109.713 44.0751H118.539Z" fill="#7A23A5"/>
</g>
<g style="mix-blend-mode:overlay" opacity="0.3">
<path d="M121.296 92.4196L125.715 84.7726L121.296 77.1311H112.47L108.057 84.7726L112.47 92.4196H121.296Z" fill="#7A23A5"/>
</g>
<g style="mix-blend-mode:overlay" opacity="0.3">
<path d="M209.445 234.148L213.863 226.507L209.445 218.86H200.619L196.206 226.507L200.619 234.148H209.445Z" fill="#7A23A5"/>
</g>
<g style="mix-blend-mode:overlay" opacity="0.3">
<path d="M143.582 254.588L150.75 242.17L143.582 229.757H129.247L122.079 242.17L129.247 254.588H143.582Z" fill="#7A23A5"/>
</g>
<g style="mix-blend-mode:overlay" opacity="0.3">
<path d="M49.7386 281.617L56.9062 269.204L49.7386 256.786H35.4032L28.2355 269.204L35.4032 281.617H49.7386Z" fill="#7A23A5"/>
</g>
<g opacity="0.6">
<g style="mix-blend-mode:overlay">
<path d="M49.7387 92.4031L56.9064 79.9905L49.7387 67.5779H35.4033L28.2356 79.9905L35.4033 92.4031H49.7387Z" fill="#7A23A5"/>
</g>
<g style="mix-blend-mode:overlay">
<path d="M2.82077 119.438L9.98846 107.019L2.82077 94.6068H-11.5146L-18.6823 107.019L-11.5146 119.438H2.82077Z" fill="#7A23A5"/>
</g>
<g style="mix-blend-mode:overlay">
<path d="M73.1995 132.952L80.3672 120.534L73.1995 108.121H58.8641L51.6964 120.534L58.8641 132.952H73.1995Z" fill="#7A23A5"/>
</g>
<g style="mix-blend-mode:overlay">
<path d="M2.82077 173.496L9.98846 161.083L2.82077 148.665H-11.5146L-18.6823 161.083L-11.5146 173.496H2.82077Z" fill="#7A23A5"/>
</g>
<g style="mix-blend-mode:overlay">
<path d="M73.1995 187.01L80.3672 174.597L73.1995 162.185H58.8641L51.6964 174.597L58.8641 187.01H73.1995Z" fill="#7A23A5"/>
</g>
<g style="mix-blend-mode:overlay">
<path d="M49.7387 227.559L56.9064 215.141L49.7387 202.728H35.4033L28.2356 215.141L35.4033 227.559H49.7387Z" fill="#7A23A5"/>
</g>
<g style="mix-blend-mode:overlay">
<path d="M96.6565 254.588L103.824 242.17L96.6565 229.757H82.3212L75.1535 242.17L82.3212 254.588H96.6565Z" fill="#7A23A5"/>
</g>
<g style="mix-blend-mode:overlay">
<path d="M26.2815 268.102L33.4492 255.684L26.2815 243.272H11.9462L4.77847 255.684L11.9462 268.102H26.2815Z" fill="#7A23A5"/>
</g>
</g>
</g>
</svg>
