<svg width="504" height="381" viewBox="0 0 504 381" fill="none" xmlns="http://www.w3.org/2000/svg">
<g opacity="0.2">
<path d="M569.288 75.3345L569.575 76.7717L577.334 119.026L594.002 124.487L593.714 125.062L576.759 119.601V119.313L569.288 77.9215L564.402 96.6053H564.115L538.251 91.7187L516.986 95.4555L495.433 105.803L483.651 113.277L483.363 112.702L495.146 105.229L516.986 94.8806L537.964 91.1439H538.251L563.828 96.0304L569.288 75.3345Z" fill="#8A4BD3"/>
<path d="M494.283 106.666L500.318 117.301L499.456 117.588L493.996 106.953L494.283 106.666Z" fill="#8A4BD3"/>
<path d="M506.637 61.5371V61.8246L516.983 94.8805L516.695 95.168L506.35 62.3994L489.108 69.2981L488.82 68.7232L506.637 61.5371Z" fill="#8A4BD3"/>
<path d="M501.18 61.2497C501.18 58.3753 503.766 56.3632 506.64 56.6506C509.513 56.938 511.238 59.2376 511.238 62.112C511.238 64.9865 508.651 66.9986 505.778 66.7111C502.904 66.4237 501.18 64.1241 501.18 61.2497Z" fill="#8A4BD3"/>
<path d="M485.086 68.7232C485.373 66.7111 487.097 65.2739 489.109 65.2739C491.121 65.2739 492.557 67.286 492.557 69.2981C492.557 71.3102 490.546 72.7475 488.534 72.7475C486.523 72.7475 485.086 70.7354 485.086 68.7232Z" fill="#8A4BD3"/>
<path d="M488.82 104.941C488.82 102.066 491.407 100.342 493.993 100.629C496.579 100.917 498.591 103.216 498.303 105.803C498.303 108.39 495.717 110.402 493.131 110.115C490.257 110.115 488.533 107.528 488.82 104.941Z" fill="#8A4BD3"/>
<path d="M497.444 116.726C497.444 116.726 498.88 114.427 500.03 114.714C501.467 114.714 502.329 115.864 502.042 117.301C502.042 118.738 500.892 119.601 499.455 119.601C498.018 119.601 497.156 118.451 497.156 117.014L497.444 116.726Z" fill="#8A4BD3"/>
<path d="M481.062 113.852C481.062 113.852 482.499 111.552 483.649 111.552C485.086 111.552 485.948 112.702 485.948 114.139C485.948 115.576 484.798 116.439 483.361 116.439C482.212 116.439 481.062 115.289 481.062 113.852Z" fill="#8A4BD3"/>
<path d="M494.281 125.35V125.637L506.35 157.543H505.775L493.993 126.212L451.175 138.859L457.497 161.855L456.922 162.142L450.313 138.572L450.6 138.285L494.281 125.35Z" fill="#8A4BD3"/>
<path d="M423.875 109.828L451.176 138.859L426.749 150.357L404.621 138.285L390.54 151.507L390.253 151.219L366.401 129.086L356.055 142.884L355.481 142.596L366.401 128.224L366.688 128.511L390.54 150.645L404.334 137.422L404.621 137.71L427.036 149.495L450.314 138.572L423.588 110.403L423.875 109.828Z" fill="#8A4BD3"/>
<path d="M341.975 79.0713L342.263 80.5085L350.022 123.05L366.402 128.512V129.086L349.447 123.338V123.05L341.975 81.9457L337.09 100.63H336.803L310.939 95.4556L289.673 99.1923L268.12 109.54L256.338 117.014L256.051 116.726L267.833 108.965L289.386 98.6174L310.939 94.8807L336.803 100.055L341.975 79.0713Z" fill="#8A4BD3"/>
<path d="M267.258 110.69L273.006 121.325H272.431L266.684 110.977L267.258 110.69Z" fill="#8A4BD3"/>
<path d="M279.325 65.5615L289.958 98.9049L289.383 99.1924L278.75 66.1364L261.795 73.3225L261.508 72.4602L279.325 65.5615Z" fill="#8A4BD3"/>
<path d="M394.273 95.4556H394.848L392.837 117.589L404.619 137.422L428.471 128.224V128.799L404.331 138.285L404.044 137.997L392.262 117.876L394.273 95.4556Z" fill="#8A4BD3"/>
<path d="M520.431 86.8321V87.407L489.682 100.629L455.772 98.3298L431.633 85.6823L431.92 85.1074L456.06 97.7549L489.682 100.054L520.431 86.8321Z" fill="#8A4BD3"/>
<path d="M499.74 66.4238L500.315 66.7113L492.268 101.492L491.406 101.204L499.74 66.4238Z" fill="#8A4BD3"/>
<path d="M318.41 46.5901L318.985 46.8775L312.662 67.5734L311.225 95.168L323.295 117.876L322.72 118.163L310.651 95.4554L310.363 95.168L311.8 67.286L318.41 46.5901Z" fill="#8A4BD3"/>
<path d="M500.027 158.118C500.027 155.244 502.901 152.944 505.775 153.232C508.648 153.232 510.947 156.106 510.66 159.268C510.373 162.142 507.786 164.442 504.913 164.154C501.752 164.154 499.74 161.28 500.027 158.118Z" fill="#8A4BD3"/>
<path d="M484.797 127.074C485.371 121.9 489.682 118.164 494.855 118.451C500.027 119.026 503.763 123.625 503.189 128.512C502.614 133.398 498.303 137.422 493.13 136.847C487.958 136.273 484.222 131.961 484.797 126.787V127.074Z" fill="#8A4BD3"/>
<path d="M485.66 100.055C485.66 97.1802 488.534 95.1681 491.408 95.4555C494.281 95.4555 496.293 98.0425 496.006 100.917C496.006 103.791 493.132 106.091 490.258 105.803C487.384 105.803 485.373 102.929 485.66 100.342V100.055Z" fill="#8A4BD3"/>
<path d="M494.566 66.7112C494.566 63.2619 497.728 60.9623 501.176 61.2498C504.625 61.2498 506.924 64.4117 506.924 67.861C506.636 71.3103 503.475 73.8973 500.314 73.3224C496.865 73.035 494.566 70.1605 494.854 66.7112H494.566Z" fill="#8A4BD3"/>
<path d="M342.835 121.9C343.409 117.589 347.145 114.427 351.456 114.714C355.766 115.002 358.927 119.026 358.64 123.05C358.353 127.362 354.617 130.524 350.019 130.236C345.708 129.949 342.547 125.924 342.835 121.613V121.9Z" fill="#8A4BD3"/>
<path d="M336.801 81.3707C336.801 78.2088 339.962 75.6219 343.41 75.9093C346.571 75.9093 349.158 79.0712 348.87 82.5205C348.583 85.6824 345.709 88.2694 342.548 87.9819C339.1 87.6945 336.801 84.82 337.088 81.3707H336.801Z" fill="#8A4BD3"/>
<path d="M332.203 100.342C332.491 98.0424 334.502 96.0303 337.089 96.3177C339.675 96.6052 341.399 98.6173 341.112 101.204C341.112 103.791 338.813 105.516 336.226 105.228C333.928 105.228 331.916 102.929 332.203 100.342Z" fill="#8A4BD3"/>
<path d="M314.672 115.864C314.96 112.127 318.408 109.253 322.144 109.54C325.88 109.828 328.753 113.277 328.466 117.014C328.179 120.751 324.73 123.625 320.994 123.338C317.259 123.05 314.385 119.601 314.672 115.864Z" fill="#8A4BD3"/>
<path d="M306.34 94.5933C306.627 92.2938 308.639 90.5691 311.225 90.8565C313.524 90.8565 315.248 93.1561 314.961 95.4556C314.961 97.7552 312.662 99.4798 310.363 99.4798C307.777 99.4798 306.34 97.1803 306.34 94.8807V94.5933Z" fill="#8A4BD3"/>
<path d="M305.764 68.7233C306.051 64.9865 309.5 62.1121 313.236 62.687C316.971 62.9744 319.845 66.4237 319.558 70.1605C319.27 73.8972 315.822 76.7717 312.086 76.4842C308.063 76.1968 305.477 72.7475 305.764 69.0107V68.7233Z" fill="#8A4BD3"/>
<path d="M312.661 47.165C312.949 44.2905 315.535 42.2784 318.121 42.5659C320.995 42.8533 323.007 45.1529 322.719 48.0273C322.719 50.9017 320.133 52.9138 317.259 52.6264C314.673 52.6264 312.374 50.0394 312.661 47.165Z" fill="#8A4BD3"/>
<path d="M273.867 64.9865C274.155 62.1121 276.741 60.1 279.327 60.3874C282.201 60.3874 284.213 63.2619 283.925 65.8488C283.925 68.7233 281.339 70.7354 278.465 70.4479C275.591 70.4479 273.58 67.8609 273.867 64.9865Z" fill="#8A4BD3"/>
<path d="M258.063 72.4601C258.063 70.448 260.074 69.0107 262.086 69.0107C264.097 69.0107 265.534 71.0228 265.534 73.0349C265.534 75.047 263.523 76.7717 261.511 76.4843C259.499 76.4843 258.063 74.4722 258.063 72.4601Z" fill="#8A4BD3"/>
<path d="M282.487 98.9048C282.487 94.8806 286.223 92.0062 290.246 92.5811C293.982 92.8685 297.143 96.3178 296.569 100.055C296.281 104.079 292.833 106.953 288.81 106.666C284.786 106.378 281.913 102.929 282.487 98.9048Z" fill="#8A4BD3"/>
<path d="M261.508 108.678C261.795 106.091 264.094 104.079 266.681 104.366C269.267 104.366 271.279 106.953 270.991 109.54C270.991 112.127 268.405 114.139 265.818 113.852C263.232 113.852 261.221 111.265 261.508 108.678Z" fill="#8A4BD3"/>
<path d="M270.129 120.75C270.129 120.75 271.278 118.451 272.715 118.451C274.152 118.451 275.014 119.601 275.014 121.038C275.014 122.188 273.577 123.337 272.428 123.337C270.991 123.337 270.129 122.188 270.129 120.75Z" fill="#8A4BD3"/>
<path d="M253.75 117.589C253.75 117.589 255.187 115.289 256.336 115.289C257.773 115.289 258.635 116.726 258.635 117.876C258.635 119.313 257.199 120.176 256.049 120.176C254.612 120.176 253.75 118.738 253.75 117.589Z" fill="#8A4BD3"/>
<path d="M424.162 86.5446C424.162 83.0953 427.611 80.5083 431.059 80.7957C434.795 81.0832 437.382 84.2451 437.094 87.9818C436.52 91.4311 433.646 94.3056 429.91 93.7307C426.461 93.7307 423.875 90.2814 424.162 86.5446Z" fill="#8A4BD3"/>
<path d="M417.551 111.265C417.551 108.39 420.425 105.803 423.586 106.378C426.747 106.378 428.758 109.253 428.758 112.415C428.758 115.576 425.885 117.589 422.724 117.589C419.562 117.589 417.263 114.714 417.838 111.552L417.551 111.265Z" fill="#8A4BD3"/>
<path d="M423.873 129.086C423.873 126.499 426.46 124.775 428.759 124.775C431.345 124.775 433.069 127.362 433.069 129.949C433.069 132.536 430.483 134.26 427.897 134.26C425.31 134.26 423.299 131.673 423.586 129.086H423.873Z" fill="#8A4BD3"/>
<path d="M390.252 95.7429C390.539 93.1559 392.838 91.4313 395.137 91.7187C397.724 91.7187 399.735 94.0183 399.448 96.6053C399.448 99.1923 396.862 101.204 394.275 100.917C391.689 100.917 389.965 98.3299 389.965 95.7429H390.252Z" fill="#8A4BD3"/>
<path d="M352.032 143.171C352.032 141.159 354.043 139.722 356.055 139.722C358.066 139.722 359.503 141.734 359.503 143.746C359.503 145.758 357.492 147.195 355.48 146.908C353.468 146.908 352.032 144.896 352.032 142.884V143.171Z" fill="#8A4BD3"/>
<path d="M360.652 129.086C360.94 126.499 363.239 124.487 365.825 124.775C368.411 124.775 370.423 127.362 370.136 129.949C370.136 132.823 367.549 134.548 364.963 134.548C362.377 134.548 360.365 131.961 360.652 129.086Z" fill="#8A4BD3"/>
<path d="M399.734 137.997C399.734 135.41 402.321 133.686 404.907 133.686C407.206 133.973 409.218 136.273 408.93 138.86C408.93 141.447 406.344 143.459 404.045 143.171C401.459 143.171 399.734 140.584 399.734 137.997Z" fill="#8A4BD3"/>
<path d="M452.613 161.568C452.901 158.981 455.2 156.968 457.786 157.256C460.372 157.256 462.384 159.555 462.097 162.142C461.809 164.729 459.51 166.742 456.924 166.454C454.338 166.454 452.613 163.867 452.613 161.568Z" fill="#8A4BD3"/>
<path d="M419.563 150.645C419.85 146.908 423.299 144.033 427.035 144.321C430.77 144.896 433.644 148.058 433.357 151.794C433.357 155.531 429.621 158.406 425.885 157.831C422.149 157.543 419.275 154.094 419.563 150.357V150.645Z" fill="#8A4BD3"/>
<path d="M443.414 138.859C443.414 135.123 447.15 132.248 450.886 132.536C454.622 132.823 457.496 136.272 457.208 140.009C456.634 143.746 453.472 146.62 449.737 146.333C446.001 146.046 443.127 142.596 443.414 138.859Z" fill="#8A4BD3"/>
<path d="M383.356 150.357C383.931 146.62 387.092 143.746 390.828 144.033C394.563 144.321 397.437 147.77 397.15 151.507C397.15 155.244 393.414 158.118 389.678 157.831C385.942 157.543 383.068 154.094 383.356 150.357Z" fill="#8A4BD3"/>
<path d="M385.94 117.301C385.94 113.852 389.388 110.977 393.124 111.552C396.573 111.84 399.446 115.001 399.159 118.738C398.872 122.188 395.71 125.062 391.975 124.775C388.239 124.487 385.652 121.325 385.94 117.588V117.301Z" fill="#8A4BD3"/>
<path d="M448.016 97.7551C448.59 93.156 452.614 89.4192 457.499 89.9941C462.384 90.2815 465.833 94.5932 465.258 99.4797C464.971 104.366 460.66 107.816 455.775 107.528C450.889 107.241 447.441 102.929 448.016 98.0425V97.7551Z" fill="#8A4BD3"/>
<path d="M494.281 269.358V269.646L506.35 301.552H505.775L493.706 270.221L450.887 282.868L457.497 305.864L456.635 306.151L450.313 282.293H450.6L494.281 269.358Z" fill="#8A4BD3"/>
<path d="M423.875 253.837L451.176 282.581L426.749 294.366L426.462 294.079L404.334 282.006L390.54 295.516L390.253 295.229L366.401 273.095L355.768 286.893L355.481 286.318L366.113 272.233L366.401 272.52L390.253 294.654L404.334 281.431H404.621L426.749 293.504L450.026 282.581L423.588 254.124L423.875 253.837Z" fill="#8A4BD3"/>
<path d="M341.973 223.08L342.261 224.518L349.733 266.772L366.4 272.233L366.113 272.808L349.158 267.347V267.059L341.973 225.667L336.801 244.639L336.513 244.351L310.65 239.465L289.384 243.201L268.119 253.549L256.049 261.023L255.762 260.448L267.831 252.974L289.384 242.626L310.65 238.89L336.513 243.776L341.973 223.08Z" fill="#8A4BD3"/>
<path d="M266.969 254.699L272.717 265.047L272.142 265.334L266.394 254.699H266.969Z" fill="#8A4BD3"/>
<path d="M279.038 209.283L279.325 209.57L289.67 242.914H289.096L278.75 210.145L261.508 217.044V216.469L279.038 209.283Z" fill="#8A4BD3"/>
<path d="M393.988 239.464H394.563L392.551 261.598L404.334 281.431L428.186 272.233L428.473 272.808L404.334 282.006H404.046L391.977 261.598L393.988 239.464Z" fill="#8A4BD3"/>
<path d="M520.146 230.841L520.433 231.129L489.397 244.638L455.774 242.339L431.348 229.404L431.635 229.116L455.774 241.477L489.397 244.064L520.146 230.841Z" fill="#8A4BD3"/>
<path d="M499.453 210.433H500.027L491.981 245.213H491.406L499.453 210.433Z" fill="#8A4BD3"/>
<path d="M318.122 190.599H318.697L312.375 211.295L310.938 239.177L323.008 261.885L322.433 262.172L310.363 239.177L311.8 211.295L318.122 190.599Z" fill="#8A4BD3"/>
<path d="M500.028 302.127C500.316 299.253 502.902 296.953 506.063 297.241C508.937 297.528 511.236 300.115 510.949 303.277C510.949 306.151 508.075 308.451 504.914 308.163C502.04 308.163 499.741 305.289 500.028 302.415V302.127Z" fill="#8A4BD3"/>
<path d="M484.797 271.083C485.084 265.909 489.682 262.172 494.855 262.747C500.027 263.322 503.763 267.634 503.189 272.808C502.901 277.982 498.303 281.719 493.13 281.144C487.958 280.569 484.222 276.257 484.797 271.083Z" fill="#8A4BD3"/>
<path d="M485.371 243.776C485.659 240.902 488.245 238.89 491.119 239.177C493.992 239.177 496.291 242.051 495.717 244.638C495.717 247.513 492.843 249.525 490.256 249.525C487.383 249.525 485.371 246.65 485.371 243.776Z" fill="#8A4BD3"/>
<path d="M494.282 210.72C494.569 207.271 497.443 204.684 500.892 205.259C504.34 205.259 506.639 208.421 506.352 211.87C506.352 215.319 502.903 217.619 499.742 217.619C496.294 217.331 493.995 214.169 494.282 211.008V210.72Z" fill="#8A4BD3"/>
<path d="M342.835 265.622C343.122 261.31 347.145 258.148 351.456 258.723C355.766 259.011 358.927 262.748 358.64 267.059C358.353 271.371 354.33 274.533 350.019 274.245C345.708 273.67 342.547 269.934 342.835 265.622Z" fill="#8A4BD3"/>
<path d="M336.514 225.38C336.801 222.218 339.675 219.631 343.124 219.918C346.285 220.206 348.871 223.08 348.584 226.53C348.296 229.979 345.423 232.278 341.974 231.991C338.813 231.991 336.227 228.829 336.514 225.667V225.38Z" fill="#8A4BD3"/>
<path d="M331.914 244.351C331.914 242.051 334.213 240.039 336.799 240.327C339.386 240.327 341.11 242.626 340.823 245.213C340.823 247.513 338.524 249.525 335.937 249.238C333.351 249.238 331.627 246.938 331.914 244.351Z" fill="#8A4BD3"/>
<path d="M314.386 259.873C314.673 255.849 318.122 253.262 321.858 253.549C325.594 253.549 328.467 257.286 327.892 261.023C327.605 264.759 324.157 267.634 320.421 267.346C316.685 267.059 313.811 263.61 314.386 259.873Z" fill="#8A4BD3"/>
<path d="M306.34 238.602C306.34 236.303 308.639 234.578 310.938 234.578C313.237 234.578 314.961 236.877 314.674 239.177C314.674 241.477 312.375 243.489 310.076 243.201C307.777 243.201 306.053 240.902 306.34 238.315V238.602Z" fill="#8A4BD3"/>
<path d="M305.766 212.732C306.053 208.995 309.502 206.121 313.237 206.408C316.973 206.983 319.847 210.145 319.56 213.882C319.56 217.619 315.824 220.493 312.088 220.206C308.352 219.918 305.478 216.469 306.053 212.732H305.766Z" fill="#8A4BD3"/>
<path d="M312.66 191.174C312.66 188.3 315.534 186.287 318.12 186.575C320.707 186.575 323.006 189.162 322.718 192.036C322.718 194.911 319.844 196.923 317.258 196.635C314.384 196.635 312.373 194.048 312.66 191.174Z" fill="#8A4BD3"/>
<path d="M273.864 208.996C274.152 206.121 276.738 204.109 279.324 204.396C282.198 204.396 284.21 206.983 283.922 209.858C283.922 212.732 281.336 214.744 278.462 214.457C275.876 214.457 273.577 211.583 273.864 208.996Z" fill="#8A4BD3"/>
<path d="M257.774 216.469C257.774 214.457 259.785 213.02 261.797 213.02C263.809 213.02 265.245 215.032 265.245 217.044C265.245 219.343 263.234 220.781 261.222 220.493C259.211 220.493 257.486 218.481 257.774 216.469Z" fill="#8A4BD3"/>
<path d="M282.201 242.914C282.489 238.89 285.937 236.015 289.961 236.59C293.696 236.59 296.57 240.327 296.283 244.351C295.995 248.088 292.547 250.962 288.524 250.675C284.5 250.387 281.914 246.938 282.201 242.914Z" fill="#8A4BD3"/>
<path d="M261.508 252.687C261.508 250.1 264.094 248.088 266.68 248.375C269.267 248.375 271.278 250.962 270.991 253.549C270.704 256.136 268.405 257.861 265.818 257.861C262.945 257.861 261.22 255.274 261.508 252.687Z" fill="#8A4BD3"/>
<path d="M270.129 264.76C270.129 264.76 271.566 262.46 272.715 262.748C274.152 262.748 275.014 263.897 275.014 265.334C275.014 266.772 273.865 267.634 272.428 267.634C270.991 267.634 270.129 266.197 270.129 265.047V264.76Z" fill="#8A4BD3"/>
<path d="M253.75 261.598C253.75 261.598 255.187 259.298 256.336 259.585C257.773 259.585 258.635 260.735 258.635 262.172C258.635 263.61 257.199 264.472 256.049 264.472C254.612 264.472 253.75 263.322 253.75 261.885V261.598Z" fill="#8A4BD3"/>
<path d="M423.875 230.554C424.162 226.817 427.324 224.23 431.059 224.517C434.508 224.517 437.382 227.967 437.094 231.703C436.807 235.44 433.646 238.027 429.91 237.452C426.461 237.452 423.588 234.003 424.162 230.554H423.875Z" fill="#8A4BD3"/>
<path d="M417.264 255.274C417.264 252.112 420.138 249.812 423.299 250.1C426.46 250.387 428.472 252.974 428.184 256.136C428.184 259.298 425.31 261.31 422.149 261.023C418.988 261.023 416.977 258.148 416.977 254.986L417.264 255.274Z" fill="#8A4BD3"/>
<path d="M423.586 273.095C423.873 270.508 426.172 268.496 428.471 268.784C431.058 268.784 433.069 271.371 432.782 273.67C432.782 276.257 430.483 278.269 427.897 277.982C425.31 277.982 423.586 275.395 423.586 273.095Z" fill="#8A4BD3"/>
<path d="M390.254 239.465C390.254 237.165 392.84 235.153 395.427 235.44C398.013 235.44 399.737 238.027 399.737 240.327C399.45 242.914 397.151 244.926 394.565 244.639C391.978 244.639 390.254 242.052 390.254 239.465Z" fill="#8A4BD3"/>
<path d="M351.742 286.893C351.742 284.88 353.754 283.443 355.766 283.731C358.065 283.731 359.214 285.743 359.214 287.755C359.214 289.767 357.203 291.204 355.191 291.204C353.179 291.204 351.455 289.192 351.742 287.18V286.893Z" fill="#8A4BD3"/>
<path d="M360.652 273.095C360.652 270.508 363.239 268.496 365.825 268.784C368.411 268.784 370.423 271.371 370.136 273.958C370.136 276.545 367.837 278.557 364.963 278.269C362.377 278.269 360.365 275.682 360.652 273.095Z" fill="#8A4BD3"/>
<path d="M399.734 281.719C399.734 279.132 402.321 277.407 404.907 277.694C407.494 277.694 409.505 279.994 409.218 282.868C409.218 285.455 406.631 287.18 404.332 286.892C401.746 286.892 399.734 284.306 400.022 281.719H399.734Z" fill="#8A4BD3"/>
<path d="M452.327 305.289C452.614 302.702 454.913 300.69 457.499 300.977C460.086 301.265 461.81 303.564 461.522 306.151C461.522 308.738 458.936 310.463 456.35 310.463C453.763 310.176 452.039 307.876 452.039 305.289H452.327Z" fill="#8A4BD3"/>
<path d="M419.278 294.366C419.565 290.629 423.014 287.755 426.749 288.042C430.485 288.617 433.359 291.779 433.072 295.516C432.784 299.253 429.336 302.127 425.6 301.84C421.864 301.552 418.99 298.103 419.278 294.366Z" fill="#8A4BD3"/>
<path d="M443.129 282.868C443.417 279.132 446.865 276.257 450.601 276.545C454.337 276.832 457.21 280.281 456.923 284.018C456.636 287.755 453.187 290.629 449.451 290.342C445.716 290.055 442.842 286.605 443.129 282.868Z" fill="#8A4BD3"/>
<path d="M383.066 294.366C383.354 290.629 386.802 287.755 390.538 288.042C394.274 288.33 397.148 291.492 396.86 295.516C396.573 299.253 393.125 302.127 389.389 301.84C385.653 301.84 382.779 298.103 383.354 294.366H383.066Z" fill="#8A4BD3"/>
<path d="M385.655 261.023C385.942 257.573 389.103 254.699 392.839 255.274C396.287 255.561 399.161 258.723 398.586 262.46C398.299 265.909 395.138 268.784 391.689 268.209C387.954 267.921 385.367 264.759 385.655 261.023Z" fill="#8A4BD3"/>
<path d="M448.015 241.764C448.302 237.165 452.613 233.428 457.498 234.003C462.384 234.29 465.832 238.602 465.257 243.489C464.97 248.375 460.659 251.824 455.774 251.537C450.889 250.962 447.44 246.65 447.728 242.051L448.015 241.764Z" fill="#8A4BD3"/>
<path d="M267.833 194.911L268.12 195.486L252.889 201.522L261.223 216.757L260.936 217.044L252.027 201.235L267.833 194.911Z" fill="#8A4BD3"/>
<path d="M240.531 169.041V169.328L252.6 201.235L252.025 201.522L240.243 169.903L197.425 182.551L203.747 205.834H203.172L196.562 182.263L196.85 181.976L240.531 169.041Z" fill="#8A4BD3"/>
<path d="M170.125 153.519L197.426 182.551L173.286 194.049H172.999L150.871 181.976L136.79 195.198H136.503L112.651 172.778L102.305 186.575L101.73 186.288L112.651 171.915L112.938 172.203L136.79 194.336L150.584 181.114H150.871L173.286 193.474L196.563 182.263L169.838 153.806L170.125 153.519Z" fill="#8A4BD3"/>
<path d="M88.5126 122.763L88.7999 124.2L96.2716 166.742L112.939 172.203L112.652 172.778L95.6969 167.029L88.2252 125.637L83.3399 144.321H83.0525L56.9016 139.147L35.9234 142.884L14.3704 153.232L2.58815 160.705L2.30078 160.418L14.0831 152.944L35.636 142.309L57.189 138.572L83.0525 143.746L88.5126 122.763Z" fill="#8A4BD3"/>
<path d="M13.221 154.381L18.9684 164.729L18.681 165.304L12.9336 154.669L13.221 154.381Z" fill="#8A4BD3"/>
<path d="M25.5749 109.253V109.54L35.9203 142.596L35.3456 142.884L25.2875 109.828L8.04518 117.014L7.75781 116.152L25.5749 109.253Z" fill="#8A4BD3"/>
<path d="M140.523 139.147H141.098L139.086 161.28L150.869 181.114L174.721 171.916L175.008 172.49L150.581 181.689H150.294L138.512 161.568L140.523 139.147Z" fill="#8A4BD3"/>
<path d="M266.396 130.523L266.683 131.098L235.934 144.321L202.024 142.021L177.598 129.374L177.885 128.799L202.312 141.446L235.934 143.746L266.396 130.523Z" fill="#8A4BD3"/>
<path d="M245.704 110.115L246.279 110.403L238.52 145.183L237.945 144.896L245.704 110.115Z" fill="#8A4BD3"/>
<path d="M64.6597 90.2815L65.2345 90.5689L58.6249 111.265L57.4754 138.859L69.5451 161.567L68.9703 161.855L56.9007 139.147H56.6133L58.0501 110.977L64.6597 90.2815Z" fill="#8A4BD3"/>
<path d="M258.06 216.757C258.06 215.032 259.784 213.882 261.221 214.17C262.945 214.17 264.094 215.894 264.094 217.331C264.094 219.056 262.37 220.206 260.646 219.918C258.922 219.918 257.772 218.194 258.06 216.757Z" fill="#8A4BD3"/>
<path d="M264.095 195.198C264.095 193.761 265.532 192.611 267.256 192.611C268.98 192.611 270.13 194.049 270.13 195.773C270.13 197.498 268.405 198.648 266.681 198.36C264.957 198.36 263.807 196.923 264.095 195.198Z" fill="#8A4BD3"/>
<path d="M246.277 201.81C246.565 198.935 249.151 196.636 252.025 196.923C254.898 196.923 257.197 199.797 256.91 202.672C256.623 205.546 254.036 207.846 251.163 207.558C248.001 207.558 245.99 204.684 246.277 201.81Z" fill="#8A4BD3"/>
<path d="M231.047 170.766C231.621 165.592 235.932 161.855 241.105 162.142C246.277 162.717 250.013 167.029 249.438 172.203C248.864 177.377 244.553 181.114 239.38 180.826C234.208 180.251 230.472 175.94 231.047 170.766Z" fill="#8A4BD3"/>
<path d="M256.336 130.524C256.91 125.35 261.221 121.613 266.394 122.188C271.566 122.763 275.302 127.074 274.728 132.248C274.153 137.135 269.842 141.159 264.67 140.584C259.497 140.009 255.761 135.698 256.336 130.524Z" fill="#8A4BD3"/>
<path d="M231.91 143.746C231.91 140.871 234.784 138.572 237.658 138.859C240.531 138.859 242.543 141.734 242.543 144.608C242.256 147.483 239.669 149.495 236.795 149.207C233.922 149.207 231.91 146.333 232.198 143.458L231.91 143.746Z" fill="#8A4BD3"/>
<path d="M240.532 110.403C240.819 106.953 243.98 104.654 247.142 104.941C250.59 104.941 253.176 108.391 252.602 111.552C252.314 115.002 249.153 117.301 245.992 117.014C242.544 116.726 240.245 113.564 240.532 110.403Z" fill="#8A4BD3"/>
<path d="M89.0868 165.304C89.6615 160.992 93.3973 157.831 97.4206 158.405C101.731 158.693 104.892 162.43 104.605 166.741C104.03 171.053 100.294 174.215 95.9837 173.927C91.6731 173.352 88.512 169.616 88.7994 165.304H89.0868Z" fill="#8A4BD3"/>
<path d="M83.0515 125.062C83.3389 121.9 86.2126 119.313 89.3737 119.601C92.8222 119.601 95.1212 122.763 94.8338 125.924C94.5464 129.086 91.6727 131.673 88.5116 131.386C85.0631 131.098 82.7642 128.224 83.0515 124.775V125.062Z" fill="#8A4BD3"/>
<path d="M78.4532 144.321C78.4532 141.734 80.7522 140.009 83.3386 140.009C85.6376 140.009 87.6492 142.596 87.3618 144.896C87.3618 147.483 85.0628 149.207 82.4764 148.92C80.1775 148.92 78.1659 146.62 78.4532 144.321Z" fill="#8A4BD3"/>
<path d="M60.9241 159.555C61.2115 155.819 64.6599 152.944 68.3958 153.232C72.1316 153.519 75.0053 156.968 74.718 160.993C74.4306 164.729 70.9821 167.604 67.2463 167.029C63.2231 166.742 60.6367 163.292 60.9241 159.555Z" fill="#8A4BD3"/>
<path d="M52.5898 138.284C52.5898 135.985 54.8888 134.26 57.1878 134.548C59.7742 134.548 61.4984 136.847 61.211 139.147C61.211 141.446 58.912 143.171 56.6131 143.171C54.3141 142.884 52.5898 140.871 52.8772 138.572L52.5898 138.284Z" fill="#8A4BD3"/>
<path d="M52.0145 112.415C52.3018 108.678 55.7503 105.803 59.4861 106.091C63.222 106.378 66.0957 109.828 65.521 113.564C65.2336 117.301 61.7851 120.176 58.0493 119.888C54.3134 119.601 51.4397 116.151 51.7271 112.415H52.0145Z" fill="#8A4BD3"/>
<path d="M58.9102 90.8564C59.1975 87.982 61.4965 85.9698 64.3702 86.2573C66.9566 86.2573 69.2556 88.8443 68.9682 91.7187C68.9682 94.3057 66.3818 96.6052 63.5081 96.3178C60.6344 96.0304 58.9102 93.4434 58.9102 90.8564Z" fill="#8A4BD3"/>
<path d="M20.1171 108.678C20.1171 105.803 22.9909 103.791 25.5772 104.079C28.451 104.366 30.4626 106.953 30.1752 109.54C29.8878 112.415 27.5888 114.427 24.7151 113.852C21.8414 113.852 19.8298 111.265 20.1171 108.39V108.678Z" fill="#8A4BD3"/>
<path d="M4.3125 116.151C4.3125 114.139 6.03674 112.415 8.33572 112.702C10.3473 112.702 11.7842 114.714 11.7842 116.726C11.7842 118.738 9.77258 120.176 7.76097 120.176C5.74936 120.176 4.3125 118.164 4.59987 116.151H4.3125Z" fill="#8A4BD3"/>
<path d="M28.7386 142.596C29.0259 138.859 32.4744 135.985 36.4976 136.272C40.5208 136.56 43.1072 140.009 42.8198 144.033C42.8198 147.77 39.084 150.644 35.0608 150.357C31.3249 150.07 28.4512 146.62 28.7386 142.596Z" fill="#8A4BD3"/>
<path d="M7.75781 152.369C8.04519 149.782 10.3442 147.77 13.2179 148.058C15.8042 148.058 17.8159 150.645 17.5285 153.232C17.2411 155.819 14.9421 157.831 12.3558 157.543C9.76942 157.543 7.75781 154.956 8.04518 152.369H7.75781Z" fill="#8A4BD3"/>
<path d="M16.3811 164.442C16.3811 164.442 17.5306 162.142 18.9675 162.142C20.4043 162.142 21.2665 163.58 20.9791 165.017C20.9791 166.167 19.8296 167.316 18.3927 167.029C16.9559 167.029 16.0938 165.879 16.0938 164.442H16.3811Z" fill="#8A4BD3"/>
<path d="M0 161.567C0 161.567 1.43686 159.268 2.87373 159.555C4.02322 159.555 5.17271 160.705 5.17271 161.855C5.17271 163.292 3.73584 164.154 2.58635 164.154C1.14949 164.154 0.287373 163.005 0.287373 161.567H0Z" fill="#8A4BD3"/>
<path d="M170.41 130.236C170.698 126.787 173.859 123.912 177.595 124.487C181.043 124.487 183.917 127.937 183.63 131.386C183.055 135.123 180.181 137.71 176.445 137.422C172.997 137.135 170.123 133.973 170.41 130.236Z" fill="#8A4BD3"/>
<path d="M163.803 155.244C164.09 152.082 166.677 149.782 169.838 150.07C172.999 150.357 175.298 152.944 174.723 156.106C174.723 159.268 171.849 161.28 168.688 161.28C165.527 160.993 163.516 158.406 163.516 155.244H163.803Z" fill="#8A4BD3"/>
<path d="M170.125 172.778C170.412 170.191 172.711 168.466 175.298 168.753C177.884 168.753 179.608 171.053 179.321 173.64C179.321 176.227 177.022 178.239 174.436 177.952C171.849 177.952 170.125 175.365 170.125 172.778Z" fill="#8A4BD3"/>
<path d="M136.791 139.434C136.791 137.135 139.09 135.123 141.677 135.41C144.263 135.41 145.987 137.997 145.7 140.584C145.7 143.171 143.401 145.183 140.527 144.896C137.941 144.608 136.217 142.309 136.504 139.722L136.791 139.434Z" fill="#8A4BD3"/>
<path d="M98.2815 186.862C98.2815 184.85 100.293 183.126 102.305 183.413C104.316 183.413 106.041 185.425 105.753 187.437C105.753 189.737 103.742 191.174 101.73 190.887C99.7183 190.887 98.2815 189.162 98.2815 187.15V186.862Z" fill="#8A4BD3"/>
<path d="M106.902 173.065C106.902 170.478 109.489 168.466 112.075 168.753C114.661 168.753 116.673 171.34 116.386 173.927C116.386 176.514 113.799 178.527 111.213 178.239C108.627 178.239 106.615 175.652 106.902 173.065Z" fill="#8A4BD3"/>
<path d="M145.984 181.688C146.272 179.101 148.571 177.089 151.157 177.377C153.743 177.377 155.468 179.964 155.18 182.551C155.18 184.85 152.881 187.15 150.295 186.862C147.709 186.862 145.697 184.563 145.984 181.976V181.688Z" fill="#8A4BD3"/>
<path d="M198.863 205.259C198.863 202.672 201.162 200.947 204.036 200.947C206.622 200.947 208.347 203.534 208.059 206.121C208.059 208.708 205.473 210.433 203.174 210.145C200.588 210.145 198.576 207.558 198.863 205.259Z" fill="#8A4BD3"/>
<path d="M165.813 194.336C166.1 190.599 169.549 187.725 173.284 188.012C177.02 188.3 179.894 191.749 179.607 195.486C179.319 199.223 175.871 202.097 172.135 201.81C168.399 201.522 165.525 198.073 165.813 194.336Z" fill="#8A4BD3"/>
<path d="M189.664 182.551C189.664 178.814 193.113 175.939 197.136 176.514C200.872 176.514 203.745 180.251 203.458 183.988C203.171 187.725 199.722 190.312 195.986 190.024C192.25 190.024 189.377 186.287 189.951 182.551H189.664Z" fill="#8A4BD3"/>
<path d="M129.605 194.049C130.18 190.312 133.341 187.437 137.077 187.725C140.813 188.3 143.687 191.462 143.399 195.198C143.112 199.223 139.664 201.81 135.928 201.522C132.192 201.235 129.605 197.785 129.605 194.049Z" fill="#8A4BD3"/>
<path d="M131.905 160.992C132.192 157.256 135.353 154.956 139.089 155.244C142.825 155.531 145.411 158.693 145.124 162.43C145.124 166.166 141.675 168.753 137.939 168.466C134.204 168.179 131.617 165.017 131.905 161.28V160.992Z" fill="#8A4BD3"/>
<path d="M194.263 141.734C194.55 136.847 199.148 133.398 203.746 133.685C208.631 134.26 212.08 138.572 211.793 143.171C211.505 148.058 207.195 151.507 202.309 151.219C197.424 150.645 193.975 146.62 194.263 141.734Z" fill="#8A4BD3"/>
<path d="M545.434 182.838L545.722 183.988L553.194 226.529L569.861 231.991L569.574 232.566L552.906 227.104L552.619 226.817L545.434 185.712L540.262 204.396H539.974L514.111 199.222L492.845 202.959L471.292 213.307L459.51 220.78L459.223 220.206L471.005 212.732L492.845 202.384L514.111 198.647L539.974 203.534L545.434 182.838Z" fill="#8A4BD3"/>
<path d="M470.43 214.169L476.178 224.805L475.603 225.092L469.855 214.457L470.43 214.169Z" fill="#8A4BD3"/>
<path d="M482.497 169.041L482.784 169.616L493.13 202.384L492.555 202.672L482.209 169.903L464.967 176.802L464.68 176.227L482.497 169.041Z" fill="#8A4BD3"/>
<path d="M477.036 168.753C477.036 165.879 479.91 163.867 482.496 164.154C485.37 164.154 487.382 166.741 487.094 169.616C487.094 172.49 484.508 174.502 481.634 174.215C479.048 173.927 476.749 171.628 477.036 168.753Z" fill="#8A4BD3"/>
<path d="M461.234 176.227C461.234 174.215 463.246 172.777 465.258 172.777C467.269 172.777 468.706 174.789 468.706 176.802C468.706 178.814 466.694 180.251 464.683 180.251C462.384 180.251 461.234 178.239 461.234 176.227Z" fill="#8A4BD3"/>
<path d="M485.658 202.671C485.946 198.647 489.394 195.773 493.418 196.348C497.153 196.348 500.027 200.084 499.74 204.109C499.74 207.845 496.004 210.72 491.981 210.432C487.957 210.145 485.371 206.696 485.658 202.671Z" fill="#8A4BD3"/>
<path d="M464.969 212.445C464.969 209.858 467.555 207.845 470.142 208.133C472.728 208.133 474.739 210.72 474.452 213.307C474.452 215.894 471.866 217.906 469.279 217.618C466.693 217.618 464.681 215.031 464.969 212.445Z" fill="#8A4BD3"/>
<path d="M473.302 224.517C473.302 224.517 474.739 222.218 475.889 222.218C477.326 222.218 478.188 223.655 477.9 224.805C477.9 226.242 476.751 227.104 475.314 227.104C474.165 227.104 473.015 225.955 473.302 224.517Z" fill="#8A4BD3"/>
<path d="M457.209 221.355C457.209 221.355 458.359 219.056 459.796 219.056C461.232 219.056 462.095 220.206 461.807 221.643C461.807 223.08 460.658 223.942 459.221 223.942C457.784 223.942 456.922 222.505 456.922 221.355H457.209Z" fill="#8A4BD3"/>
</g>
<path d="M469.279 118.451L468.992 119.026L482.499 127.936L471.291 141.159L471.578 141.734L483.648 127.649L469.279 118.451Z" fill="#7A23A5"/>
<path d="M501.464 98.9045L501.177 99.192L482.785 127.649L483.36 127.936L501.464 99.4794L540.834 120.75L529.914 142.021L530.489 142.308L541.697 120.463H541.409L501.464 98.9045Z" fill="#7A23A5"/>
<path d="M483.647 55.7881L483.359 56.0755L510.947 75.6217L544.282 80.2208H544.57L571.008 72.7472L570.721 72.1723L544.282 79.6459L510.947 74.7593L483.647 55.7881Z" fill="#7A23A5"/>
<path d="M474.453 141.734C474.453 140.296 473.303 138.572 471.866 138.572C470.142 138.572 468.705 139.434 468.418 141.159C468.418 142.883 469.28 144.321 471.004 144.608C472.441 144.608 474.165 143.458 474.165 142.021L474.453 141.734Z" fill="#7A23A5"/>
<path d="M473.015 119.6C473.015 118.163 471.866 116.438 470.142 116.438C468.705 116.438 467.268 117.588 466.98 119.025C466.98 120.463 467.843 122.187 469.567 122.187C471.291 122.187 472.728 121.038 473.015 119.6Z" fill="#7A23A5"/>
<path d="M488.82 129.661C489.108 126.499 487.096 123.912 484.222 123.625C481.349 123.625 478.475 125.349 478.188 128.511C478.188 131.385 479.912 134.26 483.073 134.547C485.947 134.835 488.82 132.823 489.108 129.948L488.82 129.661Z" fill="#7A23A5"/>
<path d="M510.085 102.354C510.66 97.1797 506.924 92.5806 501.752 92.0057C496.866 91.4308 491.981 95.1676 491.406 100.054C490.831 105.228 494.28 109.827 499.453 110.402C504.625 110.977 509.223 107.24 509.798 102.066L510.085 102.354Z" fill="#7A23A5"/>
<path d="M493.708 57.8C494.283 52.626 490.547 48.0269 485.662 47.452C480.489 46.8771 475.891 50.6139 475.316 55.5004C474.741 60.6744 478.477 65.2735 483.65 65.8484C488.823 66.4233 493.133 62.6865 493.995 57.8H493.708Z" fill="#7A23A5"/>
<path d="M512.958 41.4159C513.246 37.9665 510.947 35.0921 507.786 34.5172C504.337 33.9423 501.176 36.5293 500.889 39.9786C500.314 43.428 502.9 46.3024 506.349 46.8773C509.797 47.1647 512.671 44.8652 512.958 41.4159Z" fill="#7A23A5"/>
<path d="M9.76995 83.9575L9.1952 84.5324L22.9891 93.4431L11.4942 106.666L11.7816 107.24L24.1386 93.1557L9.76995 83.9575Z" fill="#7A23A5"/>
<path d="M41.6692 64.124L41.3818 64.6989L23.2773 93.1558L23.8521 93.4432L41.9566 64.9864L81.0392 86.2572L70.4065 107.528L70.6938 107.815L81.9014 85.9697H81.614L41.6692 64.124Z" fill="#7A23A5"/>
<path d="M113.8 63.2617L81.0391 86.2572L102.592 102.354H102.879L127.019 95.1679L137.939 110.977H138.226L166.101 94.0181L173.286 109.54L173.86 109.253L166.389 93.1558L166.101 93.4433L138.226 110.115L127.306 94.3056H127.019L102.592 101.779L82.1886 86.2572L114.087 63.8366L113.8 63.2617Z" fill="#7A23A5"/>
<path d="M200.012 50.0393L199.724 51.1891L183.344 91.4311L166.102 93.4432V94.0181L183.919 91.7186L199.724 52.9137L200.586 72.1724L200.874 71.885L227.312 72.4599L247.428 80.5083L266.395 94.8805L276.453 104.654L276.74 104.079L266.682 94.593L247.715 79.9334L227.599 71.885H227.312L201.161 71.5976L200.012 50.0393Z" fill="#7A23A5"/>
<path d="M267.257 96.0303L259.211 105.228L259.786 105.803L267.545 96.3177L267.257 96.0303Z" fill="#7A23A5"/>
<path d="M264.381 49.4644V49.7518L247.426 79.9333L247.713 80.2208L264.668 50.3267L279.899 60.6746L280.186 60.0998L264.381 49.4644Z" fill="#7A23A5"/>
<path d="M145.697 55.2134H145.122L142.536 77.3465L127.018 94.3057L105.752 80.5084L105.465 80.7958L127.018 95.168L127.305 94.8805L143.111 77.634L145.697 55.2134Z" fill="#7A23A5"/>
<path d="M24.1389 21.0076L23.8516 21.5825L51.152 40.8412L84.7746 45.4402H85.0619L111.213 38.2542V37.6793L84.7746 44.8654L51.4393 40.2663L24.1389 21.0076Z" fill="#7A23A5"/>
<path d="M48.5669 5.4856H47.9922L48.5669 41.1286H49.1417L48.5669 5.4856Z" fill="#7A23A5"/>
<path d="M229.899 23.0195H229.324L231.335 44.5778L227.312 72.1723L210.645 91.7185L211.219 92.2934L227.887 72.4598V72.1723L231.91 44.5778L229.899 23.0195Z" fill="#7A23A5"/>
<path d="M14.6559 107.24C14.9433 105.803 13.5064 104.079 12.0696 104.079C10.3453 104.079 8.90847 105.228 8.62109 106.666C8.62109 108.39 9.48321 109.827 11.2074 110.115C12.9317 110.115 14.3685 108.965 14.6559 107.24Z" fill="#7A23A5"/>
<path d="M13.2184 85.1074C13.2184 83.6702 12.3563 81.9456 10.6321 81.9456C8.90783 81.9456 7.47097 82.8079 7.18359 84.5326C7.18359 86.2572 8.33308 87.6944 9.76995 87.9819C11.4942 87.9819 12.931 87.1195 12.931 85.3949L13.2184 85.1074Z" fill="#7A23A5"/>
<path d="M29.3107 95.1679C29.598 92.2935 27.2991 89.419 24.4253 89.1316C21.5516 89.1316 18.6779 91.1437 18.3905 94.0181C18.1031 96.8926 20.1147 99.4796 23.2758 100.054C26.1496 100.054 28.7359 98.3298 29.3107 95.1679Z" fill="#7A23A5"/>
<path d="M50.5753 67.5733C51.15 62.3993 47.7016 58.0877 42.2415 57.5128C37.3562 56.9379 32.4708 60.6747 32.1834 65.5612C31.6087 70.7352 35.3445 75.3343 40.2299 75.9092C45.4026 76.4841 50.0006 72.7473 50.5753 67.5733Z" fill="#7A23A5"/>
<path d="M34.1947 23.3071C34.7694 18.1331 31.0336 13.534 25.8609 12.9591C20.6882 12.3842 16.0902 16.121 15.5155 21.0075C14.9407 26.1815 18.6766 30.7806 23.5619 31.3555C28.7346 31.9304 33.3326 28.1936 33.9073 23.0196L34.1947 23.3071Z" fill="#7A23A5"/>
<path d="M55.4626 41.1287C55.7499 38.2543 53.7383 35.6673 50.8646 35.3799C47.9909 35.3799 45.4045 37.1045 45.1171 39.979C44.8298 42.8534 46.8414 45.4404 49.7151 45.7278C52.5888 46.0153 55.1752 44.0032 55.4626 41.1287Z" fill="#7A23A5"/>
<path d="M53.4515 6.92284C54.0263 3.47352 51.4399 0.599092 47.9915 0.0242059C44.543 -0.263237 41.6693 2.03631 41.0945 5.48563C40.8071 8.93495 43.1061 11.8094 46.5546 12.3843C49.7157 12.9592 52.8768 10.3722 53.1642 6.92284H53.4515Z" fill="#7A23A5"/>
<path d="M190.527 91.4311C191.102 87.1194 187.941 83.3827 183.63 82.8078C179.32 82.2329 175.584 85.3948 175.009 89.7064C174.434 94.0181 177.595 98.0423 181.906 98.3297C186.216 98.9046 190.24 95.7427 190.527 91.4311Z" fill="#7A23A5"/>
<path d="M204.896 53.2014C205.471 50.0395 202.885 46.8776 199.724 46.5902C196.563 46.3027 193.401 48.6023 193.114 51.7642C192.827 54.926 195.126 58.0879 198.287 58.3753C201.448 58.6628 204.609 56.6507 204.896 53.2014Z" fill="#7A23A5"/>
<path d="M205.469 72.7475C205.757 70.4479 204.033 68.1484 201.446 67.8609C198.86 67.5735 196.561 69.2982 196.273 71.5977C196.273 73.8972 197.71 76.1968 200.297 76.4842C202.883 76.4842 204.895 75.047 205.182 72.46L205.469 72.7475Z" fill="#7A23A5"/>
<path d="M219.839 91.7187C220.126 87.9819 217.54 84.5326 213.804 83.9577C210.068 83.3828 206.62 86.2573 206.045 89.994C205.758 93.7308 208.344 97.1801 212.08 97.755C215.816 98.3299 219.264 95.4554 219.839 91.7187Z" fill="#7A23A5"/>
<path d="M231.91 72.46C231.91 70.1605 230.473 67.8609 228.174 67.8609C225.875 67.5735 223.864 69.2982 223.289 71.5977C223.289 73.8972 224.726 75.9093 227.025 76.1968C229.324 76.1968 231.623 74.7596 231.91 72.46Z" fill="#7A23A5"/>
<path d="M237.943 47.165C238.518 43.4282 235.644 39.9789 231.908 39.404C228.173 38.8291 224.724 41.7035 224.437 45.4403C223.862 49.1771 226.736 52.6264 230.472 53.2013C234.207 53.7762 237.656 50.9017 238.231 47.165H237.943Z" fill="#7A23A5"/>
<path d="M235.357 24.7444C235.644 21.8699 233.632 19.5704 231.046 19.283C228.172 19.283 225.873 21.0076 225.586 23.5946C225.299 26.1816 227.31 28.7686 229.897 29.056C232.483 29.056 235.069 27.3314 235.357 24.7444Z" fill="#7A23A5"/>
<path d="M269.556 50.0394C269.843 47.1649 267.832 44.8654 265.245 44.2905C262.372 44.003 260.073 46.0152 259.785 48.8896C259.498 51.764 261.509 54.0636 264.096 54.351C266.682 54.351 269.268 52.6263 269.556 50.0394Z" fill="#7A23A5"/>
<path d="M283.922 60.6747C283.922 58.6626 282.773 56.6505 280.474 56.363C278.462 56.363 276.738 57.5128 276.451 59.8124C276.163 61.8245 277.6 63.8366 279.612 63.8366C281.623 63.8366 283.635 62.6868 283.635 60.6747H283.922Z" fill="#7A23A5"/>
<path d="M254.611 81.3706C255.186 77.6338 252.312 74.1845 248.576 73.6096C244.553 73.0347 241.104 75.9092 240.53 79.9334C240.242 83.6701 242.829 87.1195 246.564 87.6943C250.588 88.2692 254.036 85.3948 254.611 81.3706Z" fill="#7A23A5"/>
<path d="M272.716 95.4554C273.003 92.8684 271.279 90.5689 268.405 89.994C265.819 89.7066 263.52 91.4312 262.945 94.3057C262.945 96.8926 264.67 99.4796 267.256 99.7671C269.842 100.055 272.141 98.0424 272.429 95.4554H272.716Z" fill="#7A23A5"/>
<path d="M262.085 105.516C262.085 105.516 261.222 102.929 259.786 102.929C258.349 102.929 257.199 103.791 257.199 104.941C257.199 106.378 257.774 107.528 259.211 107.528C260.36 107.528 261.797 106.666 262.085 105.229V105.516Z" fill="#7A23A5"/>
<path d="M278.753 105.803C278.753 105.803 277.89 103.216 276.741 103.216C275.304 103.216 274.155 104.079 273.867 105.228C273.867 106.666 274.729 107.815 276.166 108.103C277.316 108.103 278.753 107.241 278.753 105.803Z" fill="#7A23A5"/>
<path d="M118.398 40.5536C118.973 37.1043 116.387 33.655 112.651 33.3675C109.203 33.0801 105.754 35.6671 105.467 39.1164C104.892 42.5657 107.478 46.015 111.214 46.3025C114.95 46.8774 118.111 44.0029 118.398 40.5536Z" fill="#7A23A5"/>
<path d="M119.834 66.1361C120.121 63.2617 118.11 60.3873 114.949 59.8124C111.788 59.525 109.201 61.8245 108.914 64.6989C108.627 67.8608 110.638 70.4478 113.799 71.0227C116.96 71.3101 119.547 69.0106 119.834 66.1361Z" fill="#7A23A5"/>
<path d="M110.063 82.2331C110.063 79.6461 108.626 77.3465 106.04 77.0591C103.453 77.0591 101.154 78.4963 100.867 81.0833C100.867 83.6703 102.304 85.9698 104.89 86.2573C107.189 86.2573 109.776 84.82 110.063 82.2331Z" fill="#7A23A5"/>
<path d="M149.434 56.3629C149.434 53.776 147.71 51.4764 145.411 51.189C142.825 51.189 140.526 52.6262 140.238 55.2132C140.238 57.8002 141.675 60.0997 144.261 60.3871C146.56 60.3871 149.147 58.6625 149.434 56.0755V56.3629Z" fill="#7A23A5"/>
<path d="M177.309 110.69C177.597 108.678 176.16 106.666 174.148 106.378C172.137 106.378 170.125 107.528 170.125 109.827C170.125 111.84 171.274 113.564 173.573 113.852C175.585 113.852 177.309 112.702 177.597 110.69H177.309Z" fill="#7A23A5"/>
<path d="M171.56 95.168C171.847 92.581 169.835 89.994 167.249 89.7065C164.663 89.7065 162.364 91.4312 161.789 94.0182C161.502 96.6052 163.226 98.9047 166.1 99.1922C168.686 99.4796 171.272 97.755 171.56 94.8805V95.168Z" fill="#7A23A5"/>
<path d="M131.616 95.7428C132.19 93.1558 130.179 90.8563 127.88 90.5688C125.006 90.2814 122.994 92.006 122.707 94.593C122.42 97.18 124.144 99.4796 126.73 99.767C129.317 99.767 131.616 98.3298 131.616 95.7428Z" fill="#7A23A5"/>
<path d="M75.0045 108.103C75.0045 105.516 73.5677 103.216 70.9813 102.929C68.3949 102.641 66.096 104.366 65.8086 106.953C65.8086 109.54 67.5328 111.84 69.8318 112.127C72.4182 112.415 74.7171 110.69 75.0045 108.103Z" fill="#7A23A5"/>
<path d="M109.489 104.366C109.777 100.629 107.19 97.1801 103.454 96.6052C99.7186 96.0303 96.2701 98.9047 95.9827 102.641C95.6953 106.378 98.2817 109.828 102.018 110.115C105.753 110.69 109.202 107.815 109.489 104.079V104.366Z" fill="#7A23A5"/>
<path d="M88.7972 87.9819C89.3719 84.2451 86.4982 80.7958 82.7624 80.5084C79.0265 80.2209 75.578 82.8079 75.2907 86.5447C74.7159 90.2814 77.3023 93.7307 81.3255 94.3056C85.0613 94.8805 88.5098 92.0061 88.7972 88.2693V87.9819Z" fill="#7A23A5"/>
<path d="M145.121 111.552C145.409 107.816 142.822 104.366 139.086 103.791C135.351 103.504 131.902 106.091 131.327 109.828C130.753 113.564 133.626 117.014 137.362 117.589C141.098 117.876 144.546 115.289 145.121 111.552Z" fill="#7A23A5"/>
<path d="M149.432 78.4962C149.72 75.0469 147.421 71.5976 143.685 71.3101C139.949 71.0227 136.788 73.6097 136.501 77.059C136.213 80.5083 138.512 83.6702 142.248 84.2451C145.697 84.82 149.145 82.233 149.432 78.4962Z" fill="#7A23A5"/>
<path d="M92.5323 46.8776C93.107 41.9911 89.6586 37.6795 84.7732 37.1046C79.8879 36.5297 75.5773 39.979 75.2899 44.8655C74.7152 49.7521 77.8763 54.0637 82.7616 54.6386C87.6469 55.2135 91.9575 51.7642 92.5323 46.8776Z" fill="#7A23A5"/>
<path d="M231.623 134.26L231.336 134.548L244.843 143.458L233.348 156.968L233.922 157.256L245.705 143.458L231.623 134.26Z" fill="#7A23A5"/>
<path d="M263.521 114.427L263.234 114.714L245.129 143.458H245.416L263.521 115.289L302.891 136.56L291.971 157.83L292.546 158.118L303.753 136.272L303.466 135.985L263.521 114.427Z" fill="#7A23A5"/>
<path d="M335.364 113.564L302.891 136.272L324.444 152.656L348.87 145.183L359.503 161.28L360.078 160.992L387.953 144.321L395.137 159.843L395.712 159.555L387.953 143.458L387.666 143.746L359.791 160.417L348.87 144.608L324.444 151.794L303.753 136.272L335.651 114.139L335.364 113.564Z" fill="#7A23A5"/>
<path d="M421.863 100.054L421.576 101.491L405.196 141.446L387.953 143.458V144.033L405.483 142.021L405.77 141.733L421.288 102.929L422.438 122.187H422.725L449.164 122.762L468.992 130.523L487.959 145.183L498.017 154.956L498.592 154.381L488.534 144.608L469.28 129.948L449.164 121.9V122.187L423.013 121.612L421.863 100.054Z" fill="#7A23A5"/>
<path d="M488.822 146.333L481.063 155.531L481.637 155.818L489.396 146.62L488.822 146.333Z" fill="#7A23A5"/>
<path d="M486.235 99.7671L485.947 100.055L468.992 130.236L469.567 130.524L486.235 100.629L501.753 110.69L502.04 110.115L486.235 99.7671Z" fill="#7A23A5"/>
<path d="M367.547 105.516H366.972L364.386 127.649L348.868 144.608L327.315 130.523L327.027 131.098L348.868 145.47L349.155 145.183L364.961 127.936L367.547 105.516Z" fill="#7A23A5"/>
<path d="M245.989 71.3101L245.414 71.8849L273.002 91.1436L306.625 95.7427L333.063 88.2692L332.775 87.6943L306.625 95.1678L273.289 90.5688L245.989 71.3101Z" fill="#7A23A5"/>
<path d="M270.417 55.7881H269.555L270.417 91.431H270.992L270.417 55.7881Z" fill="#7A23A5"/>
<path d="M451.75 73.3223H451.175L453.187 94.8805L448.876 122.188L432.496 142.021L433.071 142.309L449.451 122.475L453.762 94.8805L451.75 73.3223Z" fill="#7A23A5"/>
<path d="M236.508 157.543C236.508 155.818 235.358 154.381 233.921 154.094C232.197 154.094 230.76 155.244 230.473 156.681C230.473 158.405 231.622 159.843 233.059 159.843C234.783 159.843 236.22 158.98 236.508 157.256V157.543Z" fill="#7A23A5"/>
<path d="M235.07 135.41C235.07 133.685 233.921 132.248 232.196 132.248C230.76 132.248 229.035 133.398 229.035 134.835C229.035 136.272 230.185 137.997 231.622 137.997C233.346 137.997 234.783 137.135 235.07 135.41Z" fill="#7A23A5"/>
<path d="M251.162 145.183C251.45 142.021 249.438 139.434 246.277 139.147C243.403 138.859 240.817 140.871 240.242 144.033C239.955 147.195 241.967 149.782 244.84 150.069C247.714 150.357 250.588 148.345 250.875 145.183H251.162Z" fill="#7A23A5"/>
<path d="M272.429 117.876C273.004 112.702 269.268 108.103 264.095 107.528C258.923 106.953 254.325 110.402 253.75 115.576C253.175 120.463 256.911 125.349 261.796 125.924C266.969 126.499 271.567 122.762 272.142 117.876H272.429Z" fill="#7A23A5"/>
<path d="M256.046 73.3223C256.621 68.4358 252.885 63.5493 247.713 62.9744C242.54 62.3995 238.229 66.1363 237.367 71.3102C236.792 76.4842 240.528 81.0833 245.414 81.6582C250.299 82.2331 255.184 78.7838 255.759 73.3223H256.046Z" fill="#7A23A5"/>
<path d="M277.025 91.431C277.313 88.5565 275.301 85.9695 272.427 85.6821C269.553 85.3947 266.967 87.4068 266.68 90.2812C266.392 93.1556 268.404 95.7426 271.278 96.03C274.151 96.3175 276.738 94.3054 277.025 91.431Z" fill="#7A23A5"/>
<path d="M275.303 56.9379C275.591 53.4886 273.292 50.6141 269.843 50.3267C266.395 50.0393 263.521 52.3388 262.946 55.7881C262.659 59.2374 264.958 62.1119 268.406 62.6868C271.855 62.9742 274.728 60.6747 275.016 57.2253L275.303 56.9379Z" fill="#7A23A5"/>
<path d="M412.379 141.734C412.954 137.422 409.792 133.398 405.482 133.111C401.171 132.536 397.435 135.698 396.861 140.009C396.286 144.321 399.447 148.345 403.758 148.92C408.068 149.495 411.804 146.333 412.379 142.021V141.734Z" fill="#7A23A5"/>
<path d="M426.746 103.504C427.321 100.342 424.734 97.1799 421.573 96.8924C418.412 96.605 415.538 98.9045 415.251 102.066C414.964 105.228 417.263 108.103 420.424 108.678C423.585 108.965 426.746 106.665 427.033 103.216L426.746 103.504Z" fill="#7A23A5"/>
<path d="M427.323 123.05C427.61 120.463 425.886 118.451 423.299 118.163C420.713 117.876 418.702 119.601 418.414 122.188C418.127 124.775 419.851 126.787 422.437 127.074C424.736 127.074 427.035 125.637 427.323 123.05Z" fill="#7A23A5"/>
<path d="M441.406 141.734C441.693 137.997 439.107 134.548 435.371 133.973C431.635 133.398 428.186 136.272 427.612 140.009C427.324 143.746 429.911 147.195 433.647 147.483C437.382 148.058 440.831 145.183 441.118 141.446L441.406 141.734Z" fill="#7A23A5"/>
<path d="M453.762 122.763C453.762 120.463 452.325 118.163 450.026 117.876C447.727 117.876 445.428 119.313 445.141 121.613C445.141 124.2 446.578 126.212 448.877 126.499C451.176 126.787 453.475 125.062 453.762 122.763Z" fill="#7A23A5"/>
<path d="M459.507 97.4672C460.082 93.7305 457.208 90.2811 453.472 89.7062C449.449 89.1314 446.288 92.0058 445.713 95.7426C445.426 99.4793 448.012 102.929 451.748 103.216C455.771 103.791 458.932 100.917 459.507 97.1798V97.4672Z" fill="#7A23A5"/>
<path d="M457.211 75.0469C457.498 72.1725 455.486 69.8729 452.9 69.5855C450.026 69.298 447.44 71.3101 447.152 73.8971C446.865 76.7716 448.877 79.3586 451.463 79.3586C454.049 79.646 456.636 77.6339 456.923 75.0469H457.211Z" fill="#7A23A5"/>
<path d="M491.406 100.342C491.693 97.4674 489.682 95.1679 486.808 94.8804C483.934 94.593 481.635 96.6051 481.348 99.1921C481.06 102.066 483.072 104.366 485.658 104.653C488.532 104.941 491.118 103.216 491.406 100.342Z" fill="#7A23A5"/>
<path d="M505.487 110.977C505.487 108.965 504.337 106.953 502.326 106.953C500.314 106.953 498.59 108.103 498.302 110.402C498.015 112.415 499.452 114.139 501.463 114.427C503.475 114.427 505.199 113.277 505.487 110.977Z" fill="#7A23A5"/>
<path d="M476.174 131.673C476.462 127.936 473.875 124.2 469.852 123.912C465.829 123.625 462.38 126.212 462.093 129.948C461.518 133.973 464.392 137.422 468.415 137.997C472.438 138.572 475.887 135.697 476.174 131.673Z" fill="#7A23A5"/>
<path d="M494.569 145.47C494.857 142.883 492.845 140.296 490.259 140.009C487.672 140.009 485.373 141.734 485.086 144.321C484.799 146.908 486.523 149.495 489.397 149.782C491.983 150.07 494.569 148.345 494.857 145.47H494.569Z" fill="#7A23A5"/>
<path d="M483.649 155.531C483.649 155.531 482.787 153.231 481.637 152.944C480.2 152.944 479.051 153.806 479.051 155.243C479.051 156.681 479.913 157.543 481.063 157.83C482.499 157.83 483.649 156.968 483.649 155.531Z" fill="#7A23A5"/>
<path d="M500.317 156.106C500.317 156.106 499.455 153.519 498.305 153.519C496.868 153.519 495.719 154.381 495.719 155.531C495.719 156.968 496.581 158.118 497.73 158.118C498.88 158.118 500.317 157.543 500.317 156.106Z" fill="#7A23A5"/>
<path d="M340.25 90.5687C340.825 87.1194 338.239 83.6701 334.503 83.3827C331.054 83.0952 327.606 85.6822 327.318 89.1315C326.744 92.5808 329.33 96.0302 333.066 96.3176C336.514 96.605 339.963 94.0181 340.25 90.5687Z" fill="#7A23A5"/>
<path d="M341.397 116.439C341.684 113.277 339.672 110.69 336.511 110.115C333.35 109.827 330.764 112.127 330.477 115.001C330.189 117.876 332.201 120.75 335.362 121.038C338.236 121.613 341.109 119.313 341.397 116.151V116.439Z" fill="#7A23A5"/>
<path d="M331.626 132.535C331.626 129.948 330.189 127.649 327.602 127.361C325.016 127.074 322.717 129.086 322.43 131.386C322.43 133.973 323.867 136.272 326.453 136.56C329.039 136.847 331.338 135.122 331.626 132.535Z" fill="#7A23A5"/>
<path d="M371.286 106.666C371.573 104.079 369.849 101.779 367.263 101.492C364.676 101.204 362.377 102.929 362.09 105.516C361.803 108.103 363.527 110.402 366.113 110.69C368.699 110.69 370.998 108.965 371.286 106.378V106.666Z" fill="#7A23A5"/>
<path d="M399.161 160.705C399.161 158.693 398.011 156.968 396 156.681C393.988 156.681 392.264 157.83 391.977 160.13C391.977 162.142 393.126 163.867 395.138 164.154C397.149 164.154 399.161 163.004 399.161 160.992V160.705Z" fill="#7A23A5"/>
<path d="M393.411 145.471C393.699 142.884 391.687 140.297 389.101 140.009C386.514 139.722 384.215 141.446 383.641 144.321C383.641 146.908 385.365 149.495 387.951 149.782C390.538 149.782 393.124 148.058 393.411 145.471Z" fill="#7A23A5"/>
<path d="M353.469 146.045C353.469 143.458 352.033 141.159 349.446 140.871C346.86 140.871 344.561 142.596 344.274 144.896C343.986 147.483 345.71 149.782 348.297 150.07C350.883 150.07 353.182 148.632 353.469 146.045Z" fill="#7A23A5"/>
<path d="M296.853 158.118C296.853 155.531 295.129 153.231 292.83 152.944C290.244 152.944 287.945 154.381 287.657 156.968C287.083 159.555 289.094 161.855 291.681 162.142C294.267 162.429 296.566 160.705 296.853 158.118Z" fill="#7A23A5"/>
<path d="M331.341 154.381C331.916 150.644 329.33 147.195 325.306 146.908C321.57 146.62 318.122 149.207 317.547 152.944C317.26 156.681 320.134 160.13 323.869 160.417C327.605 160.992 331.054 158.405 331.341 154.381Z" fill="#7A23A5"/>
<path d="M310.65 138.284C310.938 134.548 308.351 130.811 304.616 130.523C300.88 129.948 297.431 132.823 297.144 136.56C296.569 140.584 299.443 143.746 303.179 144.321C306.915 144.896 310.363 142.021 310.938 138.284H310.65Z" fill="#7A23A5"/>
<path d="M366.974 161.567C367.548 157.831 364.675 154.381 360.939 153.806C357.203 153.231 353.755 156.106 353.467 159.843C353.18 163.579 355.766 167.029 359.502 167.604C363.238 167.891 366.686 165.304 366.974 161.567Z" fill="#7A23A5"/>
<path d="M371.286 128.511C371.86 125.062 369.274 121.9 365.538 121.325C362.09 120.75 358.641 123.337 358.354 127.074C358.067 130.523 360.653 133.973 364.101 134.26C367.837 134.547 370.998 132.248 371.286 128.511Z" fill="#7A23A5"/>
<path d="M314.383 96.8925C314.958 92.2934 311.51 87.6943 306.912 87.1195C302.026 86.5446 297.716 89.9939 297.141 94.8804C296.566 99.767 300.015 104.079 304.613 104.653C309.498 105.228 313.809 101.779 314.383 96.8925Z" fill="#7A23A5"/>
<path d="M202.311 275.107L202.023 275.682L215.53 284.306L204.035 297.815L204.61 298.39L216.392 284.306L202.311 275.107Z" fill="#7A23A5"/>
<path d="M234.208 255.562H233.921L215.816 284.306L216.391 284.593L234.496 256.136L273.866 277.407L262.946 298.678L263.52 298.965L274.728 277.12H274.44L234.208 255.562Z" fill="#7A23A5"/>
<path d="M306.336 254.412L273.863 277.407L295.129 293.504H295.416L319.556 286.03L330.476 302.127H330.763L358.638 285.168L366.11 300.69L366.397 300.403L358.926 284.306H358.638L330.763 301.265L319.556 285.455L295.129 292.929L274.725 277.407L306.624 254.986L306.336 254.412Z" fill="#7A23A5"/>
<path d="M392.551 241.189L391.976 242.339L375.883 282.294L358.641 284.593V285.168L376.458 282.868L392.263 243.776L393.125 263.322L393.413 263.035L419.851 263.61L439.967 271.658L458.934 286.03L468.992 295.803L469.279 295.516L459.221 285.743L440.254 271.083L420.138 263.035L393.7 262.747L392.551 241.189Z" fill="#7A23A5"/>
<path d="M459.507 287.18L452.035 296.378L452.323 296.953L460.082 287.468L459.507 287.18Z" fill="#7A23A5"/>
<path d="M456.92 240.614L456.632 240.902L439.965 271.083L440.252 271.371L456.92 241.477L472.438 251.825L473.013 251.25L456.92 240.614Z" fill="#7A23A5"/>
<path d="M338.236 246.363H337.662L335.363 268.496L319.557 285.456L298.291 271.658L298.004 272.233L319.557 286.318L319.844 286.03L335.65 268.784L338.236 246.363Z" fill="#7A23A5"/>
<path d="M216.391 212.445V212.732L243.691 231.991L277.314 236.59L303.752 229.117V228.542L277.314 236.015L243.978 231.704L216.391 212.445Z" fill="#7A23A5"/>
<path d="M241.106 196.635H240.531L241.106 232.278H241.681L241.106 196.635Z" fill="#7A23A5"/>
<path d="M422.725 214.169H422.15L423.874 235.728L419.851 263.322L403.184 282.868L403.758 283.443L420.426 263.61V263.322L424.737 235.728L422.725 214.169Z" fill="#7A23A5"/>
<path d="M207.193 298.39C207.193 296.666 206.331 295.229 204.606 295.229C203.17 295.229 201.445 296.091 201.445 297.815C201.445 299.54 202.595 300.977 204.032 300.977C205.756 300.977 207.193 299.828 207.193 298.39Z" fill="#7A23A5"/>
<path d="M205.757 276.257C205.757 274.82 204.895 273.096 203.171 273.096C201.447 272.808 200.01 273.958 199.723 275.683C199.723 277.12 200.585 278.844 202.309 279.132C203.746 279.132 205.183 277.982 205.47 276.545L205.757 276.257Z" fill="#7A23A5"/>
<path d="M221.85 286.03C222.137 283.156 220.125 280.569 216.964 279.994C214.091 279.994 211.217 281.719 210.93 284.593C210.642 287.755 212.654 290.342 215.815 290.63C218.689 290.917 221.562 288.905 221.85 285.743V286.03Z" fill="#7A23A5"/>
<path d="M243.114 259.011C243.689 253.837 239.953 249.238 234.78 248.663C229.608 248.088 225.01 251.825 224.722 256.711C224.148 261.885 227.884 266.484 233.056 267.059C238.229 267.634 242.827 264.185 243.402 259.011H243.114Z" fill="#7A23A5"/>
<path d="M226.734 214.17C227.309 208.996 223.573 204.397 218.4 203.822C213.227 203.247 208.629 206.696 208.055 212.157C207.48 217.044 211.216 221.931 216.101 222.505C221.274 223.08 225.872 219.344 226.446 214.17H226.734Z" fill="#7A23A5"/>
<path d="M248.002 232.279C248.002 229.404 246.277 226.817 243.404 226.53C240.53 226.242 237.944 228.254 237.656 231.129C237.369 234.003 239.38 236.59 242.254 236.878C245.128 236.878 247.714 235.153 248.002 232.279Z" fill="#7A23A5"/>
<path d="M245.991 198.073C246.278 194.623 243.979 191.749 240.531 191.174C237.082 190.887 234.208 193.186 233.634 196.636C233.346 200.085 235.645 202.959 239.094 203.534C242.542 203.822 245.416 201.522 245.991 198.073Z" fill="#7A23A5"/>
<path d="M383.068 282.581C383.642 278.269 380.481 274.533 376.171 273.958C372.147 273.383 368.124 276.545 367.549 280.569C367.262 284.881 370.423 288.905 374.446 289.192C378.757 289.767 382.78 286.605 383.068 282.294V282.581Z" fill="#7A23A5"/>
<path d="M397.434 244.351C397.722 240.902 395.423 238.028 392.262 237.74C388.813 237.453 385.94 239.752 385.652 242.914C385.365 246.363 387.376 249.238 390.825 249.525C393.986 249.813 396.86 247.513 397.434 244.351Z" fill="#7A23A5"/>
<path d="M398.01 263.897C398.297 261.598 396.573 259.298 393.987 259.011C391.401 258.723 389.389 260.448 389.102 263.035C389.102 265.334 390.538 267.634 393.125 267.921C395.424 267.921 397.723 266.484 398.01 263.897Z" fill="#7A23A5"/>
<path d="M412.09 282.869C412.665 278.844 409.791 275.682 406.055 275.108C402.319 274.533 398.871 277.407 398.296 281.144C397.721 284.881 400.595 288.33 404.331 288.617C408.067 289.192 411.515 286.318 411.803 282.581L412.09 282.869Z" fill="#7A23A5"/>
<path d="M424.447 263.61C424.447 261.31 423.01 259.011 420.711 258.723C418.412 258.723 416.113 260.16 416.113 262.46C415.826 264.759 417.55 267.059 419.849 267.346C422.148 267.346 424.447 265.909 424.735 263.61H424.447Z" fill="#7A23A5"/>
<path d="M430.484 238.315C431.058 234.578 428.185 231.129 424.449 230.841C420.713 230.554 417.264 233.141 416.69 236.877C416.402 240.614 418.989 244.064 422.725 244.351C426.46 244.926 429.909 242.051 430.196 238.315H430.484Z" fill="#7A23A5"/>
<path d="M427.896 215.894C427.896 213.02 426.171 210.72 423.585 210.146C420.711 210.146 418.412 211.87 418.125 214.745C418.125 217.332 419.849 219.919 422.436 220.206C425.309 220.493 427.608 218.481 428.183 215.894H427.896Z" fill="#7A23A5"/>
<path d="M462.382 241.189C462.67 238.315 460.658 236.015 457.784 235.728C455.198 235.728 452.612 237.452 452.324 240.039C452.324 242.914 454.048 245.501 456.635 245.788C459.509 246.076 461.808 244.064 462.095 241.477L462.382 241.189Z" fill="#7A23A5"/>
<path d="M476.463 251.825C476.463 249.812 475.314 247.8 473.302 247.8C471.29 247.8 469.566 248.95 469.279 251.25C468.991 253.262 470.428 255.274 472.44 255.274C474.739 255.274 476.463 254.124 476.75 252.112L476.463 251.825Z" fill="#7A23A5"/>
<path d="M447.151 272.808C447.725 268.784 444.852 265.335 440.828 265.047C436.805 264.472 433.357 267.347 433.069 271.371C432.495 275.108 435.368 278.844 439.391 279.419C443.415 279.707 446.863 276.832 447.151 273.096V272.808Z" fill="#7A23A5"/>
<path d="M465.544 286.605C465.832 283.731 463.82 281.431 461.234 281.144C458.647 280.856 456.061 282.581 455.773 285.456C455.773 288.043 457.498 290.342 460.084 290.63C462.67 291.204 465.257 289.192 465.544 286.605Z" fill="#7A23A5"/>
<path d="M454.624 296.666C454.624 296.666 453.762 294.079 452.612 294.079C451.175 294.079 450.026 294.941 449.738 296.091C449.738 297.241 450.6 298.678 452.037 298.678C453.187 298.678 454.624 297.815 454.624 296.666Z" fill="#7A23A5"/>
<path d="M471.289 296.953C471.289 296.953 470.427 294.366 469.278 294.366C467.841 294.366 466.691 295.229 466.691 296.378C466.691 297.816 467.554 298.965 468.99 298.965C470.14 298.965 471.577 298.103 471.577 296.953H471.289Z" fill="#7A23A5"/>
<path d="M310.936 231.704C311.224 227.967 308.925 224.805 305.189 224.517C301.74 223.943 298.292 226.817 298.005 230.266C297.717 234.003 300.016 237.165 303.752 237.452C307.201 237.74 310.649 235.44 310.936 231.704Z" fill="#7A23A5"/>
<path d="M312.087 257.286C312.661 254.124 310.075 251.25 307.201 250.962C304.04 250.675 301.454 252.974 301.166 255.849C300.592 259.011 302.891 261.598 306.052 261.885C309.213 262.173 312.087 259.873 312.087 256.999V257.286Z" fill="#7A23A5"/>
<path d="M302.602 273.383C302.889 270.796 301.165 268.496 298.579 268.209C295.993 268.209 293.694 269.646 293.406 272.233C293.119 274.82 294.843 277.12 297.429 277.407C300.016 277.407 302.315 275.97 302.602 273.383Z" fill="#7A23A5"/>
<path d="M341.973 247.513C341.973 244.926 340.249 242.626 337.95 242.339C335.364 242.339 333.065 244.064 332.777 246.651C332.49 249.237 334.214 251.537 336.801 251.824C339.387 252.112 341.686 250.387 341.973 247.8V247.513Z" fill="#7A23A5"/>
<path d="M369.848 301.84C369.848 299.828 368.699 297.816 366.687 297.528C364.676 297.241 362.664 298.678 362.664 300.69C362.664 302.702 363.814 304.427 365.825 304.714C367.837 304.714 369.561 303.277 369.848 301.552V301.84Z" fill="#7A23A5"/>
<path d="M364.099 286.318C364.386 283.443 362.375 281.144 359.788 280.856C357.202 280.856 354.616 282.581 354.328 285.168C354.041 287.755 356.052 290.055 358.639 290.629C361.225 290.917 363.524 288.905 364.099 286.318Z" fill="#7A23A5"/>
<path d="M324.153 286.893C324.153 284.306 322.716 282.006 320.13 281.719C317.544 281.431 315.245 283.156 314.957 285.743C314.67 288.33 316.681 290.629 318.98 290.917C321.567 291.204 323.866 289.48 324.153 286.893Z" fill="#7A23A5"/>
<path d="M267.829 299.253C267.829 296.666 266.392 294.366 263.806 294.079C261.219 293.791 258.92 295.803 258.633 298.39C258.345 300.977 260.07 303.277 262.656 303.564C265.242 303.852 267.541 302.127 267.829 299.54V299.253Z" fill="#7A23A5"/>
<path d="M302.314 295.229C302.889 291.492 300.015 288.043 296.279 287.755C292.544 287.18 289.095 290.055 288.808 293.791C288.233 297.528 291.107 300.977 294.843 301.552C298.578 301.84 302.027 299.253 302.314 295.516V295.229Z" fill="#7A23A5"/>
<path d="M281.335 279.132C281.623 275.395 279.036 271.946 275.3 271.371C271.565 271.083 268.116 273.67 267.541 277.407C267.254 281.144 269.84 284.593 273.576 285.168C277.312 285.456 280.76 282.869 281.048 279.132H281.335Z" fill="#7A23A5"/>
<path d="M337.663 302.415C338.238 298.678 335.364 295.229 331.628 294.941C327.605 294.654 324.444 297.241 323.869 301.265C323.582 305.002 326.168 308.451 329.904 308.738C333.64 309.026 337.089 306.439 337.663 302.415Z" fill="#7A23A5"/>
<path d="M341.973 269.646C342.26 266.197 339.961 262.747 336.225 262.46C332.777 261.885 329.328 264.759 329.041 268.209C328.466 271.658 331.052 274.82 334.788 275.395C338.524 275.682 341.398 273.383 341.973 269.646Z" fill="#7A23A5"/>
<path d="M285.073 237.74C285.647 232.853 282.199 228.542 277.314 227.967C272.428 227.392 268.118 230.841 267.543 235.728C266.968 240.614 270.417 244.926 275.302 245.501C280.187 246.076 284.498 242.626 285.073 237.74Z" fill="#7A23A5"/>
<path d="M471.002 228.829L470.715 229.116L484.221 238.027L473.014 251.537L473.301 251.824L485.371 238.027L471.002 228.829Z" fill="#7A23A5"/>
<path d="M502.9 208.995V209.283L484.508 238.027L484.795 238.315L503.187 209.858L542.557 230.841L531.637 252.112L531.924 252.687L543.419 230.841L543.132 230.554L502.9 208.995Z" fill="#7A23A5"/>
<path d="M485.369 165.879L485.082 166.454L512.382 185.712L546.005 190.312H546.292L572.443 182.838V182.263L546.005 189.737L512.67 185.138L485.369 165.879Z" fill="#7A23A5"/>
<path d="M476.175 252.112C476.175 250.387 475.026 248.95 473.589 248.95C471.865 248.95 470.428 250.1 470.141 251.537C470.141 253.262 471.29 254.699 473.014 254.986C474.451 254.986 475.888 253.836 476.175 252.399V252.112Z" fill="#7A23A5"/>
<path d="M474.451 229.979C474.451 228.254 473.588 226.817 471.864 226.529C470.14 226.529 468.99 227.679 468.703 229.116C468.703 230.553 469.565 232.278 471.289 232.278C473.014 232.278 474.451 231.416 474.738 229.691L474.451 229.979Z" fill="#7A23A5"/>
<path d="M490.543 240.039C490.543 236.877 488.819 234.29 485.945 234.003C483.071 233.715 480.197 235.727 479.91 238.889C479.623 241.764 481.634 244.351 484.508 244.638C487.669 245.213 489.968 242.914 490.543 240.039Z" fill="#7A23A5"/>
<path d="M511.808 212.445C512.383 207.271 508.934 202.672 503.474 202.097C498.302 201.522 493.991 205.259 493.129 210.433C492.554 215.607 496.003 220.206 501.175 220.781C506.348 221.355 510.946 217.619 511.521 212.732L511.808 212.445Z" fill="#7A23A5"/>
<path d="M495.429 167.891C496.004 162.717 492.268 158.118 487.095 157.543C481.922 156.968 477.324 160.417 476.75 165.591C476.175 170.478 479.911 175.364 485.083 175.939C490.256 176.514 494.854 173.065 495.429 167.891Z" fill="#7A23A5"/>
<path d="M514.682 151.507C514.682 148.057 512.67 145.183 509.222 144.608C505.773 144.033 502.9 146.62 502.325 150.069C502.038 153.519 504.337 156.393 507.785 156.681C511.234 156.968 514.107 154.669 514.682 151.219V151.507Z" fill="#7A23A5"/>
</svg>
