<svg width="40" height="40" viewBox="0 0 40 40" fill="none" xmlns="http://www.w3.org/2000/svg">
<rect width="40" height="40" rx="4" fill="white"/>
<path d="M29.7029 14.114C29.0071 14.4224 28.2596 14.6307 27.4738 14.7249C28.2846 14.2397 28.8912 13.4761 29.1804 12.5765C28.4186 13.029 27.5849 13.3475 26.7154 13.5182C26.1307 12.8939 25.3563 12.4801 24.5124 12.3411C23.6684 12.202 22.8022 12.3455 22.0481 12.7492C21.2941 13.153 20.6944 13.7943 20.3422 14.5738C19.99 15.3532 19.905 16.2272 20.1004 17.0599C18.5568 16.9824 17.0468 16.5812 15.6683 15.8823C14.2898 15.1834 13.0736 14.2025 12.0987 13.0032C11.7654 13.5782 11.5738 14.2449 11.5738 14.9549C11.5734 15.594 11.7308 16.2234 12.032 16.7871C12.3332 17.3509 12.7689 17.8316 13.3004 18.1865C12.684 18.1669 12.0811 18.0003 11.5421 17.7007V17.7507C11.542 18.6471 11.8521 19.516 12.4197 20.2099C12.9874 20.9037 13.7776 21.3798 14.6563 21.5574C14.0844 21.7121 13.4849 21.7349 12.9029 21.624C13.1508 22.3954 13.6337 23.0699 14.2841 23.5531C14.9344 24.0364 15.7195 24.3042 16.5296 24.319C15.1544 25.3985 13.4562 25.9841 11.7079 25.9815C11.3982 25.9816 11.0888 25.9635 10.7812 25.9274C12.5558 27.0683 14.6215 27.6739 16.7313 27.6715C23.8729 27.6715 27.7771 21.7565 27.7771 16.6265C27.7771 16.4599 27.7729 16.2915 27.7654 16.1249C28.5248 15.5757 29.1803 14.8956 29.7013 14.1165L29.7029 14.114Z" fill="#8D2ED1"/>
</svg>
