<svg width="70" height="70" viewBox="0 0 70 70" fill="none" xmlns="http://www.w3.org/2000/svg">
<path d="M65.7772 24.7753C63.7456 22.7426 61.73 20.7489 59.7463 18.7233C59.3584 18.3264 59.0856 18.3618 58.6995 18.6773C58.1327 19.1433 57.534 19.5687 56.9531 20.0082C62.3676 28.5464 62.961 37.4126 58.9032 46.7058C60.1501 46.7058 61.3545 46.6899 62.5572 46.7111C63.4764 46.7271 64.401 46.7413 65.3131 46.8458C67.0206 47.0425 67.9504 48.5099 67.9575 50.0747C67.9806 54.9269 67.9806 59.7808 67.9593 64.633C67.9504 66.7171 66.2536 68.0019 64.6011 67.9913C58.9103 67.9541 53.2194 67.9771 47.5286 67.9665C45.9859 67.9629 44.599 66.547 44.5919 65.0158C44.5831 63.311 44.5902 61.6079 44.5902 59.834C43.7223 60.1193 42.9305 60.4649 42.1016 60.635C40.5022 60.9646 38.8851 61.2074 37.2716 61.4591C36.7137 61.5459 36.1398 61.5282 35.5801 61.6115C35.4101 61.6363 35.2099 61.8064 35.1213 61.9659C33.3661 65.0849 30.7022 66.9741 27.2573 67.8034C26.7755 67.9186 26.2689 67.97 25.773 67.9718C21.2777 67.9842 16.7824 68.0391 12.2889 67.9505C10.422 67.9133 8.70752 67.1601 7.14178 66.1217C4.3982 64.3034 2.70318 61.7621 2.2409 58.5191C1.98939 56.7646 2.07085 54.9623 2 53.1264C4.17503 53.1264 6.26504 53.1264 8.44538 53.1264C8.44538 52.3998 8.46487 51.721 8.42945 51.0476C8.42236 50.9112 8.22576 50.7464 8.07875 50.6648C6.16055 49.5874 5.70003 47.2623 7.11876 45.5947C7.67137 44.9461 8.44893 44.6678 9.28847 44.5916C9.57009 44.5668 9.85704 44.5881 10.0554 44.5881C9.62678 42.8886 9.12198 41.2281 8.80671 39.5321C8.56406 38.2313 8.53041 36.8898 8.45425 35.5624C8.30192 32.9077 8.74119 30.3204 9.39121 27.7578C9.43904 27.57 9.39474 27.3042 9.28847 27.1429C7.47831 24.3854 5.63805 21.6474 3.8332 18.8864C2.68724 17.1319 2.09565 15.2145 2.05137 13.0861C1.98407 9.79695 3.13181 7.04478 5.49104 4.81362C7.08157 3.31083 9.0104 2.44424 11.1961 2.16778C13.9627 1.81867 16.4884 2.4212 18.7715 4.02856C21.0935 5.66249 22.5476 7.86884 23.0418 10.6653C23.1658 11.3618 23.5537 10.9896 23.7804 10.9134C25.254 10.4083 26.6834 9.74556 28.1854 9.35923C29.7405 8.95872 31.354 8.72125 32.957 8.58125C34.4306 8.45188 35.9326 8.43416 37.4044 8.57239C39.7566 8.79391 42.0999 9.20328 44.2767 10.1638C46.0833 10.9595 47.812 11.9306 49.5885 12.8008C49.7373 12.8734 50.0596 12.8327 50.1588 12.7192C50.6423 12.1628 51.1011 11.5815 51.5049 10.9666C51.5846 10.8443 51.4589 10.4792 51.3172 10.3357C49.4539 8.44125 47.5711 6.56452 45.6883 4.6878C45.5324 4.53362 45.3447 4.41134 45.1056 4.21995C45.8867 3.44374 46.5774 2.73665 47.3019 2.065C47.4064 1.96753 47.6898 1.99411 47.8616 2.05082C50.7079 2.99007 53.556 3.92932 56.3881 4.91109C56.8468 5.07059 57.0966 5.00502 57.4349 4.68071C58.6464 3.52349 60.0545 3.01665 61.7831 3.21159C64.3868 3.50577 66.0181 4.90578 66.661 7.35668C67.141 9.18733 66.7939 10.9542 65.4017 12.3648C65.005 12.7671 64.8934 13.0666 65.1024 13.6496C66.096 16.4319 67.01 19.2444 67.9487 22.0462C68.0496 22.3492 68.0124 22.5831 67.7397 22.8312C67.0737 23.4373 66.4503 24.1019 65.7772 24.7753ZM48.8995 4.62046C48.8038 4.60274 48.7064 4.58679 48.6108 4.56907C48.6055 4.59742 48.6002 4.62755 48.5948 4.6559C48.6728 4.67362 48.7489 4.69135 48.8269 4.70907C50.3058 6.11262 51.7848 7.51795 53.0476 8.71593C53.7171 8.12935 54.4823 7.45947 55.2545 6.78427C53.0884 6.04528 50.993 5.33287 48.8995 4.62046ZM65.2972 21.1937C65.3149 21.2699 65.3326 21.3479 65.3486 21.4241C65.3769 21.4206 65.407 21.417 65.4354 21.4135C65.4176 21.316 65.4017 21.2168 65.384 21.1193C64.6684 19.0104 63.9511 16.9033 63.2054 14.7058C62.4102 15.4484 61.668 16.1395 61.0516 16.7155C62.5093 18.2502 63.9033 19.7211 65.2972 21.1937ZM50.9488 48.836C49.9091 48.836 48.9579 48.8324 48.0086 48.836C47.0379 48.8395 46.7121 49.1638 46.7121 50.1474C46.7085 54.9517 46.7085 59.7578 46.7121 64.5621C46.7121 65.5297 47.045 65.8505 48.0298 65.8523C53.4957 65.854 58.9599 65.854 64.4258 65.8523C65.4336 65.8523 65.8392 65.434 65.841 64.4044C65.8427 62.6996 65.841 60.9948 65.841 59.29C65.841 56.256 65.8427 53.2238 65.8392 50.1899C65.8374 49.396 65.4761 48.882 64.7942 48.8519C63.7421 48.8058 62.6865 48.8395 61.5688 48.8395C61.5688 50.2927 61.5688 51.675 61.5688 53.0448C57.9981 53.0448 54.4947 53.0448 50.9488 53.0448C50.9488 51.6342 50.9488 50.2679 50.9488 48.836ZM33.8975 59.4725C33.5167 59.4725 33.274 59.4725 33.0313 59.4725C26.5931 59.4725 20.1548 59.4672 13.7165 59.4849C13.2241 59.4867 12.985 59.3325 12.783 58.8877C12.2977 57.8155 11.7257 56.7841 11.2297 55.7173C11.042 55.315 10.8028 55.2016 10.3707 55.2087C8.51269 55.2352 6.65471 55.2193 4.79495 55.2211C4.60366 55.2211 4.41416 55.2406 4.12014 55.2583C4.20515 56.4616 4.13607 57.6525 4.3982 58.7654C4.91894 60.9646 6.1322 62.7793 7.97956 64.1226C9.32744 65.1027 10.8312 65.8062 12.4961 65.8328C16.7204 65.9019 20.9483 65.8594 25.1726 65.8487C25.6703 65.847 26.1768 65.8133 26.6639 65.7123C30.185 64.9875 32.5443 62.9052 33.8975 59.4725ZM42.4134 23.3097C42.1831 23.3097 41.9653 23.3097 41.7492 23.3097C39.0499 23.3097 36.3506 23.3097 33.6513 23.3097C31.7933 23.3097 29.9353 23.3186 28.0755 23.3026C27.7426 23.2991 27.4999 23.3788 27.4539 23.7155C27.2201 25.4558 26.9951 27.1978 26.7879 28.9434C26.7082 29.6168 26.6851 30.2956 26.6426 30.9725C26.5806 31.949 26.5222 32.9255 26.4602 33.9108C32.1723 33.9108 37.7569 33.9108 43.3769 33.9108C43.4832 30.3292 43.0049 26.8399 42.4134 23.3097ZM43.3751 36.1136C37.7232 36.1136 32.1333 36.1136 26.4514 36.1136C26.5222 37.1875 26.5683 38.2171 26.6621 39.2415C26.8198 40.9746 27.0022 42.706 27.1935 44.4357C27.2077 44.5668 27.3547 44.7547 27.4769 44.7901C28.4705 45.0861 29.0833 45.7754 29.4801 46.6704C33.8071 46.6704 38.1182 46.6704 42.4258 46.6704C43.0014 43.165 43.5027 39.6898 43.3751 36.1136ZM4.19629 12.8362C4.11304 14.3922 4.48146 15.8772 5.33695 17.2135C6.65294 19.2674 8.00435 21.2983 9.35223 23.331C10.2006 24.6087 11.0419 25.8917 11.9399 27.134C12.4058 27.7756 13.0682 27.7047 13.4951 27.0649C15.5125 24.0345 17.5086 20.9917 19.5579 17.9844C20.9571 15.9322 21.4194 13.6798 21.0474 11.2785C20.7393 9.29011 19.7864 7.62073 18.2224 6.28452C15.8596 4.26603 13.1904 3.81235 10.252 4.54071C6.85132 5.38249 3.95186 9.11644 4.19629 12.8362ZM45.7113 36.0905C45.3766 39.665 45.0471 43.1668 44.7159 46.6899C44.6752 46.6757 44.7159 46.7023 44.7566 46.7023C48.5399 46.7058 52.3214 46.7129 56.1047 46.6916C56.2925 46.6899 56.5564 46.4807 56.6538 46.2964C57.8476 44.0688 58.6056 41.6817 59.059 39.206C59.245 38.1923 59.284 37.1503 59.3938 36.0905C54.7019 36.0905 50.1499 36.0905 45.7113 36.0905ZM24.9423 44.581C24.7156 41.6888 24.4942 38.8906 24.2745 36.0994C19.7385 36.0994 15.1848 36.0994 10.5478 36.0994C10.6045 36.8668 10.5584 37.6252 10.7302 38.3306C11.2014 40.2534 11.7805 42.1496 12.28 44.0653C12.3934 44.5012 12.6024 44.5899 13.008 44.5881C16.7275 44.5757 20.447 44.581 24.1665 44.581C24.4517 44.581 24.7368 44.581 24.9423 44.581ZM10.484 33.9055C15.2202 33.9055 19.7863 33.9055 24.209 33.9055C24.5491 30.3505 24.8821 26.8505 25.2204 23.3097C23.1127 23.3097 20.9695 23.3008 18.8281 23.3274C18.6439 23.3292 18.4066 23.5348 18.2879 23.7084C17.374 25.0553 16.5149 26.4411 15.5727 27.7667C15.1688 28.3356 14.6623 28.8708 14.099 29.2783C13.1957 29.9341 12.1755 29.7728 11.1199 29.3687C10.9038 30.9017 10.6983 32.3761 10.484 33.9055ZM45.7025 33.9037C50.1606 33.9037 54.732 33.9037 59.2999 33.9037C59.5266 30.3363 56.691 22.0816 54.9835 21.3532C55.4068 23.0155 55.8479 24.6548 56.2234 26.31C56.2871 26.59 56.1543 27.0188 55.9559 27.2333C55.1164 28.1459 54.2201 29.0037 53.3416 29.8791C52.8333 30.386 52.7447 30.37 52.4206 29.7178C51.5634 27.9988 50.7114 26.2763 49.8488 24.5591C49.7337 24.3322 49.6877 24.0257 49.2449 24.2206C48.4 24.591 47.4577 24.4669 46.8679 23.8608C46.1524 23.1236 45.4085 23.3611 44.7212 23.3292C45.0489 26.8664 45.373 30.3558 45.7025 33.9037ZM64.7765 8.66808C64.6755 7.81744 64.4754 7.01111 63.8537 6.3625C62.497 4.95008 60.2617 4.74983 58.5489 6.47414C56.3686 8.66985 54.1865 10.8603 52.3303 13.3519C50.6335 15.6291 49.2484 18.0871 48.0511 20.6532C47.8509 21.0821 47.518 21.6013 47.959 22.0532C48.4177 22.5229 48.9243 22.1082 49.3317 21.9203C53.4674 20.0135 57.2099 17.5112 60.5043 14.3585C61.6078 13.3041 62.6723 12.2089 63.7332 11.1119C64.3868 10.4385 64.7109 9.60379 64.7765 8.66808ZM28.0667 21.1494C32.7196 21.1494 37.3088 21.1494 41.9157 21.1494C41.7811 20.6213 41.6695 20.118 41.526 19.6254C41.232 18.6135 40.9734 17.5643 39.7194 17.2914C39.6964 17.2861 39.6875 17.2205 39.7123 17.279C39.9284 16.8767 40.3552 16.4302 40.2596 16.2051C39.5281 14.479 38.6956 12.783 37.2468 11.5266C35.8493 10.3144 34.4802 10.2329 33.1146 11.2306C32.6204 11.5922 32.1617 12.0387 31.7951 12.5279C29.8751 15.0886 28.8867 18.0552 28.0667 21.1494ZM41.9706 48.836C37.8437 48.836 33.8408 48.8342 29.8379 48.8413C29.705 48.8413 29.5208 48.8785 29.4465 48.9689C28.9859 49.5306 28.5502 50.1119 28.072 50.7286C29.0621 52.701 30.1213 54.778 31.1379 56.8745C31.3221 57.2537 31.5205 57.3636 31.919 57.3565C33.2864 57.3317 34.6538 57.3477 36.0672 57.3477C36.0158 57.9874 35.9697 58.5793 35.9219 59.1694C36.0016 59.1996 36.0814 59.2315 36.1593 59.2616C39.7778 56.7806 40.713 52.7666 41.9706 48.836ZM10.5938 53.0909C10.9445 53.0909 11.2545 53.1281 11.5538 53.0821C12.0905 53.0005 12.365 53.2309 12.5864 53.7059C13.1568 54.9304 13.7749 56.1337 14.3541 57.3034C19.2585 57.3034 24.1028 57.3034 29.0001 57.3034C28.0153 55.3203 27.0465 53.3993 26.1113 51.4605C25.9182 51.0618 25.6844 50.9519 25.254 50.9519C20.5444 50.9696 15.8348 50.9626 11.1234 50.9626C10.9534 50.9626 10.7851 50.9626 10.5938 50.9626C10.5938 51.6856 10.5938 52.3431 10.5938 53.0909ZM30.2205 11.0977C30.1036 11.0889 30.0345 11.0676 29.9725 11.08C27.7302 11.5567 25.5888 12.3241 23.5466 13.359C23.3854 13.4405 23.2207 13.6869 23.2083 13.8676C23.0595 15.8631 22.3811 17.6494 21.2192 19.2709C20.7959 19.8611 20.4328 20.4937 19.9954 21.1813C21.825 21.1813 23.5289 21.1618 25.231 21.192C25.7535 21.2008 25.9501 21.0537 26.0209 20.5168C26.0936 19.9515 26.338 19.4074 26.5027 18.8527C27.3263 16.081 28.4457 13.4476 30.2205 11.0977ZM18.0116 46.7094C15.2663 46.7094 12.5209 46.7076 9.77555 46.7129C9.53998 46.7129 9.29202 46.7306 9.07416 46.8086C8.52332 47.0053 8.37631 47.4678 8.46841 47.9835C8.57645 48.5896 8.99092 48.8395 9.60375 48.8395C15.16 48.8324 20.718 48.836 26.2742 48.836C26.3628 48.836 26.4531 48.843 26.5399 48.8306C27.0394 48.7633 27.5601 48.2352 27.5725 47.7921C27.5849 47.3243 27.05 46.7732 26.5133 46.7129C26.361 46.6952 26.2034 46.7076 26.0493 46.7076C23.3695 46.7094 20.6914 46.7094 18.0116 46.7094ZM39.691 58.9373C39.8522 58.9373 39.9709 58.9639 40.0718 58.9338C41.4498 58.5155 42.8314 58.1115 44.1917 57.6436C44.3794 57.578 44.5636 57.1864 44.5654 56.9436C44.5937 54.6876 44.5813 52.4299 44.5813 50.1739C44.5813 49.7486 44.5813 49.3215 44.5813 48.8661C44.4821 48.8661 44.2944 48.8661 44.0995 48.8661C43.1732 52.4388 42.068 55.9211 39.691 58.9373ZM53.1433 48.8501C53.1433 49.543 53.1433 50.2289 53.1433 50.9183C55.2545 50.9183 57.3392 50.9183 59.4115 50.9183C59.4115 50.2005 59.4115 49.5306 59.4115 48.8501C57.3056 48.8501 55.2527 48.8501 53.1433 48.8501ZM39.8522 11.064C40.6032 12.3081 41.3241 13.499 42.1388 14.8476C42.3956 14.5215 42.548 14.222 42.7906 14.0519C43.0333 13.8818 43.3893 13.7223 43.6585 13.7684C44.4184 13.8995 45.1569 14.1476 45.9062 14.3355C46.8095 14.5623 47.7163 14.7732 48.6214 14.9929C48.6409 14.9309 48.6586 14.8689 48.6781 14.8086C46.0408 12.9266 43.0829 11.7889 39.8522 11.064ZM53.0565 22.4449C52.6208 22.6717 52.2559 22.8206 51.9442 23.0439C51.8078 23.1413 51.6679 23.4426 51.7228 23.5614C52.2293 24.6459 52.7784 25.711 53.3895 26.9267C53.6303 26.5492 53.9917 26.2409 53.9474 26.014C53.7154 24.8409 53.3788 23.6889 53.0565 22.4449ZM43.1891 16.6978C44.429 17.3092 45.5927 17.8833 46.7546 18.4557C47.0362 17.8922 47.2629 17.435 47.5073 16.9459C46.4411 16.6659 45.396 16.4319 44.3794 16.1112C43.7719 15.9198 43.5274 16.2636 43.1891 16.6978ZM45.7592 21.1742C45.6759 20.8145 45.7042 20.3715 45.5165 20.2403C44.9727 19.8628 44.3422 19.613 43.6178 19.2479C43.8073 19.9709 43.9632 20.5717 44.119 21.1742C44.615 21.1742 45.0755 21.1742 45.7592 21.1742Z" fill="black"/>
<path d="M50.9483 48.8357C50.9483 50.2676 50.9483 51.6322 50.9483 53.0446C54.4943 53.0446 57.9995 53.0446 61.5684 53.0446C61.5684 51.6765 61.5684 50.2942 61.5684 48.8392C62.686 48.8392 63.7417 48.8056 64.7938 48.8516C65.4757 48.8818 65.8388 49.3939 65.8388 50.1896C65.8423 53.2236 65.8405 56.2557 65.8405 59.2897C65.8405 60.9945 65.8423 62.6993 65.8405 64.4042C65.8388 65.4338 65.4332 65.852 64.4254 65.852C58.9595 65.8538 53.4953 65.8538 48.0294 65.852C47.0428 65.852 46.7116 65.5295 46.7116 64.5619C46.7081 59.7575 46.7081 54.9514 46.7116 50.1471C46.7116 49.1635 47.0375 48.8392 48.0081 48.8357C48.9575 48.8339 49.9087 48.8357 50.9483 48.8357ZM57.376 61.6219C57.376 62.3467 57.376 63.0165 57.376 63.6882C58.0827 63.6882 58.7522 63.6882 59.4253 63.6882C59.4253 62.9793 59.4253 62.3112 59.4253 61.6219C58.7345 61.6219 58.0809 61.6219 57.376 61.6219ZM61.6198 63.6953C62.3159 63.6953 62.9836 63.6953 63.6832 63.6953C63.6832 62.9988 63.6832 62.3307 63.6832 61.6307C62.9871 61.6307 62.3194 61.6307 61.6198 61.6307C61.6198 62.3272 61.6198 62.9953 61.6198 63.6953Z" fill="#8D2ED1"/>
<path d="M33.8976 59.4728C32.5427 62.9037 30.1852 64.9878 26.6658 65.7126C26.1805 65.8118 25.6722 65.8473 25.1745 65.8491C20.9484 65.8597 16.7223 65.9022 12.498 65.8331C10.8331 65.8065 9.32937 65.1012 7.98149 64.123C6.13413 62.7797 4.9191 60.965 4.40014 58.7657C4.13623 57.6528 4.20532 56.4619 4.12207 55.2586C4.41609 55.2427 4.60737 55.2214 4.79688 55.2214C6.65487 55.2196 8.51462 55.2356 10.3726 55.209C10.803 55.2037 11.0439 55.3153 11.2316 55.7176C11.7276 56.7844 12.2997 57.8176 12.785 58.888C12.9869 59.3328 13.226 59.487 13.7184 59.4852C20.1567 59.4675 26.595 59.4728 33.0333 59.4728C33.2742 59.4728 33.5168 59.4728 33.8976 59.4728Z" fill="#8D2ED1"/>
<path d="M42.4133 23.3099C43.0049 26.84 43.4831 30.3294 43.3786 33.911C37.7586 33.911 32.174 33.911 26.4619 33.911C26.5221 32.9256 26.5806 31.9492 26.6443 30.9727C26.6886 30.2957 26.7099 29.617 26.7896 28.9436C26.995 27.1998 27.2218 25.4577 27.4556 23.7157C27.4998 23.379 27.7443 23.2992 28.0772 23.3028C29.9352 23.3187 31.7932 23.3099 33.653 23.3099C36.3523 23.3099 39.0516 23.3099 41.7509 23.3099C41.9652 23.3099 42.183 23.3099 42.4133 23.3099ZM31.7808 31.7932C31.7808 31.0489 31.7808 30.3773 31.7808 29.7393C31.0599 29.7393 30.3886 29.7393 29.751 29.7393C29.751 30.4606 29.751 31.1322 29.751 31.7932C30.4542 31.7932 31.1095 31.7932 31.7808 31.7932ZM38.251 29.7127C38.251 30.4535 38.251 31.1251 38.251 31.7737C38.9683 31.7737 39.6396 31.7737 40.2879 31.7737C40.2879 31.056 40.2879 30.3844 40.2879 29.7127C39.5865 29.7127 38.9311 29.7127 38.251 29.7127ZM36.06 29.734C35.3214 29.734 34.6501 29.734 33.9983 29.734C33.9983 30.4499 33.9983 31.1216 33.9983 31.7737C34.7139 31.7737 35.3852 31.7737 36.06 31.7737C36.06 31.0755 36.06 30.4198 36.06 29.734Z" fill="#EDD6FF"/>
<path d="M43.3748 36.1134C43.5023 39.6896 43.001 43.1648 42.4236 46.6702C38.1161 46.6702 33.805 46.6702 29.478 46.6702C29.0812 45.7752 28.4702 45.0859 27.4747 44.7899C27.3525 44.7527 27.2055 44.5666 27.1914 44.4355C27.0001 42.7059 26.8176 40.9744 26.66 39.2413C26.5661 38.217 26.5201 37.1873 26.4492 36.1134C32.133 36.1134 37.7211 36.1134 43.3748 36.1134ZM31.7858 40.3063C31.7858 39.5674 31.7858 38.8957 31.7858 38.2435C31.0703 38.2435 30.399 38.2435 29.7472 38.2435C29.7472 38.9595 29.7472 39.6312 29.7472 40.3063C30.445 40.3063 31.1004 40.3063 31.7858 40.3063ZM36.0597 38.2435C35.3211 38.2435 34.6499 38.2435 33.9981 38.2435C33.9981 38.9595 33.9981 39.6311 33.9981 40.2833C34.7136 40.2833 35.3849 40.2833 36.0597 40.2833C36.0597 39.5851 36.0597 38.9294 36.0597 38.2435ZM38.256 38.2258C38.256 38.9719 38.256 39.6436 38.256 40.2762C38.9787 40.2762 39.6499 40.2762 40.2822 40.2762C40.2822 39.5532 40.2822 38.8815 40.2822 38.2258C39.5773 38.2258 38.922 38.2258 38.256 38.2258Z" fill="#EDD6FF"/>
<path d="M4.19606 12.8364C3.95164 9.11663 6.84932 5.38091 10.2536 4.53736C13.1902 3.809 15.8612 4.26267 18.2239 6.28117C19.7879 7.61738 20.7426 9.28676 21.049 11.2751C21.4209 13.6764 20.9586 15.9306 19.5594 17.981C17.5084 20.9884 15.5122 24.0329 13.4966 27.0616C13.0715 27.7013 12.4073 27.7722 11.9415 27.1307C11.0417 25.8902 10.2004 24.6071 9.35378 23.3276C8.0059 21.2949 6.65449 19.264 5.33849 17.2101C4.48124 15.8774 4.11281 14.3924 4.19606 12.8364ZM6.32149 12.6946C6.10895 15.8101 9.21918 19.4785 13.1937 19.0496C16.5094 18.6916 19.0227 16.2195 19.0316 12.7336C19.0422 8.94827 16.3411 6.35737 12.5685 6.31838C9.06862 6.28117 6.22231 9.23714 6.32149 12.6946Z" fill="#8D2ED1"/>
<path d="M45.7115 36.0909C50.1519 36.0909 54.7021 36.0909 59.394 36.0909C59.2842 37.1507 59.2452 38.1909 59.0592 39.2064C58.6058 41.6839 57.8477 44.0692 56.654 46.2968C56.5565 46.4793 56.2926 46.6902 56.1049 46.692C52.3234 46.7133 48.5401 46.7062 44.7568 46.7026C44.7161 46.7026 44.6754 46.676 44.7161 46.6902C45.0473 43.1672 45.375 39.6654 45.7115 36.0909Z" fill="#EDD6FF"/>
<path d="M24.9425 44.5813C24.7371 44.5813 24.4537 44.5813 24.1685 44.5813C20.449 44.5813 16.7295 44.576 13.01 44.5884C12.6044 44.5901 12.3954 44.4998 12.282 44.0656C11.7826 42.1499 11.2034 40.2537 10.7322 38.3309C10.5587 37.6255 10.6065 36.867 10.5498 36.0997C15.1868 36.0997 19.7405 36.0997 24.2766 36.0997C24.4944 38.8909 24.7141 41.6909 24.9425 44.5813Z" fill="#EDD6FF"/>
<path d="M10.4844 33.9057C10.6987 32.3763 10.9059 30.9019 11.1202 29.369C12.1759 29.773 13.1961 29.9343 14.0994 29.2786C14.6626 28.8692 15.1692 28.3358 15.573 27.7669C16.5153 26.4414 17.3743 25.0555 18.2883 23.7087C18.4069 23.535 18.6443 23.3294 18.8285 23.3277C20.9698 23.3011 23.113 23.31 25.2207 23.31C24.8824 26.8507 24.5477 30.3525 24.2094 33.9057C19.7867 33.9057 15.2188 33.9057 10.4844 33.9057Z" fill="#EDD6FF"/>
<path d="M45.7029 33.904C45.3735 30.3561 45.0494 26.8667 44.7217 23.3313C45.4089 23.365 46.151 23.1257 46.8684 23.8629C47.4564 24.469 48.4005 24.5948 49.2453 24.2227C49.6881 24.0277 49.7359 24.3326 49.8493 24.5612C50.7119 26.2784 51.5638 28.0009 52.4211 29.7199C52.747 30.3721 52.8337 30.388 53.3421 29.8812C54.2206 29.0058 55.1168 28.1463 55.9564 27.2354C56.1547 27.0192 56.2858 26.5921 56.2238 26.3121C55.8483 24.6569 55.4073 23.0158 54.984 21.3553C56.6914 22.0837 59.5271 30.3402 59.3004 33.9058C54.7325 33.904 50.1628 33.904 45.7029 33.904Z" fill="#EDD6FF"/>
<path d="M64.7764 8.66827C64.7109 9.60398 64.3867 10.4387 63.7332 11.1121C62.6722 12.2091 61.606 13.3043 60.5043 14.3587C57.2098 17.5096 53.4673 20.0137 49.3316 21.9205C48.9242 22.1084 48.4176 22.5231 47.9589 22.0534C47.5179 21.6015 47.8508 21.0823 48.051 20.6534C49.2465 18.0873 50.6334 15.6293 52.3302 13.3521C54.1864 10.8604 56.3685 8.67182 58.5489 6.47433C60.2616 4.75002 62.4969 4.95028 63.8536 6.36269C64.4753 7.0113 64.6754 7.81764 64.7764 8.66827ZM59.3016 9.21942C59.833 9.70322 60.3325 10.1569 60.8089 10.5911C61.2836 10.1693 61.8079 9.70499 62.233 9.32752C61.6803 8.75334 61.2092 8.26599 60.8036 7.84599C60.3289 8.28017 59.8294 8.73562 59.3016 9.21942ZM57.7997 10.6708C57.2807 11.2131 56.7954 11.7217 56.4004 12.1364C56.8521 12.6007 57.3232 13.0845 57.7306 13.5045C58.2017 13.0508 58.7012 12.5706 59.1954 12.0921C58.7526 11.6437 58.308 11.1883 57.7997 10.6708ZM54.8807 16.6554C55.2668 16.2266 55.6423 15.8544 55.9541 15.4344C56.0515 15.3033 56.0621 14.9541 55.9611 14.8531C54.6469 13.5293 54.9781 13.5063 53.7383 14.7309C53.6072 14.8602 53.423 14.9364 53.2813 15.0268C53.8552 15.6116 54.3033 16.0671 54.8807 16.6554Z" fill="#EDD6FF"/>
<path d="M28.0664 21.1495C28.8865 18.0553 29.873 15.0887 31.793 12.5297C32.1596 12.0406 32.6201 11.5922 33.1125 11.2325C34.4781 10.2347 35.8473 10.3163 37.2448 11.5284C38.6936 12.7831 39.526 14.4808 40.2575 16.2069C40.3532 16.432 39.9263 16.8786 39.7102 17.2809C39.6854 17.2224 39.6961 17.288 39.7173 17.2933C40.9713 17.5662 41.2299 18.6135 41.5239 19.6272C41.6674 20.1216 41.7808 20.6232 41.9136 21.1513C37.3085 21.1495 32.7193 21.1495 28.0664 21.1495Z" fill="#EDD6FF"/>
<path d="M41.9702 48.8356C40.7127 52.7663 39.7775 56.7803 36.1625 59.2577C36.0828 59.2276 36.0031 59.1957 35.9251 59.1656C35.9712 58.5755 36.019 57.9836 36.0704 57.3438C34.6552 57.3438 33.2878 57.3279 31.9222 57.3527C31.5219 57.3598 31.3253 57.2517 31.1411 56.8706C30.1245 54.7742 29.0635 52.6972 28.0752 50.7248C28.5516 50.1081 28.9874 49.5268 29.4496 48.965C29.524 48.8746 29.7082 48.8392 29.8411 48.8374C33.8404 48.8339 37.8433 48.8356 41.9702 48.8356Z" fill="#EDD6FF"/>
<path d="M10.5938 53.0908C10.5938 52.3447 10.5938 51.6855 10.5938 50.9642C10.785 50.9642 10.9533 50.9642 11.1233 50.9642C15.8329 50.9642 20.5426 50.9713 25.2539 50.9536C25.6843 50.9518 25.9181 51.0617 26.1112 51.4622C27.0464 53.4009 28.0152 55.322 29 57.305C24.1027 57.305 19.2567 57.305 14.354 57.305C13.7748 56.1354 13.1567 54.9321 12.5863 53.7075C12.3649 53.2326 12.0904 53.0022 11.5537 53.0837C11.2544 53.128 10.9427 53.0908 10.5938 53.0908ZM14.8606 53.1085C14.8606 53.8387 14.8606 54.5103 14.8606 55.1802C15.5708 55.1802 16.2421 55.1802 16.9116 55.1802C16.9116 54.4695 16.9116 53.7979 16.9116 53.1085C16.2173 53.1085 15.562 53.1085 14.8606 53.1085ZM21.1518 55.1926C21.1518 54.4465 21.1518 53.7731 21.1518 53.1404C20.4292 53.1404 19.7561 53.1404 19.1238 53.1404C19.1238 53.8635 19.1238 54.5369 19.1238 55.1926C19.8288 55.1926 20.4859 55.1926 21.1518 55.1926ZM25.4063 55.1961C25.4063 54.4536 25.4063 53.7802 25.4063 53.1369C24.6871 53.1369 24.0141 53.1369 23.3712 53.1369C23.3712 53.8564 23.3712 54.5298 23.3712 55.1961C24.0743 55.1961 24.7297 55.1961 25.4063 55.1961Z" fill="#EDD6FF"/>
<path d="M30.22 11.0979C28.4453 13.4478 27.3277 16.0813 26.5005 18.8547C26.3358 19.4094 26.0914 19.9517 26.0188 20.5188C25.9497 21.0575 25.7513 21.2046 25.2288 21.194C23.5267 21.1638 21.8228 21.1833 19.9932 21.1833C20.4306 20.4957 20.7955 19.8631 21.217 19.2729C22.3789 17.6514 23.0591 15.8633 23.2061 13.8696C23.2203 13.6888 23.3832 13.4425 23.5444 13.361C25.5866 12.326 27.728 11.5569 29.9703 11.082C30.0341 11.0678 30.1031 11.0891 30.22 11.0979Z" fill="#EDD6FF"/>
<path d="M18.0119 46.7093C20.69 46.7093 23.3698 46.7093 26.0478 46.7093C26.2019 46.7093 26.3596 46.6969 26.5119 46.7146C27.0485 46.7749 27.5834 47.326 27.571 47.7939C27.5586 48.2369 27.0379 48.765 26.5384 48.8324C26.4517 48.8448 26.3613 48.8377 26.2728 48.8377C20.7165 48.8377 15.1585 48.8342 9.60228 48.8412C8.98945 48.8412 8.57498 48.5914 8.46694 47.9853C8.37484 47.4696 8.52185 47.0071 9.0727 46.8103C9.29055 46.7324 9.54028 46.7164 9.77408 46.7146C12.5212 46.7076 15.2666 46.7093 18.0119 46.7093Z" fill="#EDD6FF"/>
<path d="M39.6914 58.9374C42.0666 55.923 43.1736 52.4407 44.1017 48.8662C44.2947 48.8662 44.4843 48.8662 44.5834 48.8662C44.5834 49.3217 44.5834 49.747 44.5834 50.1741C44.5834 52.43 44.5958 54.6878 44.5675 56.9437C44.564 57.1865 44.3815 57.5782 44.1938 57.6437C42.8335 58.1134 41.4502 58.5174 40.074 58.9339C39.9713 58.964 39.8544 58.9374 39.6914 58.9374Z" fill="#EDD6FF"/>
<path d="M53.1436 48.8499C55.253 48.8499 57.3059 48.8499 59.4118 48.8499C59.4118 49.5304 59.4118 50.202 59.4118 50.918C57.3395 50.918 55.2548 50.918 53.1436 50.918C53.1436 50.2268 53.1436 49.541 53.1436 48.8499Z" fill="#EDD6FF"/>
<path d="M39.8525 11.0635C43.0832 11.7884 46.0411 12.9261 48.6784 14.8081C48.6589 14.8701 48.6412 14.9322 48.6217 14.9924C47.7166 14.7744 46.8098 14.5618 45.9065 14.335C45.1555 14.1471 44.4187 13.899 43.6588 13.7679C43.3896 13.7218 43.0336 13.8813 42.7909 14.0514C42.5483 14.2215 42.396 14.521 42.1391 14.8471C41.3244 13.4985 40.6035 12.3076 39.8525 11.0635Z" fill="#EDD6FF"/>
<path d="M65.2975 21.1941C63.9036 19.7232 62.5079 18.2505 61.0537 16.7158C61.6701 16.1399 62.4122 15.4487 63.2075 14.7062C63.9532 16.9037 64.6705 19.0108 65.386 21.1196C65.3542 21.1409 65.3258 21.1657 65.2975 21.1941Z" fill="#8D2ED1"/>
<path d="M48.8996 4.61862C50.9931 5.33103 53.0885 6.04521 55.2529 6.78243C54.4806 7.45763 53.7155 8.12751 53.046 8.71409C51.7831 7.51611 50.3041 6.11078 48.8252 4.70723C48.8518 4.68065 48.8766 4.65052 48.8996 4.61862Z" fill="#8D2ED1"/>
<path d="M53.0569 22.4448C53.3792 23.6906 53.7158 24.8407 53.9478 26.0139C53.9921 26.2425 53.6325 26.5509 53.3898 26.9266C52.7788 25.7109 52.2297 24.6458 51.7232 23.5612C51.6683 23.4425 51.8082 23.1394 51.9446 23.0438C52.2563 22.8205 52.6229 22.6716 53.0569 22.4448Z" fill="#8D2ED1"/>
<path d="M43.1895 16.6983C43.5295 16.2641 43.7722 15.9203 44.3797 16.1117C45.3964 16.4325 46.4414 16.6664 47.5076 16.9464C47.2632 17.4355 47.0365 17.8927 46.7549 18.4563C45.593 17.8839 44.4293 17.3097 43.1895 16.6983Z" fill="#8D2ED1"/>
<path d="M45.7595 21.1741C45.0759 21.1741 44.6153 21.1741 44.1194 21.1741C43.9635 20.5733 43.8059 19.9725 43.6182 19.2477C44.3426 19.6128 44.9749 19.8627 45.5169 20.2401C45.7046 20.3713 45.6763 20.8143 45.7595 21.1741Z" fill="#EDD6FF"/>
<path d="M65.3856 21.1179C65.4033 21.2153 65.4193 21.3145 65.437 21.4119C65.4086 21.4155 65.3785 21.419 65.3502 21.4225C65.3325 21.3464 65.3148 21.2684 65.2988 21.1923C65.3254 21.1657 65.3537 21.1409 65.3856 21.1179Z" fill="#8D2ED1"/>
<path d="M48.8229 4.70676C48.7449 4.68905 48.6688 4.67133 48.5908 4.65362C48.5961 4.62528 48.6014 4.59517 48.6068 4.56683C48.7024 4.58455 48.7998 4.60049 48.8955 4.6182C48.876 4.65008 48.8512 4.68019 48.8229 4.70676Z" fill="#8D2ED1"/>
<path d="M57.377 61.6225C58.0819 61.6225 58.7337 61.6225 59.4262 61.6225C59.4262 62.3118 59.4262 62.9817 59.4262 63.6888C58.7532 63.6888 58.0854 63.6888 57.377 63.6888C57.377 63.0154 57.377 62.3473 57.377 61.6225Z" fill="black"/>
<path d="M61.6201 63.6958C61.6201 62.9958 61.6201 62.3277 61.6201 61.6313C62.3197 61.6313 62.9875 61.6313 63.6835 61.6313C63.6835 62.3313 63.6835 62.9994 63.6835 63.6958C62.9857 63.6958 62.3162 63.6958 61.6201 63.6958Z" fill="black"/>
<path d="M31.7808 31.7927C31.1095 31.7927 30.4541 31.7927 29.751 31.7927C29.751 31.1299 29.751 30.4583 29.751 29.7388C30.3886 29.7388 31.0599 29.7388 31.7808 29.7388C31.7808 30.3768 31.7808 31.0484 31.7808 31.7927Z" fill="black"/>
<path d="M38.251 29.7124C38.9311 29.7124 39.5865 29.7124 40.2879 29.7124C40.2879 30.3841 40.2879 31.0557 40.2879 31.7735C39.6396 31.7735 38.9683 31.7735 38.251 31.7735C38.251 31.1248 38.251 30.4532 38.251 29.7124Z" fill="black"/>
<path d="M36.0597 29.7339C36.0597 30.4197 36.0597 31.0754 36.0597 31.7737C35.3831 31.7737 34.7118 31.7737 33.998 31.7737C33.998 31.1198 33.998 30.4499 33.998 29.7339C34.6498 29.7339 35.3211 29.7339 36.0597 29.7339Z" fill="black"/>
<path d="M31.7867 40.3063C31.1012 40.3063 30.4459 40.3063 29.748 40.3063C29.748 39.6293 29.748 38.9577 29.748 38.2435C30.4016 38.2435 31.0711 38.2435 31.7867 38.2435C31.7867 38.8956 31.7867 39.5673 31.7867 40.3063Z" fill="black"/>
<path d="M36.0597 38.2435C36.0597 38.9293 36.0597 39.585 36.0597 40.2832C35.3831 40.2832 34.7136 40.2832 33.998 40.2832C33.998 39.6293 33.998 38.9594 33.998 38.2435C34.6498 38.2435 35.3211 38.2435 36.0597 38.2435Z" fill="black"/>
<path d="M38.2568 38.2259C38.9228 38.2259 39.5781 38.2259 40.2831 38.2259C40.2831 38.8816 40.2831 39.555 40.2831 40.2763C39.6508 40.2763 38.9795 40.2763 38.2568 40.2763C38.2568 39.6436 38.2568 38.9719 38.2568 38.2259Z" fill="black"/>
<path d="M6.32197 12.6944C6.22455 9.23688 9.07087 6.28091 12.569 6.31813C16.3399 6.35711 19.0409 8.94802 19.0321 12.7334C19.0232 16.221 16.5099 18.6914 13.1942 19.0494C9.21788 19.4782 6.10765 15.8098 6.32197 12.6944ZM8.4474 12.6501C8.34644 14.9574 10.3745 16.9582 12.654 16.9387C14.721 16.921 16.9279 15.1701 16.9314 12.7068C16.935 10.3764 15.1089 8.44649 12.6451 8.42877C10.1619 8.4146 8.41198 10.4189 8.4474 12.6501Z" fill="black"/>
<path d="M59.3018 9.21941C59.8313 8.7356 60.329 8.28016 60.8037 7.84598C61.2093 8.26775 61.6805 8.7551 62.2331 9.32751C61.808 9.70498 61.2837 10.1693 60.809 10.5911C60.3308 10.1569 59.8331 9.70321 59.3018 9.21941Z" fill="black"/>
<path d="M57.7996 10.6707C58.308 11.1882 58.7525 11.6419 59.1953 12.092C58.6994 12.5687 58.1999 13.0508 57.7306 13.5044C57.3232 13.0862 56.852 12.6006 56.4004 12.1363C56.7954 11.7216 57.2807 11.2148 57.7996 10.6707Z" fill="black"/>
<path d="M54.8806 16.6556C54.3032 16.0672 53.8551 15.6118 53.2812 15.0288C53.4229 14.9401 53.6072 14.8639 53.7382 14.7328C54.9781 13.5082 54.6468 13.5313 55.9611 14.8551C56.0603 14.9561 56.0514 15.3052 55.954 15.4364C55.644 15.8546 55.2668 16.2267 54.8806 16.6556Z" fill="black"/>
<path d="M14.8604 53.109C15.5617 53.109 16.2189 53.109 16.9114 53.109C16.9114 53.7984 16.9114 54.47 16.9114 55.1807C16.2419 55.1807 15.5706 55.1807 14.8604 55.1807C14.8604 54.5108 14.8604 53.8391 14.8604 53.109Z" fill="black"/>
<path d="M21.152 55.1925C20.4861 55.1925 19.829 55.1925 19.124 55.1925C19.124 54.535 19.124 53.8616 19.124 53.1403C19.7563 53.1403 20.4294 53.1403 21.152 53.1403C21.152 53.773 21.152 54.4464 21.152 55.1925Z" fill="black"/>
<path d="M25.4062 55.1966C24.7296 55.1966 24.0743 55.1966 23.3711 55.1966C23.3711 54.5285 23.3711 53.8569 23.3711 53.1374C24.014 53.1374 24.6871 53.1374 25.4062 53.1374C25.4062 53.7807 25.4062 54.4541 25.4062 55.1966Z" fill="black"/>
<path d="M8.44698 12.6499C8.41155 10.4188 10.1615 8.41266 12.6447 8.43038C15.1085 8.44811 16.9345 10.378 16.931 12.7084C16.9275 15.1699 14.7205 16.9226 12.6536 16.9403C10.374 16.958 8.34602 14.9573 8.44698 12.6499Z" fill="#EDD6FF"/>
</svg>
