<svg width="28" height="28" viewBox="0 0 28 28" fill="none" xmlns="http://www.w3.org/2000/svg">
<path opacity="0.1" d="M0 4C0 1.79086 1.79086 0 4 0H24C26.2091 0 28 1.79086 28 4V24C28 26.2091 26.2091 28 24 28H4C1.79086 28 0 26.2091 0 24V4Z" fill="#8D2ED1"/>
<g clip-path="url(#clip0_102_1499)">
<path d="M8.3125 10.9375C8.3125 15.7698 12.2302 19.6875 17.0625 19.6875H18.375C18.7231 19.6875 19.0569 19.5492 19.3031 19.3031C19.5492 19.0569 19.6875 18.7231 19.6875 18.375V17.5747C19.6875 17.2737 19.4828 17.0112 19.1905 16.9383L16.6104 16.2931C16.3537 16.2289 16.0842 16.3252 15.9262 16.5363L15.3603 17.2906C15.1958 17.5099 14.9117 17.6067 14.6545 17.5122C13.6995 17.1612 12.8323 16.6067 12.1128 15.8872C11.3933 15.1677 10.8388 14.3005 10.4877 13.3455C10.3932 13.0882 10.4901 12.8042 10.7094 12.6397L11.4637 12.0738C11.6754 11.9157 11.7711 11.6457 11.7069 11.3896L11.0617 8.8095C11.0262 8.66757 10.9443 8.54158 10.829 8.45153C10.7137 8.36148 10.5716 8.31255 10.4253 8.3125H9.625C9.2769 8.3125 8.94306 8.45078 8.69692 8.69692C8.45078 8.94306 8.3125 9.2769 8.3125 9.625V10.9375Z" stroke="#7A23A5" stroke-linecap="round" stroke-linejoin="round"/>
</g>
<defs>
<clipPath id="clip0_102_1499">
<rect width="14" height="14" fill="white" transform="translate(7 7)"/>
</clipPath>
</defs>
</svg>
