<svg width="28" height="28" viewBox="0 0 28 28" fill="none" xmlns="http://www.w3.org/2000/svg">
<path d="M10.0333 19.8335H23.6939C24.1391 19.8335 24.5 20.3297 24.5 20.9418V21.0585C24.5 21.6706 24.1391 22.1668 23.6939 22.1668H10.0333C9.58816 22.1668 9.22727 21.6706 9.22727 21.0585V20.9418C9.22727 20.3297 9.58816 19.8335 10.0333 19.8335Z" fill="#8D2ED1"/>
<path d="M10.0333 5.83337H23.6939C24.1391 5.83337 24.5 6.32959 24.5 6.94171V7.05837C24.5 7.67049 24.1391 8.16671 23.6939 8.16671H10.0333C9.58816 8.16671 9.22727 7.67049 9.22727 7.05837V6.94171C9.22727 6.32959 9.58816 5.83337 10.0333 5.83337Z" fill="#8D2ED1"/>
<path d="M4.60834 12.8335H23.3917C24.0038 12.8335 24.5 13.3297 24.5 13.9418V14.0585C24.5 14.6706 24.0038 15.1668 23.3917 15.1668H4.60834C3.99622 15.1668 3.5 14.6706 3.5 14.0585V13.9418C3.5 13.3297 3.99622 12.8335 4.60834 12.8335Z" fill="#8D2ED1"/>
</svg>
