<svg width="28" height="28" viewBox="0 0 28 28" fill="none" xmlns="http://www.w3.org/2000/svg">
<path opacity="0.1" d="M0 4C0 1.79086 1.79086 0 4 0H24C26.2091 0 28 1.79086 28 4V24C28 26.2091 26.2091 28 24 28H4C1.79086 28 0 26.2091 0 24V4Z" fill="#8D2ED1"/>
<path d="M19.6875 10.9375V17.0625C19.6875 17.4106 19.5492 17.7444 19.3031 17.9906C19.0569 18.2367 18.7231 18.375 18.375 18.375H9.625C9.2769 18.375 8.94306 18.2367 8.69692 17.9906C8.45078 17.7444 8.3125 17.4106 8.3125 17.0625V10.9375M19.6875 10.9375C19.6875 10.5894 19.5492 10.2556 19.3031 10.0094C19.0569 9.76328 18.7231 9.625 18.375 9.625H9.625C9.2769 9.625 8.94306 9.76328 8.69692 10.0094C8.45078 10.2556 8.3125 10.5894 8.3125 10.9375M19.6875 10.9375V11.0792C19.6875 11.3033 19.6302 11.5237 19.5209 11.7193C19.4117 11.915 19.2541 12.0794 19.0633 12.1969L14.6883 14.889C14.4814 15.0165 14.2431 15.084 14 15.084C13.7569 15.084 13.5186 15.0165 13.3117 14.889L8.93667 12.1975C8.74587 12.08 8.58834 11.9156 8.47908 11.7199C8.36982 11.5243 8.31248 11.3039 8.3125 11.0798V10.9375" stroke="#7A23A5" stroke-linecap="round" stroke-linejoin="round"/>
</svg>
