<svg width="178" height="393" viewBox="0 0 178 393" fill="none" xmlns="http://www.w3.org/2000/svg">
<path d="M193.125 82.7173L220.426 111.749L196.286 123.247H195.999L173.871 111.174L159.79 124.397H159.503L135.651 101.976L125.305 115.773L124.73 115.486L135.651 101.114L135.938 101.401L159.79 123.534L173.584 110.312H173.871L196.286 122.672L219.563 111.462L192.838 83.0047L193.125 82.7173Z" fill="#8A4BD3"/>
<path d="M111.513 51.9609L111.8 53.3982L119.272 95.9398L135.939 101.401L135.652 101.976L118.697 96.2272L111.225 54.8354L106.34 73.5192H106.053L79.9016 68.3452L58.9234 72.082L37.3704 82.4299L25.5882 89.9035L25.3008 89.616L37.0831 82.1425L58.636 71.5071L80.189 67.7703L106.053 72.9443L111.513 51.9609Z" fill="#8A4BD3"/>
<path d="M36.221 83.5796L41.9684 93.9276L41.681 94.5024L35.9336 83.867L36.221 83.5796Z" fill="#8A4BD3"/>
<path d="M48.5749 38.4512V38.7386L58.9203 71.7946L58.3456 72.082L48.2875 39.0261L31.0452 46.2121L30.7578 45.3498L48.5749 38.4512Z" fill="#8A4BD3"/>
<path d="M163.523 68.3452H164.098L162.086 90.4783L173.869 110.312L197.721 101.114L198.008 101.689L173.581 110.887H173.294L161.512 90.7658L163.523 68.3452Z" fill="#8A4BD3"/>
<path d="M87.6597 19.4797L88.2345 19.7672L81.6249 40.4631L80.4754 68.0576L92.5451 90.7657L91.9703 91.0531L79.9007 68.3451H79.6133L81.0501 40.1756L87.6597 19.4797Z" fill="#8A4BD3"/>
<path d="M112.087 94.5023C112.661 90.1907 116.397 87.0288 120.421 87.6037C124.731 87.8911 127.892 91.6279 127.605 95.9395C127.03 100.251 123.294 103.413 118.984 103.126C114.673 102.551 111.512 98.814 111.799 94.5023H112.087Z" fill="#8A4BD3"/>
<path d="M106.052 54.2604C106.339 51.0985 109.213 48.5115 112.374 48.799C115.822 48.799 118.121 51.9608 117.834 55.1227C117.546 58.2846 114.673 60.8716 111.512 60.5841C108.063 60.2967 105.764 57.4223 106.052 53.9729V54.2604Z" fill="#8A4BD3"/>
<path d="M101.453 73.5192C101.453 70.9322 103.752 69.2075 106.339 69.2075C108.638 69.2075 110.649 71.7945 110.362 74.0941C110.362 76.681 108.063 78.4057 105.476 78.1183C103.177 78.1183 101.166 75.8187 101.453 73.5192Z" fill="#8A4BD3"/>
<path d="M83.9241 88.7537C84.2115 85.017 87.6599 82.1425 91.3958 82.43C95.1316 82.7174 98.0053 86.1667 97.718 90.1909C97.4306 93.9277 93.9821 96.8021 90.2463 96.2273C86.2231 95.9398 83.6367 92.4905 83.9241 88.7537Z" fill="#8A4BD3"/>
<path d="M75.5898 67.4827C75.5898 65.1832 77.8888 63.4585 80.1878 63.7459C82.7742 63.7459 84.4984 66.0455 84.211 68.345C84.211 70.6446 81.912 72.3692 79.6131 72.3692C77.3141 72.0818 75.5898 70.0697 75.8772 67.7702L75.5898 67.4827Z" fill="#8A4BD3"/>
<path d="M75.0145 41.6129C75.3018 37.8761 78.7503 35.0017 82.4862 35.2891C86.222 35.5766 89.0957 39.0259 88.521 42.7626C88.2336 46.4994 84.7851 49.3738 81.0493 49.0864C77.3134 48.7989 74.4397 45.3496 74.7271 41.6129H75.0145Z" fill="#8A4BD3"/>
<path d="M81.9102 20.0546C82.1975 17.1802 84.4965 15.1681 87.3702 15.4555C89.9566 15.4555 92.2556 18.0425 91.9682 20.917C91.9682 23.5039 89.3818 25.8035 86.5081 25.516C83.6344 25.2286 81.9102 22.6416 81.9102 20.0546Z" fill="#8A4BD3"/>
<path d="M43.1171 37.8762C43.1171 35.0017 45.9909 32.9896 48.5772 33.2771C51.451 33.5645 53.4626 36.1515 53.1752 38.7385C52.8878 41.6129 50.5888 43.625 47.7151 43.0501C44.8414 43.0501 42.8298 40.4632 43.1171 37.5887V37.8762Z" fill="#8A4BD3"/>
<path d="M27.3125 45.3497C27.3125 43.3376 29.0367 41.6129 31.3357 41.9004C33.3473 41.9004 34.7842 43.9125 34.7842 45.9246C34.7842 47.9367 32.7726 49.3739 30.761 49.3739C28.7494 49.3739 27.3125 47.3618 27.5999 45.3497H27.3125Z" fill="#8A4BD3"/>
<path d="M51.7386 71.7943C52.0259 68.0575 55.4744 65.1831 59.4976 65.4705C63.5208 65.7579 66.1072 69.2073 65.8198 73.2315C65.8198 76.9682 62.084 79.8427 58.0608 79.5552C54.3249 79.2678 51.4512 75.8185 51.7386 71.7943Z" fill="#8A4BD3"/>
<path d="M30.7578 81.5676C31.0452 78.9806 33.3442 76.9685 36.2179 77.2559C38.8042 77.2559 40.8159 79.8429 40.5285 82.4299C40.2411 85.0169 37.9421 87.029 35.3558 86.7415C32.7694 86.7415 30.7578 84.1545 31.0452 81.5676H30.7578Z" fill="#8A4BD3"/>
<path d="M39.3811 93.6401C39.3811 93.6401 40.5306 91.3406 41.9675 91.3406C43.4043 91.3406 44.2665 92.7778 43.9791 94.215C43.9791 95.3648 42.8296 96.5146 41.3927 96.2271C39.9559 96.2271 39.0938 95.0773 39.0938 93.6401H39.3811Z" fill="#8A4BD3"/>
<path d="M23 90.7657C23 90.7657 24.4369 88.4662 25.8737 88.7536C27.0232 88.7536 28.1727 89.9034 28.1727 91.0532C28.1727 92.4904 26.7358 93.3527 25.5864 93.3527C24.1495 93.3527 23.2874 92.2029 23.2874 90.7657H23Z" fill="#8A4BD3"/>
<path d="M159.791 68.6327C159.791 66.3332 162.09 64.3211 164.677 64.6085C167.263 64.6085 168.987 67.1955 168.7 69.7825C168.7 72.3695 166.401 74.3816 163.527 74.0941C160.941 73.8067 159.217 71.5072 159.504 68.9202L159.791 68.6327Z" fill="#8A4BD3"/>
<path d="M121.281 116.061C121.281 114.049 123.293 112.324 125.305 112.611C127.316 112.611 129.04 114.623 128.753 116.635C128.753 118.935 126.742 120.372 124.73 120.085C122.718 120.085 121.281 118.36 121.281 116.348V116.061Z" fill="#8A4BD3"/>
<path d="M129.902 102.263C129.902 99.6764 132.489 97.6643 135.075 97.9517C137.661 97.9517 139.673 100.539 139.386 103.126C139.386 105.713 136.799 107.725 134.213 107.437C131.627 107.437 129.615 104.85 129.902 102.263Z" fill="#8A4BD3"/>
<path d="M168.984 110.887C169.272 108.3 171.571 106.288 174.157 106.575C176.743 106.575 178.468 109.162 178.18 111.749C178.18 114.049 175.881 116.348 173.295 116.061C170.709 116.061 168.697 113.761 168.984 111.174V110.887Z" fill="#8A4BD3"/>
<path d="M152.605 123.247C153.18 119.51 156.341 116.636 160.077 116.923C163.813 117.498 166.687 120.66 166.399 124.397C166.112 128.421 162.664 131.008 158.928 130.72C155.192 130.433 152.605 126.984 152.605 123.247Z" fill="#8A4BD3"/>
<path d="M154.905 90.1907C155.192 86.454 158.353 84.1544 162.089 84.4419C165.825 84.7293 168.411 87.8912 168.124 91.628C168.124 95.3647 164.675 97.9517 160.939 97.6643C157.204 97.3768 154.617 94.215 154.905 90.4782V90.1907Z" fill="#8A4BD3"/>
<path d="M193.125 302.717L220.426 331.749L196.286 343.247H195.999L173.871 331.174L159.79 344.397H159.503L135.651 321.976L125.305 335.773L124.73 335.486L135.651 321.114L135.938 321.401L159.79 343.534L173.584 330.312H173.871L196.286 342.672L219.563 331.462L192.838 303.005L193.125 302.717Z" fill="#8A4BD3"/>
<path d="M111.513 271.961L111.8 273.398L119.272 315.94L135.939 321.401L135.652 321.976L118.697 316.227L111.225 274.835L106.34 293.519H106.053L79.9016 288.345L58.9234 292.082L37.3704 302.43L25.5882 309.903L25.3008 309.616L37.0831 302.142L58.636 291.507L80.189 287.77L106.053 292.944L111.513 271.961Z" fill="#8A4BD3"/>
<path d="M36.221 303.58L41.9684 313.928L41.681 314.502L35.9336 303.867L36.221 303.58Z" fill="#8A4BD3"/>
<path d="M48.5749 258.451V258.739L58.9203 291.795L58.3456 292.082L48.2875 259.026L31.0452 266.212L30.7578 265.35L48.5749 258.451Z" fill="#8A4BD3"/>
<path d="M163.523 288.345H164.098L162.086 310.478L173.869 330.312L197.721 321.114L198.008 321.689L173.581 330.887H173.294L161.512 310.766L163.523 288.345Z" fill="#8A4BD3"/>
<path d="M87.6597 239.48L88.2345 239.767L81.6249 260.463L80.4754 288.058L92.5451 310.766L91.9703 311.053L79.9007 288.345H79.6133L81.0501 260.176L87.6597 239.48Z" fill="#8A4BD3"/>
<path d="M112.087 314.502C112.661 310.191 116.397 307.029 120.421 307.604C124.731 307.891 127.892 311.628 127.605 315.94C127.03 320.251 123.294 323.413 118.984 323.126C114.673 322.551 111.512 318.814 111.799 314.502H112.087Z" fill="#8A4BD3"/>
<path d="M106.052 274.26C106.339 271.099 109.213 268.512 112.374 268.799C115.822 268.799 118.121 271.961 117.834 275.123C117.546 278.285 114.673 280.872 111.512 280.584C108.063 280.297 105.764 277.422 106.052 273.973V274.26Z" fill="#8A4BD3"/>
<path d="M101.453 293.519C101.453 290.932 103.752 289.208 106.339 289.208C108.638 289.208 110.649 291.795 110.362 294.094C110.362 296.681 108.063 298.406 105.476 298.118C103.177 298.118 101.166 295.819 101.453 293.519Z" fill="#8A4BD3"/>
<path d="M83.9241 308.754C84.2115 305.017 87.6599 302.143 91.3958 302.43C95.1316 302.717 98.0053 306.167 97.718 310.191C97.4306 313.928 93.9821 316.802 90.2463 316.227C86.2231 315.94 83.6367 312.49 83.9241 308.754Z" fill="#8A4BD3"/>
<path d="M75.5898 287.483C75.5898 285.183 77.8888 283.458 80.1878 283.746C82.7742 283.746 84.4984 286.045 84.211 288.345C84.211 290.645 81.912 292.369 79.6131 292.369C77.3141 292.082 75.5898 290.07 75.8772 287.77L75.5898 287.483Z" fill="#8A4BD3"/>
<path d="M75.0145 261.613C75.3018 257.876 78.7503 255.002 82.4862 255.289C86.222 255.577 89.0957 259.026 88.521 262.763C88.2336 266.499 84.7851 269.374 81.0493 269.086C77.3134 268.799 74.4397 265.35 74.7271 261.613H75.0145Z" fill="#8A4BD3"/>
<path d="M81.9102 240.055C82.1975 237.18 84.4965 235.168 87.3702 235.456C89.9566 235.456 92.2556 238.043 91.9682 240.917C91.9682 243.504 89.3818 245.803 86.5081 245.516C83.6344 245.229 81.9102 242.642 81.9102 240.055Z" fill="#8A4BD3"/>
<path d="M43.1171 257.876C43.1171 255.002 45.9909 252.99 48.5772 253.277C51.451 253.565 53.4626 256.151 53.1752 258.738C52.8878 261.613 50.5888 263.625 47.7151 263.05C44.8414 263.05 42.8298 260.463 43.1171 257.589V257.876Z" fill="#8A4BD3"/>
<path d="M27.3125 265.35C27.3125 263.338 29.0367 261.613 31.3357 261.9C33.3473 261.9 34.7842 263.912 34.7842 265.925C34.7842 267.937 32.7726 269.374 30.761 269.374C28.7494 269.374 27.3125 267.362 27.5999 265.35H27.3125Z" fill="#8A4BD3"/>
<path d="M51.7386 291.794C52.0259 288.058 55.4744 285.183 59.4976 285.471C63.5208 285.758 66.1072 289.207 65.8198 293.231C65.8198 296.968 62.084 299.843 58.0608 299.555C54.3249 299.268 51.4512 295.818 51.7386 291.794Z" fill="#8A4BD3"/>
<path d="M30.7578 301.568C31.0452 298.981 33.3442 296.968 36.2179 297.256C38.8042 297.256 40.8159 299.843 40.5285 302.43C40.2411 305.017 37.9421 307.029 35.3558 306.742C32.7694 306.742 30.7578 304.155 31.0452 301.568H30.7578Z" fill="#8A4BD3"/>
<path d="M39.3811 313.64C39.3811 313.64 40.5306 311.341 41.9675 311.341C43.4043 311.341 44.2665 312.778 43.9791 314.215C43.9791 315.365 42.8296 316.515 41.3927 316.227C39.9559 316.227 39.0938 315.077 39.0938 313.64H39.3811Z" fill="#8A4BD3"/>
<path d="M23 310.766C23 310.766 24.4369 308.466 25.8737 308.754C27.0232 308.754 28.1727 309.903 28.1727 311.053C28.1727 312.49 26.7358 313.353 25.5864 313.353C24.1495 313.353 23.2874 312.203 23.2874 310.766H23Z" fill="#8A4BD3"/>
<path d="M159.791 288.633C159.791 286.333 162.09 284.321 164.677 284.609C167.263 284.609 168.987 287.195 168.7 289.782C168.7 292.369 166.401 294.382 163.527 294.094C160.941 293.807 159.217 291.507 159.504 288.92L159.791 288.633Z" fill="#8A4BD3"/>
<path d="M121.281 336.061C121.281 334.049 123.293 332.324 125.305 332.611C127.316 332.611 129.04 334.623 128.753 336.635C128.753 338.935 126.742 340.372 124.73 340.085C122.718 340.085 121.281 338.36 121.281 336.348V336.061Z" fill="#8A4BD3"/>
<path d="M129.902 322.263C129.902 319.676 132.489 317.664 135.075 317.952C137.661 317.952 139.673 320.539 139.386 323.126C139.386 325.713 136.799 327.725 134.213 327.437C131.627 327.437 129.615 324.85 129.902 322.263Z" fill="#8A4BD3"/>
<path d="M168.984 330.887C169.272 328.3 171.571 326.288 174.157 326.575C176.743 326.575 178.468 329.162 178.18 331.749C178.18 334.049 175.881 336.348 173.295 336.061C170.709 336.061 168.697 333.761 168.984 331.174V330.887Z" fill="#8A4BD3"/>
<path d="M152.605 343.247C153.18 339.51 156.341 336.636 160.077 336.923C163.813 337.498 166.687 340.66 166.399 344.397C166.112 348.421 162.664 351.008 158.928 350.72C155.192 350.433 152.605 346.984 152.605 343.247Z" fill="#8A4BD3"/>
<path d="M154.905 310.191C155.192 306.454 158.353 304.154 162.089 304.442C165.825 304.729 168.411 307.891 168.124 311.628C168.124 315.365 164.675 317.952 160.939 317.664C157.204 317.377 154.617 314.215 154.905 310.478V310.191Z" fill="#8A4BD3"/>
<path d="M2.76994 208.958L2.19519 209.532L15.9891 218.443L4.49417 231.666L4.78154 232.24L17.1386 218.156L2.76994 208.958Z" fill="#7A23A5"/>
<path d="M34.6692 189.124L34.3818 189.699L16.2773 218.156L16.8521 218.443L34.9566 189.986L74.0392 211.257L63.4065 232.528L63.6938 232.815L74.9014 210.97H74.614L34.6692 189.124Z" fill="#7A23A5"/>
<path d="M106.8 188.262L74.0391 211.257L95.592 227.354H95.8794L120.019 220.168L130.939 235.977H131.226L159.101 219.018L166.286 234.54L166.86 234.253L159.389 218.156L159.101 218.443L131.226 235.115L120.306 219.306H120.019L95.592 226.779L75.1886 211.257L107.087 188.837L106.8 188.262Z" fill="#7A23A5"/>
<path d="M193.012 175.039L192.724 176.189L176.344 216.431L159.102 218.443V219.018L176.919 216.719L192.724 177.914L193.586 197.172L193.874 196.885L220.312 197.46L240.428 205.508L259.395 219.88L269.453 229.654L269.74 229.079L259.682 219.593L240.715 204.933L220.599 196.885H220.312L194.161 196.598L193.012 175.039Z" fill="#7A23A5"/>
<path d="M138.697 180.213H138.122L135.536 202.347L120.018 219.306L98.7524 205.508L98.465 205.796L120.018 220.168L120.305 219.881L136.111 202.634L138.697 180.213Z" fill="#7A23A5"/>
<path d="M17.1389 146.008L16.8516 146.582L44.152 165.841L77.7746 170.44H78.0619L104.213 163.254V162.679L77.7746 169.865L44.4393 165.266L17.1389 146.008Z" fill="#7A23A5"/>
<path d="M41.5669 130.486H40.9922L41.5669 166.129H42.1417L41.5669 130.486Z" fill="#7A23A5"/>
<path d="M7.65592 232.24C7.94329 230.803 6.50643 229.079 5.06957 229.079C3.34533 229.079 1.90847 230.228 1.62109 231.666C1.62109 233.39 2.48321 234.827 4.20745 235.115C5.93168 235.115 7.36855 233.965 7.65592 232.24Z" fill="#7A23A5"/>
<path d="M6.21842 210.107C6.21842 208.67 5.3563 206.946 3.63207 206.946C1.90783 206.946 0.470966 207.808 0.183594 209.533C0.183594 211.257 1.33308 212.694 2.76995 212.982C4.49418 212.982 5.93105 212.12 5.93105 210.395L6.21842 210.107Z" fill="#7A23A5"/>
<path d="M22.3107 220.168C22.598 217.293 20.2991 214.419 17.4253 214.132C14.5516 214.132 11.6779 216.144 11.3905 219.018C11.1031 221.893 13.1147 224.48 16.2758 225.054C19.1496 225.054 21.7359 223.33 22.3107 220.168Z" fill="#7A23A5"/>
<path d="M43.5753 192.573C44.15 187.399 40.7016 183.088 35.2415 182.513C30.3562 181.938 25.4708 185.675 25.1834 190.561C24.6087 195.735 28.3445 200.334 33.2299 200.909C38.4026 201.484 43.0006 197.747 43.5753 192.573Z" fill="#7A23A5"/>
<path d="M27.1947 148.307C27.7694 143.133 24.0336 138.534 18.8609 137.959C13.6882 137.384 9.09022 141.121 8.51548 146.008C7.94073 151.181 11.6766 155.781 16.5619 156.355C21.7346 156.93 26.3326 153.194 26.9073 148.02L27.1947 148.307Z" fill="#7A23A5"/>
<path d="M48.4626 166.129C48.7499 163.254 46.7383 160.667 43.8646 160.38C40.9909 160.38 38.4045 162.105 38.1171 164.979C37.8298 167.853 39.8414 170.44 42.7151 170.728C45.5888 171.015 48.1752 169.003 48.4626 166.129Z" fill="#7A23A5"/>
<path d="M46.4515 131.923C47.0263 128.474 44.4399 125.599 40.9915 125.024C37.543 124.737 34.6693 127.036 34.0945 130.486C33.8071 133.935 36.1061 136.809 39.5546 137.384C42.7157 137.959 45.8768 135.372 46.1642 131.923H46.4515Z" fill="#7A23A5"/>
<path d="M183.527 216.431C184.102 212.119 180.941 208.383 176.63 207.808C172.32 207.233 168.584 210.395 168.009 214.706C167.434 219.018 170.595 223.042 174.906 223.33C179.216 223.905 183.24 220.743 183.527 216.431Z" fill="#7A23A5"/>
<path d="M111.398 165.554C111.973 162.104 109.387 158.655 105.651 158.368C102.203 158.08 98.754 160.667 98.4667 164.116C97.8919 167.566 100.478 171.015 104.214 171.302C107.95 171.877 111.111 169.003 111.398 165.554Z" fill="#7A23A5"/>
<path d="M112.834 191.136C113.121 188.262 111.11 185.387 107.949 184.812C104.788 184.525 102.201 186.825 101.914 189.699C101.627 192.861 103.638 195.448 106.799 196.023C109.96 196.31 112.547 194.011 112.834 191.136Z" fill="#7A23A5"/>
<path d="M103.063 207.233C103.063 204.646 101.626 202.347 99.0398 202.059C96.4534 202.059 94.1544 203.496 93.8671 206.083C93.8671 208.67 95.3039 210.97 97.8903 211.257C100.189 211.257 102.776 209.82 103.063 207.233Z" fill="#7A23A5"/>
<path d="M142.434 181.363C142.434 178.776 140.71 176.476 138.411 176.189C135.825 176.189 133.526 177.626 133.238 180.213C133.238 182.8 134.675 185.1 137.261 185.387C139.56 185.387 142.147 183.662 142.434 181.076V181.363Z" fill="#7A23A5"/>
<path d="M170.309 235.69C170.597 233.678 169.16 231.666 167.148 231.378C165.137 231.378 163.125 232.528 163.125 234.827C163.125 236.84 164.274 238.564 166.573 238.852C168.585 238.852 170.309 237.702 170.597 235.69H170.309Z" fill="#7A23A5"/>
<path d="M164.56 220.168C164.847 217.581 162.835 214.994 160.249 214.707C157.663 214.707 155.364 216.431 154.789 219.018C154.502 221.605 156.226 223.905 159.1 224.192C161.686 224.48 164.272 222.755 164.56 219.881V220.168Z" fill="#7A23A5"/>
<path d="M124.616 220.743C125.19 218.156 123.179 215.856 120.88 215.569C118.006 215.281 115.994 217.006 115.707 219.593C115.42 222.18 117.144 224.48 119.73 224.767C122.317 224.767 124.616 223.33 124.616 220.743Z" fill="#7A23A5"/>
<path d="M68.0045 233.103C68.0045 230.516 66.5677 228.216 63.9813 227.929C61.3949 227.641 59.096 229.366 58.8086 231.953C58.8086 234.54 60.5328 236.84 62.8318 237.127C65.4182 237.415 67.7171 235.69 68.0045 233.103Z" fill="#7A23A5"/>
<path d="M102.489 229.366C102.777 225.629 100.19 222.18 96.4544 221.605C92.7186 221.03 89.2701 223.905 88.9827 227.641C88.6953 231.378 91.2817 234.828 95.0175 235.115C98.7534 235.69 102.202 232.815 102.489 229.079V229.366Z" fill="#7A23A5"/>
<path d="M81.7972 212.982C82.3719 209.245 79.4982 205.796 75.7624 205.508C72.0265 205.221 68.578 207.808 68.2907 211.545C67.7159 215.281 70.3023 218.731 74.3255 219.306C78.0613 219.881 81.5098 217.006 81.7972 213.269V212.982Z" fill="#7A23A5"/>
<path d="M138.121 236.552C138.409 232.816 135.822 229.366 132.086 228.791C128.351 228.504 124.902 231.091 124.327 234.828C123.753 238.564 126.626 242.014 130.362 242.589C134.098 242.876 137.546 240.289 138.121 236.552Z" fill="#7A23A5"/>
<path d="M142.432 203.496C142.72 200.047 140.421 196.598 136.685 196.31C132.949 196.023 129.788 198.61 129.501 202.059C129.213 205.508 131.512 208.67 135.248 209.245C138.697 209.82 142.145 207.233 142.432 203.496Z" fill="#7A23A5"/>
<path d="M85.5323 171.878C86.107 166.991 82.6586 162.679 77.7732 162.105C72.8879 161.53 68.5773 164.979 68.2899 169.866C67.7152 174.752 70.8763 179.064 75.7616 179.639C80.6469 180.213 84.9575 176.764 85.5323 171.878Z" fill="#7A23A5"/>
</svg>
