<svg width="70" height="70" viewBox="0 0 70 70" fill="none" xmlns="http://www.w3.org/2000/svg">
<path d="M17.3986 32.4378C18.1674 32.5836 18.8518 32.6242 19.4702 32.853C20.2445 33.1408 20.595 33.8752 20.6757 34.6465C20.7638 35.4677 20.7785 36.3165 20.6721 37.1321C20.4886 38.5382 19.3418 39.3556 18.0995 39.208C17.8977 39.184 17.6904 39.2043 17.4427 39.2043C17.4427 41.4038 17.4427 43.583 17.4427 45.6866C18.2335 45.2216 19.0317 44.5776 19.9418 44.2602C20.9785 43.9004 22.118 43.6587 23.2061 43.6827C24.34 43.7085 25.1951 43.3469 26.0208 42.666C26.6777 42.1253 27.3731 41.6326 28.0594 41.1289C28.6172 40.7211 28.5529 39.7449 27.9676 39.3685C25.6098 37.8554 23.8574 35.8072 22.7767 33.2109C22.1161 31.624 21.7014 29.9707 21.8207 28.1199C20.228 28.3358 18.9931 27.7011 18.0573 26.4832C17.4023 25.6325 17.2555 24.601 17.4206 23.5843C17.661 22.0952 18.9179 20.3699 21.5748 20.3533C21.4482 19.4362 21.3106 18.5339 21.2005 17.6279C20.9326 15.4265 20.3216 13.2528 21.0996 11.009C22.2226 7.7706 24.4538 5.66518 27.7199 5.08762C29.9309 4.69643 31.8062 3.65387 33.8246 2.89548C35.5494 2.24595 37.2283 1.83077 39.1017 2.06696C40.9807 2.30315 42.6174 2.94714 44.1055 4.09673C45.9037 5.4862 47.0432 7.28899 47.5331 9.4959C47.7037 10.2617 47.7845 11.0588 47.8175 11.8449C47.8927 13.6791 47.9001 15.5151 47.9643 17.3492C47.9991 18.3291 48.0946 19.3071 48.168 20.3515C49.4506 20.3478 50.7019 20.6448 51.6341 21.6708C52.3038 22.4089 52.6818 23.3463 52.6121 24.3261C52.4745 26.295 51.2396 28.1255 48.179 28.1697C48.1239 31.2015 47.2212 33.962 45.3367 36.3718C44.3184 37.6746 43.0633 38.6876 41.7183 39.518C41.2412 40.6528 41.9587 41.2267 42.7403 41.7766C43.3807 42.2268 44.0596 42.6401 44.6358 43.1642C45.0725 43.5609 45.5294 43.6015 46.0615 43.6476C47.4982 43.7731 48.9294 43.9687 50.4139 44.144C50.4157 44.1071 50.4267 43.8967 50.4396 43.6329C50.0542 43.6329 49.7148 43.6347 49.3735 43.6329C48.0542 43.6273 47.1423 42.7066 47.1349 41.3724C47.1312 40.6343 47.1312 39.8963 47.1349 39.1582C47.1423 37.9809 48.0854 37.0158 49.256 36.99C49.6212 36.9826 49.9863 36.9882 50.368 36.9882C50.5662 36.3073 50.4341 35.9161 49.7313 35.5729C48.3606 34.9067 48.0707 33.7996 48.2505 32.4452C48.3955 31.3509 49.6304 30.36 50.823 30.3508C54.1497 30.325 57.4764 30.2881 60.8012 30.3619C62.4985 30.4006 63.4343 31.4118 63.6398 33.0393C63.7811 34.1557 62.7994 35.3643 61.4618 35.8072C61.4618 36.5379 61.4618 37.2723 61.4618 38.0178C61.9517 38.0879 62.4416 38.1211 62.9132 38.2318C64.1425 38.5215 64.7334 39.2412 64.7462 40.4904C64.7646 42.5903 64.7719 44.6902 64.7444 46.7901C64.7242 48.2884 63.8655 49.0339 61.97 49.2221C62.526 50.5747 63.0801 51.9014 63.6214 53.2337C65.0123 56.6566 66.4637 60.0574 67.761 63.5153C68.6509 65.8883 66.9352 67.9937 64.6104 67.9937C45.7074 68.003 26.8043 67.9993 7.90303 67.9993C6.76723 67.9993 6.44429 67.7741 6.27181 66.6393C6.04429 65.1465 5.91584 63.639 5.7085 62.1425C5.49932 60.6294 5.23143 59.1237 5.02225 57.6106C4.81491 56.1141 4.66995 54.6084 4.46261 53.1119C4.20939 51.2869 3.90113 49.4712 3.64792 47.6463C3.44057 46.1516 3.29745 44.6477 3.09194 43.1531C2.88827 41.6621 2.62037 40.1804 2.42037 38.6895C2.24789 37.3904 2.07908 36.0877 2.00385 34.7831C1.93045 33.5191 2.91579 32.5633 4.18921 32.5559C5.63144 32.5485 7.07366 32.554 8.59296 32.554C8.59296 31.172 8.59112 29.8194 8.59296 28.4668C8.59479 27.3136 8.89204 27.0165 10.048 27.0146C11.9985 27.0128 13.9472 27.0128 15.8977 27.0146C16.9858 27.0165 17.4004 27.4427 17.4004 28.5628C17.3986 29.8803 17.3986 31.1904 17.3986 32.4378ZM15.0353 47.375C15.1123 46.1535 15.1876 44.9319 15.2665 43.679C13.6976 43.679 12.2701 43.679 10.8168 43.679C10.8168 44.9375 10.8168 46.1535 10.8168 47.3695C11.1123 47.8345 11.3361 48.3733 11.7196 48.7442C12.3105 49.3162 13.0903 49.3402 13.8059 48.9988C14.4646 48.687 15.072 48.257 15.0353 47.375ZM33.3659 41.4444C32.4723 41.2045 31.5768 40.9628 30.6117 40.7026C30.6117 41.3411 30.619 41.9334 30.6099 42.5239C30.6025 42.9612 30.6282 43.3432 30.975 43.703C31.4906 44.2363 31.9218 44.8507 32.3952 45.4264C33.2374 46.4506 34.0851 47.4691 34.9842 48.556C35.8521 47.4876 36.676 46.469 37.5017 45.4523C38.788 44.1551 39.9935 42.8283 39.2834 40.7155C39.1403 40.7543 38.9329 40.8152 38.7219 40.8632C38.0926 41.0052 37.4669 41.2101 36.8301 41.2691C35.6797 41.3743 34.5219 41.3909 33.3659 41.4444ZM43.7092 6.80185C43.5954 6.63393 43.511 6.43649 43.366 6.30364C41.3128 4.44179 38.9128 3.71107 36.2338 4.42518C34.8118 4.80346 33.4815 5.52679 32.0961 6.05822C31.0172 6.4734 29.9401 7.04173 28.8208 7.1709C27.0447 7.37388 25.6648 8.11382 24.5272 9.42947C23.1583 10.9924 22.6299 12.7749 23.118 14.825C23.2868 14.3286 23.3492 13.7972 23.5382 13.3156C25.0593 9.46084 29.1805 8.36661 32.3732 10.2894C34.1145 11.3393 35.665 11.3208 37.3659 10.2322C39.5238 8.85191 41.7513 9.04751 43.8688 10.3761C44.5073 10.7765 45.0064 11.4039 45.5532 11.9132C45.8028 10.2082 44.9404 7.7909 43.7092 6.80185ZM57.592 65.7647C59.926 65.7721 62.2599 65.7942 64.5939 65.7813C65.5517 65.7758 66.0472 64.9768 65.6839 64.0818C65.0985 62.637 64.4802 61.2051 63.9205 59.7492C63.7297 59.2547 63.5132 59.2362 63.0636 59.4097C60.704 60.3138 58.414 60.1385 56.2507 58.8118C54.9754 58.0294 53.6469 57.4242 52.1258 57.6346C51.001 57.7896 49.8964 58.0995 48.7826 58.3394C48.6579 58.4059 48.4597 58.4409 48.4175 58.5406C47.6267 60.4485 46.8322 62.3565 46.0927 64.2848C45.7991 65.0469 46.3037 65.7721 47.0909 65.7739C50.59 65.7887 54.091 65.7721 57.592 65.7647ZM36.1347 54.0253C36.1347 57.9372 36.1347 61.8472 36.1347 65.7647C38.7825 65.7647 41.366 65.7647 43.9238 65.7647C43.8908 65.4528 43.8633 65.1631 43.8284 64.8753C43.7165 63.925 44.1679 63.1278 44.5073 62.2975C45.5019 59.8728 46.4817 57.4408 47.4744 55.0143C48.4432 52.645 49.434 50.285 50.3717 47.9028C50.4983 47.5817 50.6634 47.1093 50.1496 46.8196C49.0395 46.1941 47.8909 45.7549 46.5881 45.8767C46.3386 45.8767 46.0909 45.8767 45.8028 45.8767C45.6982 46.3657 45.6138 46.8694 45.4853 47.3602C44.8028 49.9768 44.1385 52.6026 42.7293 54.9534C42.1458 55.9277 41.555 56.0569 40.6137 55.424C39.1421 54.4331 37.6687 53.4422 36.1347 52.4107C36.1347 52.9882 36.1347 53.5067 36.1347 54.0253ZM33.9017 53.8869C33.9017 53.4145 33.9017 52.9403 33.9017 52.3535C33.4246 52.6579 33.0282 52.8997 32.6429 53.1598C31.4906 53.9367 30.3493 54.7301 29.1915 55.4959C28.3639 56.044 27.8924 55.9296 27.3437 55.0973C27.2575 54.9663 27.1603 54.8409 27.085 54.7025C25.6758 52.1081 24.8923 49.2959 24.2923 46.4266C24.2042 46.0022 24.0593 45.7512 23.5859 45.8767C23.0024 45.9154 22.417 45.932 21.8354 45.9948C19.5308 46.242 17.4518 48.6279 17.4096 50.8717C17.3601 53.5473 17.4004 56.2229 17.3949 58.8985C17.3931 59.6551 16.9325 60.2234 16.2518 60.2437C15.1821 60.2751 14.1105 60.2511 13.0242 60.2511C13.0242 59.489 13.0242 58.786 13.0242 58.0294C13.7527 58.0294 14.4518 58.0294 15.1417 58.0294C15.1417 55.6011 15.1417 53.2281 15.1417 50.8256C11.9783 52.4679 8.32139 50.3089 8.53424 46.4561C7.59294 46.4561 6.65164 46.4561 5.73786 46.4561C5.8663 47.3639 5.99475 48.2294 6.11034 49.0948C6.26631 50.2591 6.40209 51.4235 6.56173 52.5878C6.7709 54.1028 7.00394 55.6159 7.20944 57.1308C7.36357 58.273 7.4755 59.4207 7.63697 60.5611C7.84799 62.0521 8.16542 63.5338 8.28469 65.0321C8.33974 65.7241 8.56543 65.8034 9.14159 65.8016C13.4995 65.7831 17.8573 65.7924 22.2134 65.7924C22.4336 65.7924 22.6537 65.7924 22.9271 65.7924C22.9271 64.2737 22.9271 62.8326 22.9271 61.4007C23.6813 61.4007 24.3786 61.4007 25.1309 61.4007C25.1309 62.8806 25.1309 64.3217 25.1309 65.7518C28.085 65.7518 30.986 65.7518 33.9017 65.7518C33.9017 61.7697 33.9017 57.8283 33.9017 53.8869ZM24.2171 20.3478C31.4447 20.3478 38.5182 20.3478 45.667 20.3478C45.1404 18.3863 44.5165 16.4912 44.1385 14.5463C43.6303 11.9298 40.4779 10.6879 38.2944 12.177C35.9953 13.7455 33.6833 13.7178 31.375 12.3007C30.6025 11.8264 29.8374 11.6253 28.9548 11.6438C27.3933 11.677 26.1052 12.5239 25.663 14.0426C25.2703 15.3914 25.0189 16.7809 24.707 18.1519C24.5474 18.8679 24.3877 19.582 24.2171 20.3478ZM24.2263 30.3453C25.2189 35.6983 30.5475 40.1287 36.7623 39.0696C41.7733 38.2152 45.3899 33.8494 45.6523 30.2641C45.3936 30.2899 45.1312 30.3397 44.8707 30.3416C43.0596 30.349 41.2467 30.3361 39.4357 30.349C37.8889 30.36 36.5696 29.8139 35.52 28.6901C35.0907 28.2306 34.8356 28.1808 34.3879 28.6772C33.3383 29.8452 31.9824 30.3564 30.419 30.349C28.3566 30.3379 26.2923 30.3453 24.2263 30.3453ZM49.5386 55.8188C52.168 55.0254 55.2121 55.4406 57.247 56.8503C58.9535 58.0331 60.9076 58.1032 62.8251 57.1105C61.7333 54.446 60.6581 51.8239 59.5718 49.1723C59.0636 49.1723 58.559 49.1557 58.058 49.176C56.3406 49.2424 54.7919 47.626 54.836 45.956C54.8616 44.943 54.8415 43.9299 54.8415 42.9058C54.1093 43.2048 53.4029 43.4926 52.6359 43.8045C52.6359 44.4761 52.6488 45.2364 52.6323 45.9929C52.6157 46.7439 52.713 47.5411 52.5001 48.2386C52.0744 49.6317 51.4763 50.9695 50.9405 52.3276C50.4964 53.4551 50.0395 54.5751 49.5386 55.8188ZM36.1237 22.6211C36.1237 23.5566 36.0833 24.4553 36.1329 25.3465C36.2026 26.6234 37.687 28.0904 38.9495 28.1125C40.8981 28.1476 42.8486 28.1365 44.7991 28.1255C45.4468 28.1218 46.0083 27.6106 46.0193 26.9888C46.045 25.5421 46.0266 24.0954 46.0266 22.6211C42.7165 22.6211 39.4669 22.6211 36.1237 22.6211ZM24.0061 22.6156C24.0061 24.0715 23.9987 25.4757 24.0079 26.8781C24.0134 27.7619 24.3786 28.1255 25.252 28.1291C27.041 28.1365 28.8282 28.155 30.6172 28.1236C31.9163 28.0996 32.8925 27.4722 33.5072 26.3171C34.1329 25.1435 33.8503 23.8777 33.9237 22.6174C30.5933 22.6156 27.3456 22.6156 24.0061 22.6156ZM4.14701 34.7776C4.58738 37.9588 5.01491 41.0569 5.44795 44.192C6.3764 44.192 7.26816 44.2104 8.15625 44.1735C8.30488 44.168 8.56727 43.9244 8.5691 43.7879C8.59846 42.2748 8.58745 40.7617 8.58745 39.1932C8.18928 39.1932 7.85716 39.1932 7.52321 39.1932C7.52321 38.4348 7.52321 37.7336 7.52321 36.9918C8.60947 36.9918 9.65903 37.0084 10.7086 36.9863C11.3123 36.9734 11.8884 36.4032 11.8866 35.8829C11.8848 35.3625 11.3049 34.7905 10.7031 34.7849C8.55259 34.7683 6.40393 34.7776 4.14701 34.7776ZM62.5278 40.3207C60.9902 40.3207 59.5058 40.3022 58.0213 40.3299C57.4103 40.341 57.0617 40.7414 57.0525 41.3448C57.0305 42.8652 57.036 44.3857 57.0488 45.9062C57.0525 46.4819 57.3736 46.9137 57.9314 46.9322C59.4562 46.982 60.9829 46.9488 62.5278 46.9488C62.5278 44.7252 62.5278 42.5645 62.5278 40.3207ZM55.9681 33.6686C57.5351 33.6686 59.025 33.6649 60.5168 33.6704C60.9517 33.6723 61.4196 33.6151 61.4086 33.0947C61.3994 32.6389 60.959 32.5577 60.5425 32.5577C57.4232 32.5633 54.3038 32.5633 51.1845 32.5577C50.7717 32.5577 50.4322 32.6445 50.4451 33.1371C50.4561 33.5855 50.7772 33.663 51.1607 33.6741C52.2378 33.6999 52.6323 34.1151 52.6359 35.1854C52.6378 35.4621 52.6561 35.7408 52.6323 36.0157C52.5717 36.704 52.6323 37.2668 53.557 37.1468C53.6726 37.1321 53.8286 37.2133 53.9277 37.2963C54.5699 37.8333 55.1993 38.3832 55.8708 38.9607C56.7149 38.0695 57.97 38.0713 59.1993 38.0953C59.1993 37.3111 59.1993 36.6099 59.1993 35.8478C58.0892 35.8478 57.025 35.8478 55.9681 35.8478C55.9681 35.1005 55.9681 34.4159 55.9681 33.6686ZM36.5971 50.0561C38.1659 51.1024 39.6889 52.1191 41.4119 53.2687C42.2504 50.475 43.0321 47.864 43.7991 45.3083C43.0192 44.7234 42.3789 44.2418 41.7623 43.7786C40.0504 45.8564 38.3604 47.912 36.5971 50.0561ZM28.1915 43.7749C27.685 44.1661 27.0703 44.6072 26.5015 45.1017C26.3713 45.2161 26.3144 45.5316 26.3621 45.718C26.8006 47.4211 27.2373 49.1243 27.7456 50.8072C27.9841 51.5969 28.3805 52.3387 28.7162 53.1248C30.3034 52.0582 31.7732 51.0729 33.3035 50.0451C31.6025 47.96 29.9291 45.908 28.1915 43.7749ZM12.8884 33.2589C13.7123 32.9618 14.4298 32.7035 15.1545 32.4433C15.1545 31.4118 15.1545 30.3416 15.1545 29.2806C13.683 29.2806 12.2536 29.2806 10.8095 29.2806C10.8095 30.3785 10.8095 31.434 10.8095 32.4452C11.5765 32.7478 12.316 33.0356 12.8884 33.2589ZM15.1711 39.4036C14.4756 39.1213 13.9141 38.8703 13.3343 38.6673C13.1013 38.5861 12.8004 38.5234 12.5857 38.6027C11.9948 38.8205 11.4352 39.1176 10.8407 39.3925C10.8407 39.9996 10.8407 40.7008 10.8407 41.3724C12.3196 41.3724 13.749 41.3724 15.1711 41.3724C15.1711 40.6362 15.1711 39.9498 15.1711 39.4036ZM18.4812 34.7831C17.3069 34.7831 16.1913 34.7646 15.0738 34.7905C14.472 34.8052 14.0995 35.2573 14.0995 35.8755C14.0995 36.4844 14.3986 36.9328 14.9912 36.9642C16.1454 37.0251 17.305 36.9826 18.4812 36.9826C18.4812 36.2316 18.4812 35.547 18.4812 34.7831ZM49.3533 41.4204C50.4707 41.4204 51.5203 41.4352 52.5699 41.4149C53.1332 41.4038 53.6965 40.8632 53.7332 40.3686C53.7662 39.9258 53.2543 39.2504 52.7478 39.2301C51.6176 39.184 50.4854 39.2154 49.3533 39.2154C49.3533 39.983 49.3533 40.6657 49.3533 41.4204ZM21.7547 25.9019C21.7547 24.7708 21.7547 23.6877 21.7547 22.61C20.2299 22.4403 19.5675 23.3721 19.595 24.256C19.6317 25.4093 20.2812 25.9407 21.7547 25.9019ZM48.2579 25.8927C49.6065 26.0791 50.3918 25.221 50.4029 24.1969C50.4139 23.1636 49.4872 22.5362 48.2579 22.6377C48.2579 23.7061 48.2579 24.7763 48.2579 25.8927Z" fill="black"/>
<path d="M53.7392 9.28216C53.6823 7.43692 55.1539 5.96257 56.8989 6.00317C59.0109 6.05299 60.2641 7.34097 60.3045 9.28954C60.3467 11.2566 58.7246 12.5445 57.0677 12.6313C55.2658 12.7272 53.5979 11.0425 53.7392 9.28216ZM56.9558 10.4041C57.5374 10.4059 58.1209 9.87264 58.1375 9.3246C58.154 8.75996 57.5393 8.18424 56.9356 8.19901C56.3815 8.21192 55.9539 8.67692 55.9429 9.27663C55.9319 9.9077 56.376 10.4022 56.9558 10.4041Z" fill="black"/>
<path d="M57.041 21.4681C56.9823 19.621 58.4539 18.1466 60.1989 18.1872C62.3109 18.2352 63.5641 19.5232 63.6063 21.4717C63.6485 23.4369 62.032 24.7268 60.3714 24.8153C58.5677 24.9131 56.9016 23.2266 57.041 21.4681ZM60.2668 22.5881C60.8448 22.5844 61.4283 22.0438 61.4393 21.4994C61.4503 20.9348 60.8301 20.3628 60.2283 20.3831C59.6741 20.4015 59.2521 20.8684 59.2447 21.4699C59.2392 22.0991 59.687 22.5918 60.2668 22.5881Z" fill="black"/>
<path d="M33.9016 53.8873C33.9016 57.8287 33.9016 61.7702 33.9016 65.7504C30.9859 65.7504 28.0868 65.7504 25.1308 65.7504C25.1308 64.3203 25.1308 62.8792 25.1308 61.3993C24.3785 61.3993 23.6812 61.3993 22.9271 61.3993C22.9271 62.8293 22.9271 64.2705 22.9271 65.791C22.6537 65.791 22.4335 65.791 22.2133 65.791C17.8554 65.791 13.4976 65.7817 9.14152 65.8002C8.56536 65.802 8.33967 65.7245 8.28462 65.0307C8.16536 63.5324 7.84792 62.0507 7.63691 60.5597C7.47544 59.4193 7.36534 58.2716 7.20938 57.1294C7.00387 55.6126 6.77084 54.1014 6.56166 52.5864C6.40202 51.4239 6.26441 50.2577 6.11028 49.0934C5.99468 48.228 5.86624 47.3644 5.73779 46.4547C6.65341 46.4547 7.59287 46.4547 8.53417 46.4547C8.31949 50.3075 11.9783 52.4665 15.1416 50.8242C15.1416 53.2249 15.1416 55.5979 15.1416 58.028C14.4517 58.028 13.7526 58.028 13.0242 58.028C13.0242 58.7846 13.0242 59.4876 13.0242 60.2497C14.1104 60.2497 15.182 60.2718 16.2517 60.2423C16.9343 60.222 17.3949 59.6537 17.3949 58.8971C17.4004 56.2215 17.36 53.5441 17.4096 50.8703C17.4499 48.6265 19.5307 46.2406 21.8353 45.9934C22.417 45.9306 23.0023 45.914 23.5858 45.8753C23.7271 46.5949 23.8519 47.3164 24.0097 48.0324C24.6574 50.97 25.3051 53.9095 26.6684 56.6257C27.1694 57.6258 27.8281 57.7918 28.7767 57.1552C30.2226 56.1846 31.6612 55.2048 33.1126 54.2434C33.3493 54.0866 33.6374 54.0036 33.9016 53.8873Z" fill="white"/>
<path d="M24.2176 20.3475C24.39 19.5817 24.5478 18.8676 24.7093 18.1535C25.0212 16.7806 25.2726 15.3912 25.6653 14.0441C26.1075 12.5255 27.3956 11.6785 28.9571 11.6453C29.8397 11.6269 30.6048 11.8262 31.3773 12.3022C33.6838 13.7212 35.9976 13.7489 38.2967 12.1786C40.4802 10.6876 43.6326 11.9313 44.1408 14.5479C44.5188 16.4909 45.1427 18.3878 45.6693 20.3493C38.5187 20.3475 31.4452 20.3475 24.2176 20.3475Z" fill="#FBE0B9"/>
<path d="M24.2257 30.3452C26.2918 30.3452 28.3561 30.3378 30.4203 30.347C31.9837 30.3544 33.3397 29.8432 34.3892 28.6752C34.8351 28.1788 35.092 28.2287 35.5213 28.6881C36.5709 29.8119 37.8902 30.3581 39.437 30.347C41.2481 30.3341 43.0609 30.347 44.872 30.3396C45.1344 30.3378 45.3949 30.2898 45.6536 30.2621C45.3912 33.8474 41.7728 38.2151 36.7636 39.0676C30.5451 40.1286 25.2184 35.6982 24.2257 30.3452ZM30.9359 32.5927C30.646 34.3807 32.402 36.4178 34.2791 36.7039C36.3012 37.012 39.1379 35.5229 39.0627 32.5613C38.7673 32.5613 38.47 32.5816 38.1746 32.5576C37.6829 32.517 37.4278 32.6148 37.3232 33.2108C37.2425 33.6684 36.892 34.1611 36.5232 34.473C34.9323 35.8144 32.6718 34.7996 32.4809 32.5927C31.9653 32.5927 31.4479 32.5927 30.9359 32.5927Z" fill="#FBE0B9"/>
<path d="M46.5866 45.8783C47.8875 45.7565 49.038 46.1957 50.1481 46.8212C50.6619 47.1109 50.4968 47.5814 50.3702 47.9044C49.4325 50.2866 48.4417 52.6466 47.4729 55.0159C46.482 57.4424 45.5003 59.8726 44.5058 62.2991C44.1645 63.1294 43.715 63.9266 43.8269 64.8769C43.8618 65.1647 43.8893 65.4526 43.9223 65.7663C41.3663 65.7663 38.781 65.7663 36.1332 65.7663C36.1332 61.8488 36.1332 57.9388 36.1332 54.0269C36.3571 54.132 36.5956 54.2132 36.7993 54.3479C38.2543 55.3093 39.7002 56.2818 41.1516 57.2487C42.0159 57.8244 42.6526 57.6915 43.082 56.7412C43.6691 55.444 44.2746 54.1413 44.6948 52.785C45.3994 50.5043 45.9646 48.183 46.5866 45.8783Z" fill="white"/>
<path d="M49.539 55.8191C50.0381 54.5754 50.495 53.4535 50.9409 52.3279C51.4767 50.9698 52.0748 49.632 52.5005 48.2388C52.7134 47.5432 52.6143 46.746 52.6326 45.9932C52.6492 45.2348 52.6363 44.4764 52.6363 43.8047C53.4033 43.4929 54.1097 43.205 54.8418 42.9061C54.8418 43.9302 54.8639 44.9432 54.8363 45.9563C54.7923 47.6262 56.341 49.2427 58.0584 49.1762C58.5612 49.1578 59.0639 49.1725 59.5722 49.1725C60.6585 51.8223 61.7337 54.4462 62.8255 57.1108C60.9062 58.1035 58.9538 58.0334 57.2474 56.8506C55.2125 55.4427 52.1684 55.0256 49.539 55.8191Z" fill="#8D2ED1"/>
<path d="M48.7824 58.3432C49.8962 58.1033 50.9989 57.7933 52.1256 57.6383C53.6467 57.4279 54.9751 58.0332 56.2504 58.8155C58.4137 60.1404 60.7037 60.3157 63.0634 59.4134C63.5129 59.2418 63.7294 59.2584 63.9202 59.7529C64.4817 61.207 65.0983 62.6389 65.6836 64.0855C66.0451 64.9786 65.5496 65.7795 64.5937 65.785C62.2597 65.7979 59.9257 65.7758 57.5917 65.7684C55.5018 64.6317 53.487 63.3622 51.7604 61.7181C50.6778 60.6866 49.7696 59.4743 48.7824 58.3432Z" fill="#8D2ED1"/>
<path d="M43.7088 6.80263C44.94 7.79168 45.8024 10.2089 45.5529 11.9158C45.0061 11.4065 44.507 10.7791 43.8684 10.3787C41.751 9.05014 39.5234 8.8527 37.3656 10.2348C35.6646 11.3235 34.1141 11.3419 32.3728 10.292C29.1801 8.36924 25.0589 9.46347 23.5378 13.3182C23.3488 13.7998 23.2864 14.3312 23.1176 14.8276C22.6295 12.7775 23.1561 10.995 24.5268 9.4321C24.7488 9.33984 24.969 9.24942 25.191 9.15716C26.1727 8.74567 27.1397 8.28805 28.1434 7.94114C28.7122 7.7437 29.3838 7.83228 29.9398 7.61269C31.5967 6.95948 33.204 6.18263 34.8573 5.52019C36.9729 4.67507 39.1234 4.57542 41.2409 5.5165C42.0868 5.89108 42.8886 6.37084 43.7088 6.80263Z" fill="black"/>
<path d="M36.1244 22.6207C39.4657 22.6207 42.7171 22.6207 46.0273 22.6207C46.0273 24.095 46.0438 25.5417 46.0199 26.9884C46.0089 27.6102 45.4474 28.1213 44.7997 28.125C42.8492 28.1361 40.8987 28.1472 38.9501 28.1121C37.6877 28.09 36.2032 26.623 36.1335 25.3461C36.0858 24.453 36.1244 23.5562 36.1244 22.6207ZM38.5996 24.7778C38.4473 25.741 39.6162 26.7928 40.4235 26.7577C41.5538 26.7079 42.4401 25.9015 42.4364 24.8054C42.4327 23.6835 41.5189 22.8255 40.3483 22.8735C39.3299 22.9141 38.4693 24.023 38.5996 24.7778Z" fill="#EDD6FF"/>
<path d="M24.0059 22.6149C27.3454 22.6149 30.595 22.6149 33.9254 22.6149C33.852 23.8752 34.1327 25.141 33.5089 26.3146C32.8942 27.4697 31.918 28.099 30.6189 28.1211C28.8317 28.1543 27.0427 28.134 25.2537 28.1266C24.3784 28.1229 24.0151 27.7576 24.0096 26.8756C23.9986 25.4732 24.0059 24.0708 24.0059 22.6149ZM29.3987 26.7427C30.7437 26.6468 31.3015 26.0194 31.4079 24.8144C31.5033 23.7202 30.5235 22.8529 29.3473 22.8695C28.4849 22.8806 27.6005 23.7977 27.5876 24.6963C27.5711 25.8109 28.384 26.7316 29.3987 26.7427Z" fill="#EDD6FF"/>
<path d="M48.7822 58.3436C49.7675 59.4747 50.6758 60.687 51.7584 61.7167C53.485 63.3608 55.4997 64.6285 57.5897 65.767C54.0887 65.7743 50.5895 65.7891 47.0886 65.7799C46.3014 65.778 45.7986 65.0529 46.0904 64.2908C46.8317 62.3625 47.6262 60.4545 48.4152 58.5465C48.4592 58.4451 48.6574 58.41 48.7822 58.3436Z" fill="#8D2ED1"/>
<path d="M4.14667 34.7773C6.40359 34.7773 8.55408 34.768 10.7027 34.7828C11.3064 34.7865 11.8844 35.3604 11.8863 35.8807C11.8881 36.4011 11.3119 36.9731 10.7082 36.9842C9.65869 37.0063 8.60913 36.9897 7.52287 36.9897C7.52287 37.7315 7.52287 38.4327 7.52287 39.1911C7.85682 39.1911 8.18894 39.1911 8.58711 39.1911C8.58711 40.7595 8.59812 42.2726 8.56876 43.7857C8.56693 43.9223 8.30454 44.1658 8.15591 44.1714C7.26782 44.2083 6.37606 44.1898 5.44761 44.1898C5.01457 41.0566 4.58521 37.9585 4.14667 34.7773Z" fill="#FBE0B9"/>
<path d="M62.5279 40.3207C62.5279 42.5645 62.5279 44.7234 62.5279 46.9506C60.983 46.9506 59.4563 46.9838 57.9315 46.934C57.3719 46.9156 57.0526 46.4838 57.0489 45.9081C57.0361 44.3876 57.0306 42.8671 57.0526 41.3466C57.0618 40.7432 57.4104 40.3428 58.0214 40.3317C59.5059 40.3022 60.9903 40.3207 62.5279 40.3207Z" fill="#FBE0B9"/>
<path d="M55.9685 33.6689C55.9685 34.4162 55.9685 35.1008 55.9685 35.85C57.0235 35.85 58.0896 35.85 59.1997 35.85C59.1997 36.6139 59.1997 37.3151 59.1997 38.0975C57.9704 38.0735 56.7135 38.0698 55.8712 38.9629C55.1997 38.3853 54.5685 37.8354 53.9281 37.2985C53.829 37.2154 53.6749 37.1324 53.5574 37.149C52.6345 37.269 52.5721 36.7062 52.6326 36.0179C52.6565 35.7429 52.6382 35.4643 52.6363 35.1875C52.6326 34.1154 52.2381 33.7021 51.1611 33.6763C50.7776 33.6671 50.4565 33.5896 50.4455 33.1393C50.4344 32.6466 50.7721 32.5599 51.1849 32.5599C54.3042 32.5654 57.4236 32.5654 60.5429 32.5599C60.9576 32.5599 61.3979 32.6411 61.409 33.0969C61.42 33.6172 60.9521 33.6744 60.5172 33.6726C59.0254 33.6652 57.5355 33.6689 55.9685 33.6689Z" fill="#8D2ED1"/>
<path d="M36.5964 50.057C38.3597 47.9128 40.0515 45.8572 41.7616 43.7776C42.3782 44.2408 43.0185 44.7224 43.7984 45.3074C43.0314 47.863 42.2497 50.474 41.4112 53.2677C39.6882 52.12 38.1652 51.1033 36.5964 50.057Z" fill="white"/>
<path d="M28.1921 43.7752C29.9297 45.9065 31.6031 47.9584 33.3041 50.0454C31.7738 51.0732 30.304 52.0585 28.7169 53.1251C28.3811 52.339 27.9847 51.5972 27.7462 50.8075C27.2379 49.1264 26.8012 47.4214 26.3627 45.7183C26.315 45.5319 26.3719 45.2164 26.5021 45.102C27.071 44.6093 27.6856 44.1664 28.1921 43.7752Z" fill="white"/>
<path d="M37.5033 45.4523C36.6776 46.4709 35.8519 47.4876 34.9858 48.556C34.0849 47.4692 33.239 46.4488 32.3968 45.4265C31.9234 44.8508 31.4922 44.2363 30.9766 43.703C30.6298 43.3451 30.6041 42.9612 30.6114 42.5239C30.6224 41.9334 30.6133 41.3411 30.6133 40.7027C31.5784 40.9628 32.4738 41.2027 33.3674 41.4445C33.7638 41.8227 34.1619 42.1992 34.5546 42.5793C35.5381 43.537 36.5198 44.4946 37.5033 45.4523Z" fill="#FBE0B9"/>
<path d="M46.5866 45.8781C45.9646 48.1828 45.3994 50.5041 44.6948 52.783C44.2746 54.1392 43.6691 55.4419 43.082 56.7392C42.6526 57.6895 42.0159 57.8223 41.1516 57.2466C39.7002 56.2797 38.2543 55.3072 36.7993 54.3459C36.5956 54.2112 36.3552 54.13 36.1332 54.0248C36.1332 53.5063 36.1332 52.9878 36.1332 52.4102C37.6672 53.4417 39.1388 54.4326 40.6122 55.4235C41.5535 56.0564 42.1443 55.9272 42.7278 54.953C44.1352 52.6021 44.8012 49.9763 45.4838 47.3598C45.6123 46.869 45.6985 46.3671 45.8013 45.8762C46.0893 45.8781 46.3371 45.8781 46.5866 45.8781Z" fill="white"/>
<path d="M33.9013 53.8875C33.6371 54.0037 33.349 54.0868 33.1123 54.2436C31.6609 55.205 30.2224 56.1866 28.7765 57.1554C27.8278 57.792 27.1709 57.6241 26.6682 56.6258C25.3048 53.9115 24.659 50.972 24.0094 48.0325C23.8516 47.3166 23.725 46.5951 23.5855 45.8754C24.0589 45.75 24.2039 46.0009 24.292 46.4253C24.892 49.2965 25.6755 52.1068 27.0847 54.7012C27.1599 54.8396 27.2572 54.9632 27.3434 55.0961C27.892 55.9283 28.3636 56.0427 29.1911 55.4947C30.349 54.727 31.4903 53.9336 32.6426 53.1586C33.0279 52.9003 33.4242 52.6585 33.9013 52.3522C33.9013 52.9427 33.9013 53.4151 33.9013 53.8875Z" fill="white"/>
<path d="M10.8161 47.37C10.8161 46.154 10.8161 44.938 10.8161 43.6795C12.2694 43.6795 13.6969 43.6795 15.2657 43.6795C15.1868 44.9325 15.1098 46.154 15.0346 47.3756C14.0052 48.062 12.9208 48.3295 11.7372 47.8036C11.4272 47.6671 11.1226 47.5158 10.8161 47.37Z" fill="#8D2ED1"/>
<path d="M12.8888 33.258C12.3163 33.0347 11.5787 32.745 10.8099 32.4461C10.8099 31.433 10.8099 30.3794 10.8099 29.2815C12.2521 29.2815 13.6815 29.2815 15.1549 29.2815C15.1549 30.3425 15.1549 31.4127 15.1549 32.4442C14.4301 32.7025 13.7108 32.9627 12.8888 33.258Z" fill="#8D2ED1"/>
<path d="M37.5043 45.4529C36.5208 44.4953 35.5391 43.5376 34.5556 42.5817C34.163 42.1998 33.7648 41.8252 33.3685 41.4469C34.5226 41.3934 35.6823 41.3768 36.8328 41.2716C37.4695 41.2126 38.0952 41.0096 38.7245 40.8657C38.9355 40.8177 39.1429 40.755 39.286 40.718C39.9961 42.829 38.7887 44.1557 37.5043 45.4529Z" fill="#FBE0B9"/>
<path d="M43.7093 6.80151C42.8873 6.36972 42.0873 5.88996 41.2414 5.51538C39.1221 4.5743 36.9716 4.67395 34.8578 5.51907C33.2046 6.17966 31.5954 6.95835 29.9403 7.61157C29.3843 7.83115 28.7127 7.74258 28.1439 7.94002C27.1402 8.28693 26.1732 8.74455 25.1916 9.15604C24.9714 9.2483 24.7494 9.34056 24.5273 9.43098C25.6668 8.11532 27.0467 7.37538 28.821 7.1724C29.9403 7.04508 31.0174 6.4749 32.0963 6.05972C33.4816 5.52829 34.8119 4.80496 36.234 4.42668C38.9129 3.71258 41.313 4.44144 43.3662 6.30514C43.5112 6.43615 43.5974 6.63359 43.7093 6.80151Z" fill="black"/>
<path d="M15.1715 39.403C15.1715 39.9492 15.1715 40.6357 15.1715 41.3719C13.7494 41.3719 12.3201 41.3719 10.8411 41.3719C10.8411 40.7002 10.8411 39.999 10.8411 39.392C11.4356 39.117 11.9971 38.8199 12.5861 38.6022C12.8008 38.5229 13.1017 38.5856 13.3347 38.6668C13.9127 38.8698 14.4761 39.1207 15.1715 39.403Z" fill="#8D2ED1"/>
<path d="M18.4821 34.7832C18.4821 35.5471 18.4821 36.2317 18.4821 36.9827C17.3077 36.9827 16.1481 37.0252 14.9921 36.9643C14.3994 36.9329 14.1003 36.4845 14.1003 35.8756C14.1003 35.2556 14.4728 34.8054 15.0747 34.7906C16.1921 34.7648 17.3077 34.7832 18.4821 34.7832Z" fill="#FBE0B9"/>
<path d="M49.3538 41.4208C49.3538 40.6661 49.3538 39.9834 49.3538 39.2157C50.4841 39.2157 51.6181 39.1844 52.7484 39.2305C53.2548 39.2508 53.7667 39.9262 53.7337 40.369C53.697 40.8635 53.1337 41.4023 52.5704 41.4153C51.5208 41.4374 50.4713 41.4208 49.3538 41.4208Z" fill="#FBE0B9"/>
<path d="M21.7548 25.9019C20.2813 25.9406 19.6318 25.4092 19.5951 24.2559C19.5676 23.3721 20.2281 22.4384 21.7548 22.61C21.7548 23.6858 21.7548 24.7708 21.7548 25.9019Z" fill="#FBE0B9"/>
<path d="M48.2586 25.8927C48.2586 24.7745 48.2586 23.7061 48.2586 22.6396C49.488 22.5381 50.4146 23.1654 50.4036 24.1988C50.3926 25.221 49.6072 26.0809 48.2586 25.8927Z" fill="#FBE0B9"/>
<path d="M10.8161 47.3692C11.1226 47.515 11.4272 47.6663 11.7372 47.8029C12.9208 48.3269 14.0052 48.0594 15.0346 47.3748C15.0712 48.2568 14.4639 48.6867 13.8052 49.0004C13.0896 49.3418 12.3097 49.316 11.7189 48.7458C11.3354 48.373 11.1115 47.8342 10.8161 47.3692Z" fill="#8D2ED1"/>
<path d="M56.9551 10.4039C56.3752 10.402 55.9312 9.90936 55.9422 9.27645C55.9532 8.67674 56.3807 8.21174 56.9349 8.19882C57.5385 8.18406 58.1532 8.76162 58.1367 9.32442C58.1202 9.87246 57.5367 10.4057 56.9551 10.4039Z" fill="#EDD6FF"/>
<path d="M60.2677 22.5887C59.6878 22.5924 59.2401 22.0997 59.2475 21.4705C59.2548 20.8689 59.6768 20.4021 60.231 20.3836C60.8328 20.3633 61.453 20.9353 61.442 21.5C61.431 22.0443 60.8475 22.585 60.2677 22.5887Z" fill="#EDD6FF"/>
<path d="M30.9363 32.5929C31.4483 32.5929 31.9657 32.5929 32.4832 32.5929C32.6722 34.7998 34.9346 35.8128 36.5254 34.4732C36.8943 34.1614 37.2447 33.6705 37.3255 33.2111C37.43 32.615 37.6851 32.5172 38.1768 32.5578C38.4723 32.5818 38.7695 32.5615 39.0649 32.5615C39.142 35.5231 36.3034 37.0122 34.2814 36.7041C32.4024 36.4162 30.6464 34.3791 30.9363 32.5929Z" fill="black"/>
<path d="M38.5993 24.7775C38.469 24.0228 39.3296 22.9138 40.3461 22.8732C41.5186 22.8252 42.4324 23.6833 42.4343 24.8052C42.4379 25.9012 41.5517 26.7094 40.4214 26.7574C39.6159 26.7925 38.447 25.7407 38.5993 24.7775Z" fill="black"/>
<path d="M29.3987 26.7427C28.3858 26.7298 27.5711 25.8109 27.5876 24.6964C27.6005 23.7977 28.4849 22.8807 29.3473 22.8696C30.5235 22.853 31.5033 23.7221 31.4079 24.8145C31.3015 26.0194 30.7437 26.6468 29.3987 26.7427Z" fill="black"/>
</svg>
