<svg width="70" height="70" viewBox="0 0 70 70" fill="none" xmlns="http://www.w3.org/2000/svg">
<path d="M67.9996 24.4303C67.3861 25.2073 66.5439 25.2245 65.6467 25.2159C62.3829 25.1866 59.1174 25.2502 55.8553 25.1746C54.9564 25.154 54.4631 25.5184 53.9784 26.1492C52.4557 28.1312 50.4173 29.3378 48.0265 29.9601C47.5436 30.0856 47.0142 30.1286 46.5175 30.0873C45.7974 30.0289 45.3024 30.2764 44.7937 30.7921C40.808 34.8247 36.7897 38.8246 32.7799 42.8332C31.979 43.6342 31.2039 43.6393 30.415 42.8521C22.4574 34.8951 14.4998 26.9365 6.54044 18.9796C5.58312 18.0221 5.50407 17.3672 6.54388 16.3324C11.0211 11.8804 15.4743 7.40431 19.9498 2.95057C20.3193 2.58272 20.7868 2.31456 21.2096 2C21.3385 2 21.4674 2 21.5963 2C21.6393 2 21.6823 2 21.7252 2C21.7682 2 21.8112 2 21.8541 2C22.0999 2.22346 22.3542 2.43833 22.5897 2.6721C23.8667 3.94411 25.1334 5.22643 26.4259 6.48297C26.5582 6.61189 26.8641 6.6858 27.036 6.62736C28.6619 6.07558 30.305 5.55647 31.8879 4.8964C34.423 3.83926 36.9959 3.7069 39.5585 4.58355C41.2205 5.15252 42.8189 5.93119 44.3915 6.72362C46.3182 7.69309 48.1744 8.8018 50.089 9.79706C50.9037 10.2199 51.7905 10.4864 52.7392 10.3592C52.9524 9.06824 53.2858 8.77946 54.5731 8.77774C55.5992 8.77602 56.6235 8.77774 57.6891 8.77774C57.6891 8.52505 57.6994 8.33426 57.6874 8.14517C57.6152 6.9488 58.2632 6.31967 59.4594 6.35577C61.6679 6.42109 63.8799 6.40046 66.0884 6.36092C66.9203 6.34545 67.5493 6.59126 67.9996 7.28743C67.9996 12.9994 67.9996 18.7149 67.9996 24.4303ZM43.6662 17.8588C43.6129 18.7372 42.6453 19.2237 41.8289 18.959C40.4453 18.5103 39.0583 18.072 37.6696 17.6354C35.2359 16.8687 32.8057 16.0901 30.3634 15.3509C29.4474 15.0742 28.5691 15.3045 27.9263 15.999C27.2835 16.6951 27.0635 17.5529 27.3883 18.5086C27.7682 19.6328 28.6361 20.2 29.6776 20.5576C32.9587 21.6835 36.25 22.787 39.5276 23.9215C39.8507 24.0332 40.1532 24.2636 40.4093 24.4991C40.9524 24.9976 41.4078 25.5992 41.987 26.0461C43.6713 27.3456 45.6668 27.6928 47.6759 27.3301C49.6885 26.9674 51.2285 25.6851 52.4024 24.0092C52.5914 23.7393 52.8544 23.435 52.8613 23.1411C52.8974 21.7264 52.8578 20.31 52.8441 18.8954C52.8441 16.9495 52.8441 15.0037 52.8441 13.0751C52.7788 13.0372 52.7444 13.0063 52.7066 12.9994C52.6018 12.9805 52.4952 12.9633 52.3886 12.9616C50.8212 12.9307 49.4101 12.3823 48.0437 11.6673C45.2818 10.2199 42.5336 8.74164 39.7407 7.35618C38.132 6.55688 36.3686 6.38843 34.6224 6.78378C33.3677 7.0674 32.1543 7.54527 30.9306 7.96125C30.2156 8.20533 29.5161 8.49755 28.7238 8.8018C30.3548 10.4331 31.8965 11.9835 33.4519 13.5185C33.574 13.6406 33.7888 13.6767 33.9658 13.7334C36.7862 14.6358 39.6015 15.552 42.4305 16.4253C43.1832 16.6573 43.637 17.0527 43.6662 17.8588ZM33.6788 24.6572C33.5929 24.8274 33.5086 24.9494 33.4657 25.0869C32.8126 27.129 31.4599 28.5454 29.5316 29.4204C26.4671 30.8127 23.492 30.0993 21.3076 27.8836C19.6782 26.2317 18.9134 24.1484 19.2675 21.7281C19.6971 18.7957 21.8129 16.3617 24.6401 15.6363C24.9409 15.5589 25.2107 15.2839 25.4479 15.0535C25.9274 14.5843 26.3142 13.993 26.8521 13.6131C27.4605 13.1816 28.1944 12.9255 28.9249 12.568C28.1119 11.7687 27.311 10.9625 26.4774 10.189C26.3674 10.0858 26.046 10.0704 25.912 10.1563C24.6178 10.9797 23.1792 11.4335 21.684 11.5074C20.0632 11.5882 18.5112 11.1395 17.138 10.2182C16.8028 9.99302 16.576 9.98099 16.2769 10.3007C15.574 11.0553 14.8366 11.7756 14.0959 12.4941C13.826 12.7571 13.7676 12.9375 14.0048 13.2968C14.8899 14.6376 15.2715 16.1605 15.2629 17.7437C15.256 19.2168 14.8745 20.6401 14.0718 21.888C13.7539 22.3831 13.8828 22.5945 14.2282 22.9383C18.293 26.9846 22.3457 31.0447 26.4018 35.0997C26.5496 35.2475 26.7077 35.385 26.8401 35.5071C30.0936 33.4702 33.3024 33.642 36.4081 35.4779C37.4101 34.4843 38.3537 33.5475 39.3179 32.5918C39.2646 32.4921 39.2044 32.3597 39.1254 32.2377C37.9773 30.4483 37.5923 28.5093 37.9326 26.4105C37.9532 26.2833 37.7624 26.0306 37.6198 25.9791C36.3342 25.5287 35.0383 25.1093 33.6788 24.6572ZM65.3958 8.98745C63.696 8.98745 62.0529 8.98745 60.3961 8.98745C60.3961 13.5426 60.3961 18.06 60.3961 22.5876C62.0856 22.5876 63.7269 22.5876 65.3958 22.5876C65.3958 18.0479 65.3958 13.5443 65.3958 8.98745ZM24.5473 18.3848C22.7771 19.2116 21.8558 20.6848 21.7527 22.5893C21.6736 24.035 22.2907 25.2777 23.382 26.2885C25.9773 28.695 29.9045 27.2889 31.0011 24.4612C31.1884 23.9782 31.1661 23.6809 30.5783 23.5605C30.1108 23.4643 29.6605 23.2872 29.205 23.136C27.7579 22.6564 26.4413 21.9585 25.6146 20.6229C25.1884 19.9387 24.9117 19.1652 24.5473 18.3848ZM55.4771 22.5996C56.2574 22.5996 56.9793 22.5996 57.7321 22.5996C57.7321 18.8713 57.7321 15.1687 57.7321 11.4455C56.9673 11.4455 56.2299 11.4455 55.4771 11.4455C55.4771 15.1704 55.4771 18.8575 55.4771 22.5996ZM24.2242 8.15033C23.2549 7.18085 22.3096 6.23716 21.4949 5.42239C20.6149 6.31279 19.6765 7.25992 18.769 8.17955C20.541 9.26763 22.411 9.10434 24.2242 8.15033ZM31.551 40.2599C32.5548 39.2526 33.488 38.3141 34.411 37.3893C32.7593 36.3631 29.8375 36.3803 28.8063 37.4821C28.9506 37.6351 29.0933 37.7915 29.2428 37.9411C30.0266 38.7301 30.8137 39.5191 31.551 40.2599ZM11.8788 20.5043C12.9633 18.7578 12.9546 16.4218 11.932 14.8748C10.985 15.8185 10.0243 16.7759 9.0893 17.7076C9.97787 18.5997 10.9128 19.5365 11.8788 20.5043ZM42.6195 29.3293C41.8616 28.9459 41.1792 28.6021 40.4969 28.2584C40.435 28.3013 40.3714 28.346 40.3096 28.389C40.576 29.1625 40.8407 29.936 41.126 30.7646C41.6897 30.2214 42.1434 29.7865 42.6195 29.3293Z" fill="black"/>
<path d="M2.00172 47.6356C2.32827 46.9205 2.92294 46.7658 3.64995 46.7676C7.21455 46.7847 10.7791 46.7538 14.3437 46.7933C14.9986 46.8002 15.3784 46.5733 15.7479 46.08C17.2243 44.1084 19.1217 42.6628 21.5399 42.1454C23.6711 41.6881 25.7834 42.0646 27.7892 42.9326C28.9802 43.4483 30.0561 44.1462 30.8897 45.1483C31.5858 45.9837 32.593 46.1419 33.5193 46.465C36.0974 47.3606 38.6961 48.1926 41.2707 49.095C42.9378 49.6794 44.2251 50.728 44.8903 52.428C44.9195 52.5019 44.9659 52.5707 45.0312 52.6893C46.7826 52.1977 48.5219 51.6528 50.2887 51.2299C52.4646 50.7091 54.5425 49.7224 56.8542 49.8221C59.3549 49.9304 61.1492 51.6098 61.5428 53.9802C61.9587 56.495 60.7952 58.3016 58.6863 59.4704C57.4471 60.158 56.0653 60.6032 54.7247 61.0914C51.2615 62.3548 47.7829 63.5787 44.3128 64.8215C41.6986 65.7566 39.0896 66.702 36.4721 67.625C35.996 67.7935 35.4907 67.8777 34.9991 67.9998C34.0968 67.9998 33.1945 67.9998 32.2922 67.9998C31.6803 67.8434 31.0324 67.766 30.4618 67.515C28.5248 66.6624 26.6153 65.748 24.6955 64.8559C22.2068 63.699 20.0722 61.7205 17.1383 61.6054C16.9476 62.9375 16.6227 63.2143 15.2237 63.2143C14.2217 63.2143 13.2214 63.2143 12.1833 63.2143C12.1833 63.4756 12.1833 63.6646 12.1833 63.8554C12.1816 65.2375 11.8035 65.607 10.3941 65.607C8.15983 65.607 5.92724 65.5812 3.69292 65.6225C2.93841 65.6362 2.39015 65.4111 2 64.7785C2.00172 59.0665 2.00172 53.3511 2.00172 47.6356ZM17.1521 53.0434C17.1521 54.9944 17.1521 56.9453 17.1521 58.9393C17.3652 58.9943 17.5818 59.0837 17.8035 59.1026C19.0461 59.2109 20.2355 59.4894 21.3492 60.0772C24.2246 61.5916 27.0982 63.1077 29.9908 64.5877C31.0392 65.124 32.1719 65.4076 33.3681 65.4334C34.6382 65.4626 35.8052 65.1687 36.9928 64.7097C39.8734 63.5976 42.8003 62.6058 45.7101 61.5693C49.3486 60.2732 52.994 58.9995 56.6222 57.6776C57.9559 57.1911 59.1263 56.1615 58.994 54.6231C58.8909 53.4181 57.9748 52.3455 56.7717 52.4246C55.7937 52.4899 54.8089 52.6772 53.8585 52.9282C51.0811 53.6639 48.3174 54.4546 45.552 55.2402C45.3698 55.2917 45.1275 55.4516 45.0793 55.6115C44.7339 56.7373 44.1306 57.6896 43.163 58.3531C42.0218 59.137 40.7327 59.6767 39.3543 59.2676C35.3394 58.0747 31.3538 56.7872 27.3543 55.541C26.6273 55.3141 26.263 54.8225 26.2114 54.0764C26.6909 53.0554 27.1172 52.8199 28.0865 53.0726C28.4457 53.1671 28.7912 53.3132 29.1469 53.425C32.5568 54.501 35.9668 55.5788 39.3784 56.6497C40.4457 56.9849 41.5783 56.5792 42.2692 55.6304C42.6577 55.0975 42.7814 53.547 42.216 52.813C41.6969 52.1375 41.0472 51.7593 40.291 51.5015C37.108 50.4186 33.9181 49.3614 30.7419 48.2596C30.3053 48.1083 29.8241 47.8505 29.5543 47.4964C28.6915 46.3636 27.6173 45.542 26.2887 45.0882C24.9928 44.6464 23.6522 44.4006 22.2721 44.655C20.1925 45.0366 18.7385 46.3413 17.5062 47.9467C17.3223 48.1874 17.1383 48.5071 17.1315 48.7925C17.1074 50.2106 17.1401 51.627 17.1521 53.0434ZM4.61586 49.3786C4.61586 53.9492 4.61586 58.4546 4.61586 62.9616C6.30707 62.9616 7.9639 62.9616 9.59495 62.9616C9.59495 58.403 9.59495 53.9063 9.59495 49.3786C7.91233 49.3786 6.28816 49.3786 4.61586 49.3786ZM12.271 60.6548C12.8296 60.6548 13.3245 60.6238 13.8144 60.6634C14.373 60.7081 14.5569 60.5156 14.5517 59.9414C14.5276 56.5964 14.5397 53.2496 14.5397 49.9029C14.5397 49.7619 14.5397 49.621 14.5397 49.4594C13.7473 49.4594 13.0255 49.4594 12.271 49.4594C12.271 53.1774 12.271 56.88 12.271 60.6548Z" fill="black"/>
<path d="M33.6794 24.657C35.0389 25.109 36.3348 25.5285 37.6204 25.9805C37.7631 26.0304 37.9556 26.2831 37.9332 26.412C37.5929 28.5108 37.9762 30.4497 39.126 32.2391C39.2051 32.3612 39.2652 32.4935 39.3185 32.5932C38.3543 33.549 37.4107 34.4841 36.4087 35.4793C33.3047 33.6435 30.0942 33.4716 26.8407 35.5086C26.7101 35.3865 26.5502 35.2507 26.4024 35.1012C22.3463 31.0462 18.2953 26.9861 14.2289 22.9397C13.8834 22.596 13.7545 22.3845 14.0724 21.8895C14.8751 20.6433 15.2566 19.2183 15.2635 17.7451C15.2704 16.162 14.8905 14.639 14.0054 13.2983C13.7665 12.9373 13.825 12.7568 14.0965 12.4955C14.8373 11.7787 15.5746 11.0568 16.2775 10.3022C16.5766 9.98246 16.8035 9.99449 17.1386 10.2197C18.5119 11.1393 20.0639 11.5879 21.6846 11.5089C23.1799 11.4349 24.6184 10.9812 25.9126 10.1578C26.0467 10.0718 26.3681 10.089 26.478 10.1904C27.3099 10.964 28.1125 11.7719 28.9255 12.5694C28.195 12.927 27.4629 13.1831 26.8527 13.6146C26.3148 13.9944 25.9298 14.5857 25.4485 15.055C25.2114 15.2871 24.9415 15.5621 24.6408 15.6377C21.8118 16.3631 19.6978 18.7971 19.2681 21.7296C18.914 24.1499 19.6789 26.2332 21.3082 27.8851C23.4927 30.1008 26.4677 30.8124 29.5322 29.4218C31.4606 28.5469 32.8115 27.1305 33.4663 25.0884C33.5093 24.9492 33.5935 24.8271 33.6794 24.657Z" fill="#8D2ED1"/>
<path d="M52.8465 18.8957C52.8602 20.3104 52.8997 21.7268 52.8636 23.1415C52.8568 23.4354 52.5921 23.7414 52.4048 24.0096C51.2309 25.6872 49.6909 26.9678 47.6783 27.3305C45.6692 27.6932 43.6754 27.346 41.9894 26.0465C41.4102 25.5996 40.9547 24.9979 40.4116 24.4995C40.1555 24.264 39.8531 24.0336 39.5299 23.9219C36.2506 22.7874 32.961 21.6856 29.68 20.5579C28.6385 20.2004 27.7706 19.6332 27.3907 18.509C27.0676 17.5533 27.2876 16.6955 27.9287 15.9994C28.5698 15.3032 29.448 15.0728 30.3658 15.3513C32.8081 16.0905 35.2383 16.8691 37.672 17.6358C39.059 18.0724 40.4477 18.5107 41.8313 18.9593C42.6477 19.2241 43.6153 18.7359 43.6686 17.8592C44.0415 17.9022 44.4162 17.9297 44.784 17.9933C45.2257 18.0689 45.6623 18.1755 46.1005 18.2683C46.0593 18.3165 46.018 18.3646 45.9768 18.411C45.5643 18.8768 45.6365 19.3994 45.8891 19.8807C46.1727 20.4187 46.6935 20.5236 47.2589 20.4307C47.7952 20.3431 48.1389 20.0062 48.2266 19.4939C48.2799 19.1811 48.175 18.8425 48.1424 18.5159C48.2747 18.4884 48.4105 18.423 48.5377 18.4368C49.9728 18.5846 51.4096 18.741 52.8465 18.8957Z" fill="#EDD6FF"/>
<path d="M46.1002 18.2683C45.6619 18.1754 45.2254 18.0689 44.7837 17.9932C44.4141 17.9296 44.0395 17.9021 43.6682 17.8591C43.6373 17.053 43.1853 16.6593 42.4342 16.4273C39.6052 15.5541 36.7883 14.6379 33.9696 13.7354C33.7926 13.6787 33.5794 13.6409 33.4557 13.5206C31.9003 11.9838 30.3586 10.4351 28.7275 8.80383C29.5199 8.49958 30.2177 8.20564 30.9344 7.96328C32.1581 7.54729 33.3715 7.06943 34.6261 6.78581C36.3723 6.39045 38.1357 6.55891 39.7444 7.35821C42.5373 8.74367 45.2855 10.2219 48.0475 11.6693C49.4139 12.3844 50.8249 12.9327 52.3924 12.9636C52.4989 12.9654 52.6055 12.9825 52.7103 13.0015C52.7481 13.0083 52.7825 13.041 52.8478 13.0771C52.8478 15.0074 52.8478 16.9533 52.8478 18.8974C51.411 18.7427 49.9742 18.5863 48.5373 18.4401C48.4101 18.4264 48.2744 18.4917 48.142 18.5192C47.3703 17.842 46.8788 17.7818 46.1002 18.2683Z" fill="#EDD6FF"/>
<path d="M65.3962 8.98724C65.3962 13.5441 65.3962 18.0477 65.3962 22.5874C63.7273 22.5874 62.086 22.5874 60.3965 22.5874C60.3965 18.0598 60.3965 13.5424 60.3965 8.98724C62.0533 8.98724 63.6981 8.98724 65.3962 8.98724Z" fill="#8D2ED1"/>
<path d="M24.548 18.3849C24.9123 19.1636 25.1908 19.9389 25.6136 20.623C26.4403 21.9569 27.7568 22.6548 29.2039 23.1361C29.6594 23.2873 30.1097 23.4644 30.5772 23.5606C31.165 23.6827 31.1873 23.9783 31 24.4614C29.9052 27.2907 25.9762 28.6951 23.381 26.2886C22.2913 25.2779 21.6743 24.0351 21.7516 22.5895C21.8565 20.6866 22.7777 19.2118 24.548 18.3849Z" fill="#EDD6FF"/>
<path d="M55.4775 22.5997C55.4775 18.8576 55.4775 15.1705 55.4775 11.4456C56.2286 11.4456 56.9677 11.4456 57.7325 11.4456C57.7325 15.1688 57.7325 18.8713 57.7325 22.5997C56.9797 22.5997 56.2578 22.5997 55.4775 22.5997Z" fill="#EDD6FF"/>
<path d="M24.2246 8.14959C22.4114 9.10347 20.5397 9.26503 18.7695 8.17709C19.6786 7.2593 20.6153 6.31058 21.4953 5.42029C22.31 6.23667 23.2553 7.18196 24.2246 8.14959Z" fill="#8D2ED1"/>
<path d="M31.5512 40.2596C30.8139 39.5188 30.0267 38.7317 29.2412 37.9411C29.0917 37.7915 28.9491 37.6334 28.8047 37.4822C29.8359 36.3805 32.7577 36.3633 34.4094 37.3894C33.4882 38.314 32.5549 39.2507 31.5512 40.2596Z" fill="#8D2ED1"/>
<path d="M11.8793 20.5037C10.9151 19.5378 9.97841 18.5994 9.08984 17.7091C10.0248 16.7776 10.9856 15.8202 11.9326 14.8767C12.9535 16.4201 12.9621 18.7575 11.8793 20.5037Z" fill="#8D2ED1"/>
<path d="M42.6202 29.3288C42.1442 29.786 41.6904 30.2208 41.125 30.7622C40.8414 29.9355 40.575 29.1604 40.3086 28.387C40.3705 28.344 40.4341 28.2993 40.4959 28.2563C41.18 28.6018 41.8623 28.9456 42.6202 29.3288Z" fill="#8D2ED1"/>
<path d="M26.2146 54.0786C26.2661 54.8246 26.6305 55.3162 27.3575 55.5431C31.3569 56.7894 35.3426 58.0768 39.3575 59.2698C40.7359 59.6789 42.025 59.1391 43.1662 58.3553C44.1338 57.6918 44.737 56.7395 45.0825 55.6136C45.1324 55.4538 45.373 55.2939 45.5552 55.2423C48.3205 54.4568 51.0825 53.6661 53.8617 52.9304C54.8121 52.6794 55.7952 52.492 56.7749 52.4267C57.9797 52.3477 58.894 53.4203 58.9972 54.6252C59.1295 56.162 57.9573 57.1933 56.6253 57.6798C52.9972 59.0016 49.3518 60.2753 45.7133 61.5714C42.8035 62.6079 39.8766 63.5998 36.996 64.7119C35.8084 65.1709 34.6397 65.4631 33.3713 65.4356C32.1751 65.4081 31.0424 65.1262 29.994 64.5899C27.1014 63.1116 24.226 61.5955 21.3524 60.0794C20.2369 59.4915 19.0493 59.2131 17.8067 59.1048C17.585 59.0859 17.3684 58.9965 17.1553 58.9415C17.1553 56.9475 17.1553 54.9965 17.1553 53.0455C17.4062 53.0748 17.6571 53.104 17.9098 53.1315C19.2315 53.2759 20.5532 53.4185 21.8749 53.5612C22.6414 54.2247 22.8734 54.2385 23.9184 53.6919C24.6815 53.8208 25.448 53.9497 26.2146 54.0786Z" fill="#EDD6FF"/>
<path d="M21.8698 53.5614C20.5481 53.4187 19.2264 53.2743 17.9048 53.1317C17.6538 53.1042 17.4012 53.0732 17.1503 53.0457C17.14 51.6293 17.1073 50.2129 17.1348 48.7965C17.1399 48.5095 17.3239 48.1915 17.5095 47.9508C18.7418 46.3453 20.1958 45.0407 22.2754 44.6591C23.6556 44.4047 24.9961 44.6505 26.292 45.0922C27.6206 45.546 28.6948 46.3677 29.5576 47.5005C29.8274 47.8546 30.3087 48.1124 30.7452 48.2637C33.9214 49.3638 37.113 50.4226 40.2943 51.5056C41.0506 51.7634 41.7002 52.1416 42.2193 52.8171C42.7847 53.5511 42.661 55.1016 42.2726 55.6344C41.5834 56.5816 40.4507 56.9889 39.3817 56.6538C35.9701 55.5811 32.5602 54.5051 29.1503 53.429C28.7945 53.3173 28.449 53.1712 28.0898 53.0767C27.1205 52.824 26.6942 53.0595 26.2147 54.0805C25.4482 53.9516 24.6816 53.8227 23.9134 53.6938C23.9804 53.5631 24.0629 53.4376 24.1144 53.3018C24.3619 52.6383 24.0801 51.8803 23.5026 51.6396C22.7498 51.3251 22.1809 51.5726 21.7633 52.2688C21.4659 52.7655 21.8028 53.1351 21.8698 53.5614Z" fill="#EDD6FF"/>
<path d="M4.61621 49.3792C6.28851 49.3792 7.91268 49.3792 9.59529 49.3792C9.59529 53.9069 9.59529 58.4036 9.59529 62.9622C7.96424 62.9622 6.30742 62.9622 4.61621 62.9622C4.61621 58.4552 4.61621 53.9498 4.61621 49.3792Z" fill="#8D2ED1"/>
<path d="M12.2705 60.6547C12.2705 56.8799 12.2705 53.1774 12.2705 49.4593C13.025 49.4593 13.7469 49.4593 14.5392 49.4593C14.5392 49.6209 14.5392 49.7619 14.5392 49.9028C14.5392 53.2496 14.5272 56.5946 14.5512 59.9414C14.5547 60.5155 14.3708 60.708 13.8139 60.6633C13.3241 60.6238 12.8308 60.6547 12.2705 60.6547Z" fill="#EDD6FF"/>
<path d="M46.1004 18.2682C46.879 17.7818 47.3722 17.8419 48.1405 18.5174C48.1731 18.8439 48.278 19.1842 48.2247 19.4953C48.1371 20.0075 47.795 20.3444 47.2571 20.432C46.6916 20.5231 46.1709 20.42 45.8873 19.882C45.6346 19.4008 45.5624 18.8783 45.9749 18.4125C46.0179 18.3644 46.0591 18.3163 46.1004 18.2682Z" fill="black"/>
<path d="M21.8703 53.5604C21.8033 53.1342 21.4664 52.7646 21.7655 52.2662C22.1831 51.5701 22.7503 51.3227 23.5048 51.6372C24.0823 51.8778 24.3641 52.6357 24.1166 53.2992C24.0651 53.4349 23.9843 53.5604 23.9156 53.691C22.8689 54.2376 22.6368 54.2238 21.8703 53.5604Z" fill="black"/>
</svg>
