<svg width="64" height="65" viewBox="0 0 64 65" fill="none" xmlns="http://www.w3.org/2000/svg">
<rect width="54.9685" height="54.9685" rx="12.8832" transform="matrix(1 0 0 -1 0.046875 55.5747)" fill="url(#paint0_linear_608_22000)"/>
<g filter="url(#filter0_b_608_22000)">
<rect width="54.9685" height="54.9685" rx="12.8832" transform="matrix(1 0 0 -1 8.63574 64.1636)" fill="#EEEEEE" fill-opacity="0.61"/>
<rect x="0.429441" y="-0.429441" width="54.1096" height="54.1096" rx="12.4538" transform="matrix(1 0 0 -1 8.63574 63.3047)" stroke="white" stroke-width="0.858883"/>
</g>
<path d="M46.0786 38.468L46.0785 38.4685C45.9073 38.9965 45.9649 39.5538 46.0535 40.0058C46.1296 40.3947 46.2516 40.8067 46.3592 41.1702C46.3789 41.2364 46.398 41.301 46.4163 41.3636C46.5441 41.801 46.6359 42.1535 46.6632 42.4447C46.6907 42.7386 46.6377 42.8298 46.6245 42.8479L46.6243 42.8482C46.6084 42.8701 46.5346 42.9497 46.2465 43.0149C45.9604 43.0795 45.5961 43.1014 45.1409 43.1146C45.0724 43.1165 45.0015 43.1183 44.9287 43.1201C44.5528 43.1296 44.128 43.1402 43.7402 43.1861C43.2857 43.24 42.7374 43.3549 42.2893 43.6806L42.2891 43.6808C41.842 44.0061 41.5659 44.4934 41.3768 44.9075C41.2171 45.2572 41.0782 45.6532 40.955 46.0044C40.9295 46.0772 40.9047 46.148 40.8804 46.2161C40.7281 46.6445 40.5946 46.9844 40.4441 47.2366C40.2929 47.4898 40.1922 47.5386 40.1609 47.5487L40.1605 47.5489C40.1475 47.5531 40.0505 47.5776 39.78 47.4592C39.513 47.3424 39.2073 47.1454 38.83 46.8874C38.7811 46.8539 38.7308 46.8193 38.6794 46.7839C38.3621 46.5656 38.0007 46.3169 37.645 46.1204C37.2377 45.8954 36.7229 45.6706 36.1644 45.6706C35.6058 45.6706 35.091 45.8954 34.6837 46.1204C34.328 46.3169 33.9666 46.5656 33.6494 46.7839C33.5979 46.8193 33.5476 46.8539 33.4987 46.8874C33.1214 47.1454 32.8157 47.3424 32.5487 47.4592C32.2782 47.5776 32.1812 47.5531 32.1682 47.5489L32.1678 47.5487C32.1365 47.5386 32.0358 47.4898 31.8847 47.2366C31.7341 46.9844 31.6006 46.6445 31.4483 46.2161C31.4241 46.148 31.3992 46.0772 31.3737 46.0045C31.2505 45.6532 31.1116 45.2572 30.9519 44.9075C30.7628 44.4934 30.4867 44.0061 30.0396 43.6808L30.0394 43.6806C29.5913 43.3549 29.0431 43.24 28.5885 43.1861C28.2007 43.1402 27.7759 43.1296 27.4 43.1201C27.3272 43.1183 27.2563 43.1165 27.1878 43.1146C26.7326 43.1014 26.3683 43.0795 26.0822 43.0149C25.7941 42.9497 25.7203 42.8701 25.7044 42.8482L25.7042 42.8479C25.691 42.8298 25.638 42.7386 25.6655 42.4447C25.6928 42.1535 25.7846 41.801 25.9124 41.3636C25.9307 41.301 25.9499 41.2364 25.9695 41.1702C26.0771 40.8067 26.1991 40.3947 26.2752 40.0058C26.3638 39.5538 26.4214 38.9965 26.2503 38.4685L26.2501 38.468C26.08 37.9442 25.7009 37.5335 25.3679 37.2292C25.0905 36.9758 24.7631 36.726 24.4717 36.5037C24.4061 36.4536 24.3422 36.4049 24.2812 36.3579C23.9226 36.0815 23.6414 35.8487 23.4488 35.6263C23.2562 35.4041 23.2368 35.288 23.2368 35.2456C23.2368 35.2031 23.2562 35.0871 23.4488 34.8648C23.6414 34.6425 23.9226 34.4097 24.2812 34.1332C24.3422 34.0862 24.4061 34.0375 24.4717 33.9874C24.7631 33.7651 25.0906 33.5153 25.3679 33.2619C25.7009 32.9577 26.08 32.547 26.2501 32.0231L26.2503 32.0227C26.4214 31.4946 26.3638 30.9373 26.2752 30.4853C26.1991 30.0965 26.0771 29.6844 25.9695 29.3209C25.9498 29.2547 25.9307 29.1901 25.9124 29.1275C25.7846 28.6901 25.6928 28.3376 25.6655 28.0465C25.638 27.7526 25.691 27.6614 25.7042 27.6433L25.7044 27.643C25.7203 27.6211 25.7941 27.5414 26.0822 27.4763C26.3683 27.4116 26.7326 27.3897 27.1878 27.3766C27.2563 27.3746 27.3272 27.3728 27.4001 27.371C27.7759 27.3616 28.2007 27.3509 28.5885 27.305C29.0431 27.2512 29.5913 27.1363 30.0394 26.8105L30.0396 26.8103C30.4867 26.485 30.7628 25.9978 30.9519 25.5837C31.1116 25.2339 31.2505 24.8379 31.3737 24.4866C31.3992 24.4139 31.4241 24.3431 31.4483 24.2751C31.6006 23.8467 31.7341 23.5067 31.8847 23.2546C32.0358 23.0014 32.1365 22.9526 32.1678 22.9424L32.1682 22.9423C32.1812 22.938 32.2782 22.9136 32.5487 23.0319C32.8157 23.1487 33.1214 23.3457 33.4987 23.6038C33.5476 23.6372 33.5979 23.6718 33.6494 23.7072C33.9666 23.9255 34.328 24.1742 34.6837 24.3707C35.091 24.5958 35.6058 24.8205 36.1644 24.8205C36.7229 24.8205 37.2377 24.5958 37.645 24.3707C38.0007 24.1742 38.3621 23.9255 38.6793 23.7072C38.7308 23.6718 38.7811 23.6372 38.83 23.6038C39.2073 23.3457 39.513 23.1487 39.78 23.0319C40.0505 22.9136 40.1475 22.938 40.1605 22.9423L40.1609 22.9424C40.1922 22.9526 40.2929 23.0014 40.4441 23.2546C40.5946 23.5067 40.7281 23.8467 40.8804 24.2751C40.9047 24.3431 40.9295 24.414 40.955 24.4867C41.0782 24.8379 41.2171 25.234 41.3768 25.5837C41.5659 25.9978 41.842 26.485 42.2891 26.8103L42.2893 26.8105C42.7374 27.1363 43.2857 27.2512 43.7402 27.305C44.128 27.3509 44.5528 27.3616 44.9287 27.371C45.0015 27.3728 45.0724 27.3746 45.1409 27.3766C45.5961 27.3897 45.9604 27.4116 46.2465 27.4763C46.5346 27.5414 46.6084 27.6211 46.6243 27.643L46.6245 27.6432C46.6377 27.6614 46.6907 27.7526 46.6632 28.0465C46.6359 28.3376 46.5441 28.6901 46.4163 29.1275C46.398 29.1901 46.3789 29.2547 46.3593 29.3209C46.2516 29.6844 46.1296 30.0965 46.0535 30.4853C45.965 30.9371 45.9074 31.4939 46.0781 32.0217C46.2474 32.5461 46.627 32.9567 46.9597 33.2603C47.2364 33.5129 47.5633 33.7621 47.8544 33.984C47.9206 34.0345 47.9849 34.0835 48.0464 34.1308C48.4052 34.4072 48.6866 34.6401 48.8793 34.8628C49.072 35.0852 49.0919 35.202 49.0919 35.2456C49.0919 35.2894 49.072 35.406 48.8798 35.628C48.6873 35.8503 48.4063 36.0828 48.0477 36.359C47.9864 36.4062 47.9223 36.4551 47.8563 36.5054C47.5652 36.7273 47.2381 36.9766 46.9611 37.2294C46.628 37.5335 46.2488 37.944 46.0786 38.468ZM25.1487 29.5743C24.8719 28.6381 24.5964 27.7065 25.0094 27.1383L25.4332 31.7578C25.6221 31.1753 25.3849 30.3731 25.1487 29.5743ZM36.1201 40.9737C39.4405 40.9737 42.1322 38.2819 42.1322 34.9615C42.1322 31.6411 39.4405 28.9493 36.1201 28.9493C32.7996 28.9493 30.1079 31.6411 30.1079 34.9615C30.1079 38.2819 32.7996 40.9737 36.1201 40.9737ZM40.4145 34.9615C40.4145 37.3332 38.4918 39.2559 36.1201 39.2559C33.7483 39.2559 31.8256 37.3332 31.8256 34.9615C31.8256 32.5897 33.7483 30.6671 36.1201 30.6671C38.4918 30.6671 40.4145 32.5897 40.4145 34.9615Z" stroke="#E749EE" stroke-width="1.71777"/>
<defs>
<filter id="filter0_b_608_22000" x="1.76468" y="2.32401" width="68.7109" height="68.7106" filterUnits="userSpaceOnUse" color-interpolation-filters="sRGB">
<feFlood flood-opacity="0" result="BackgroundImageFix"/>
<feGaussianBlur in="BackgroundImageFix" stdDeviation="3.43553"/>
<feComposite in2="SourceAlpha" operator="in" result="effect1_backgroundBlur_608_22000"/>
<feBlend mode="normal" in="SourceGraphic" in2="effect1_backgroundBlur_608_22000" result="shape"/>
</filter>
<linearGradient id="paint0_linear_608_22000" x1="27.4842" y1="0" x2="27.4842" y2="54.9685" gradientUnits="userSpaceOnUse">
<stop stop-color="#E541ED"/>
<stop offset="1" stop-color="#FEEBFF"/>
</linearGradient>
</defs>
</svg>
