<svg width="40" height="40" viewBox="0 0 40 40" fill="none" xmlns="http://www.w3.org/2000/svg">
<rect width="40" height="40" rx="4" fill="white"/>
<g clip-path="url(#clip0_356_14123)">
<path d="M15.1675 27.5H11.5394V15.8162H15.1675V27.5ZM13.3512 14.2225C12.1912 14.2225 11.25 13.2613 11.25 12.1012C11.25 11.544 11.4714 11.0095 11.8654 10.6154C12.2595 10.2214 12.794 10 13.3512 10C13.9085 10 14.443 10.2214 14.8371 10.6154C15.2311 11.0095 15.4525 11.544 15.4525 12.1012C15.4525 13.2613 14.5112 14.2225 13.3512 14.2225ZM28.7462 27.5H25.1262V21.8125C25.1262 20.4569 25.0987 18.7188 23.24 18.7188C21.3537 18.7188 21.0644 20.1912 21.0644 21.715V27.5H17.44V15.8162H20.9194V17.41H20.97C21.4544 16.4919 22.6375 15.5231 24.4025 15.5231C28.0744 15.5231 28.7494 17.9413 28.7494 21.0819V27.5H28.7462Z" fill="#8D2ED1"/>
</g>
<defs>
<clipPath id="clip0_356_14123">
<rect width="20" height="20" fill="white" transform="translate(10 10)"/>
</clipPath>
</defs>
</svg>
