<svg width="38" height="38" viewBox="0 0 38 38" fill="none" xmlns="http://www.w3.org/2000/svg">
<g filter="url(#filter0_d_286_12630)">
<path d="M5 7.46154C5 19.3565 14.6435 29 26.5385 29H29.7692C30.6261 29 31.4478 28.6596 32.0537 28.0537C32.6596 27.4478 33 26.6261 33 25.7692V23.7992C33 23.0583 32.496 22.4121 31.7766 22.2326L25.4256 20.6445C24.7938 20.4866 24.1305 20.7235 23.7413 21.2433L22.3485 23.0999C21.9436 23.6398 21.2443 23.8782 20.6111 23.6455C18.2603 22.7813 16.1256 21.4164 14.3546 19.6454C12.5836 17.8744 11.2187 15.7397 10.3545 13.3889C10.1218 12.7557 10.3602 12.0564 10.9001 11.6515L12.7567 10.2587C13.2779 9.86954 13.5134 9.20472 13.3555 8.57436L11.7674 2.22338C11.68 1.87402 11.4784 1.56388 11.1945 1.34223C10.9107 1.12057 10.5609 1.00012 10.2008 1H8.23077C7.37392 1 6.55216 1.34038 5.94627 1.94627C5.34038 2.55216 5 3.37392 5 4.23077V7.46154Z" stroke="white" stroke-width="2" stroke-linecap="round" stroke-linejoin="round" shape-rendering="crispEdges"/>
</g>
<defs>
<filter id="filter0_d_286_12630" x="0" y="0" width="38" height="38" filterUnits="userSpaceOnUse" color-interpolation-filters="sRGB">
<feFlood flood-opacity="0" result="BackgroundImageFix"/>
<feColorMatrix in="SourceAlpha" type="matrix" values="0 0 0 0 0 0 0 0 0 0 0 0 0 0 0 0 0 0 127 0" result="hardAlpha"/>
<feOffset dy="4"/>
<feGaussianBlur stdDeviation="2"/>
<feComposite in2="hardAlpha" operator="out"/>
<feColorMatrix type="matrix" values="0 0 0 0 0 0 0 0 0 0 0 0 0 0 0 0 0 0 0.25 0"/>
<feBlend mode="normal" in2="BackgroundImageFix" result="effect1_dropShadow_286_12630"/>
<feBlend mode="normal" in="SourceGraphic" in2="effect1_dropShadow_286_12630" result="shape"/>
</filter>
</defs>
</svg>
