<svg width="30" height="24" viewBox="0 0 30 24" fill="none" xmlns="http://www.w3.org/2000/svg">
<path d="M29 4.23077V19.3077C29 20.1645 28.6596 20.9863 28.0537 21.5922C27.4478 22.1981 26.6261 22.5385 25.7692 22.5385H4.23077C3.37392 22.5385 2.55216 22.1981 1.94627 21.5922C1.34038 20.9863 1 20.1645 1 19.3077V4.23077M29 4.23077C29 3.37392 28.6596 2.55216 28.0537 1.94627C27.4478 1.34038 26.6261 1 25.7692 1H4.23077C3.37392 1 2.55216 1.34038 1.94627 1.94627C1.34038 2.55216 1 3.37392 1 4.23077M29 4.23077V4.57969C29.0001 5.13129 28.8589 5.67371 28.59 6.1553C28.321 6.63688 27.9332 7.04159 27.4636 7.33087L16.6944 13.9575C16.1849 14.2713 15.5983 14.4375 15 14.4375C14.4017 14.4375 13.8151 14.2713 13.3056 13.9575L2.53641 7.33231C2.06676 7.04303 1.67899 6.63832 1.41005 6.15673C1.1411 5.67515 0.999939 5.13272 1 4.58113V4.23077" stroke="white" stroke-width="2" stroke-linecap="round" stroke-linejoin="round"/>
</svg>
