<svg width="22" height="22" viewBox="0 0 22 22" fill="none" xmlns="http://www.w3.org/2000/svg">
<path d="M11.1813 1C5.75915 1 1.36312 5.36165 1.36312 10.7425C1.36312 12.5831 1.87795 14.3046 2.77201 15.7732L1 21L6.43589 19.2731C7.8425 20.0448 9.46022 20.485 11.1813 20.485C16.6042 20.485 21 16.1227 21 10.7425C21 5.36165 16.6042 1 11.1813 1ZM16.0636 14.4424C15.8326 15.015 14.7879 15.5376 14.327 15.5617C13.8666 15.5861 13.8534 15.9186 11.3431 14.828C8.83304 13.7372 7.3229 11.085 7.20384 10.9142C7.08469 10.744 6.23152 9.52817 6.27754 8.3046C6.32388 7.0808 6.99393 6.50344 7.23308 6.2633C7.47196 6.02281 7.74585 5.97973 7.91308 5.97701C8.11076 5.97379 8.23879 5.97112 8.38509 5.97652C8.53125 5.98205 8.7508 5.94594 8.94089 6.45147C9.13089 6.95696 9.58567 8.19938 9.64384 8.32598C9.70196 8.45272 9.73795 8.59946 9.64839 8.76219C9.55857 8.92527 9.51259 9.02714 9.38228 9.16768C9.25125 9.30821 9.10665 9.48205 8.98978 9.58951C8.85942 9.70848 8.72326 9.83826 8.86031 10.0926C8.99728 10.3467 9.46982 11.1799 10.1897 11.8665C11.115 12.7492 11.9129 13.0419 12.1584 13.1753C12.4046 13.3094 12.5515 13.2945 12.7042 13.1338C12.8562 12.9732 13.3577 12.4309 13.5344 12.1888C13.7109 11.946 13.8764 11.9936 14.1032 12.0848C14.3299 12.1764 15.5388 12.8239 15.785 12.9576C16.031 13.0911 16.1954 13.1598 16.2542 13.2657C16.313 13.3719 16.2945 13.8697 16.0636 14.4424V14.4424Z" stroke="#8D2ED1"/>
</svg>
