<svg width="31" height="31" viewBox="0 0 31 31" fill="none" xmlns="http://www.w3.org/2000/svg">
<path d="M16.2539 1C8.66281 1 2.50837 7.10631 2.50837 14.6395C2.50837 17.2164 3.22913 19.6264 4.48081 21.6824L2 29L9.61025 26.5824C11.5795 27.6627 13.8443 28.279 16.2539 28.279C23.8459 28.279 30 22.1718 30 14.6395C30 7.10631 23.8459 1 16.2539 1ZM23.089 19.8194C22.7656 20.6211 21.3031 21.3527 20.6578 21.3864C20.0132 21.4206 19.9948 21.886 16.4803 20.3592C12.9662 18.8321 10.8521 15.119 10.6854 14.8799C10.5186 14.6416 9.32412 12.9394 9.38856 11.2264C9.45344 9.51313 10.3915 8.70481 10.7263 8.36862C11.0608 8.03194 11.4442 7.97163 11.6783 7.96781C11.9551 7.96331 12.1343 7.95956 12.3391 7.96712C12.5437 7.97487 12.8511 7.92431 13.1173 8.63206C13.3833 9.33975 14.0199 11.0791 14.1014 11.2564C14.1827 11.4338 14.2331 11.6393 14.1077 11.8671C13.982 12.0954 13.9176 12.238 13.7352 12.4347C13.5518 12.6315 13.3493 12.8749 13.1857 13.0253C13.0032 13.1919 12.8126 13.3736 13.0044 13.7296C13.1962 14.0854 13.8578 15.2519 14.8656 16.2131C16.1609 17.4488 17.278 17.8587 17.6217 18.0454C17.9664 18.2332 18.1721 18.2123 18.3859 17.9874C18.5986 17.7624 19.3008 17.0032 19.5481 16.6643C19.7953 16.3244 20.0269 16.391 20.3445 16.5187C20.6619 16.647 22.3543 17.5535 22.6991 17.7407C23.0434 17.9275 23.2736 18.0238 23.3559 18.1719C23.4383 18.3207 23.4123 19.0176 23.089 19.8194V19.8194Z" stroke="white" stroke-width="2"/>
</svg>
