<svg width="375" height="144" viewBox="0 0 375 144" fill="none" xmlns="http://www.w3.org/2000/svg">
<mask id="mask0_1211_838" style="mask-type:alpha" maskUnits="userSpaceOnUse" x="0" y="0" width="375" height="144">
<rect width="375" height="144" fill="#D9D9D9"/>
</mask>
<g mask="url(#mask0_1211_838)">
<g opacity="0.1">
<path d="M151.801 41.4207L151.926 41.6699L146.071 45.5328L150.929 51.2649L150.805 51.5141L145.572 45.4082L151.801 41.4207Z" fill="#7A23A5"/>
<path d="M137.848 32.9473L137.972 33.0719L145.945 45.4083L145.696 45.5329L137.848 33.1965L120.78 42.4176L125.514 51.6388L125.265 51.7634L120.407 42.293H120.531L137.848 32.9473Z" fill="#7A23A5"/>
<path d="M106.704 32.5737L120.781 42.4179L111.562 49.3961H111.438L100.973 46.2808L96.2391 53.1344H96.1145L84.0303 45.7824L80.7912 52.5113H80.5421L83.9057 45.4086L84.0303 45.5332L96.1145 52.8852L100.849 45.907L100.973 46.0316L111.438 49.1469L120.408 42.4179L106.579 32.6983L106.704 32.5737Z" fill="#7A23A5"/>
<path d="M69.2044 26.7166L69.4535 27.3396L76.43 44.5358L84.0293 45.4081L83.9047 45.7819L76.3054 44.9096V44.785L69.4535 27.9627L69.0798 36.3115H68.8306L57.3693 36.4361L48.7733 39.9252L40.5511 46.1557L36.1908 50.3925L36.0662 50.2679L40.4265 46.0311L48.6487 39.676L57.3693 36.1869L68.706 36.0623L69.2044 26.7166Z" fill="#7A23A5"/>
<path d="M40.1754 46.6548L43.5391 50.6423L43.4145 50.8915L40.0509 46.904L40.1754 46.6548Z" fill="#7A23A5"/>
<path d="M41.2967 26.4678L41.4213 26.5924L48.7715 39.6764L48.6469 39.8011L41.2967 26.8416L34.5694 31.3276L34.4448 31.0783L41.2967 26.4678Z" fill="#7A23A5"/>
<path d="M92.7507 28.96H92.9999L94.1211 38.5549L100.848 45.9069L110.192 39.9257L110.316 40.0503L100.973 46.2808L100.848 46.1562L93.8719 38.6796L92.7507 28.96Z" fill="#7A23A5"/>
<path d="M145.571 14.2561L145.695 14.3807L133.736 22.8542L119.284 24.848H119.16L107.699 21.6081L107.823 21.3589L119.284 24.5987L133.736 22.4804L145.571 14.2561Z" fill="#7A23A5"/>
<path d="M134.983 7.40234H135.232L134.859 22.854H134.61L134.983 7.40234Z" fill="#7A23A5"/>
<path d="M56.2473 15.0039H56.4965L55.6245 24.3497L57.4931 36.3122L64.7188 44.9103L64.4696 45.0349L57.244 36.4368L55.3753 24.4743L56.2473 15.0039Z" fill="#7A23A5"/>
<path d="M149.558 51.5143C149.558 50.8912 150.056 50.1436 150.679 50.1436C151.426 50.1436 152.049 50.5174 152.174 51.265C152.174 52.0127 151.8 52.6358 151.053 52.7604C150.43 52.7604 149.682 52.2619 149.682 51.6389L149.558 51.5143Z" fill="#7A23A5"/>
<path d="M150.181 41.9193C150.181 41.2962 150.679 40.5486 151.426 40.5486C152.049 40.5486 152.672 41.047 152.797 41.6701C152.797 42.2931 152.423 43.0408 151.676 43.0408C150.928 43.0408 150.305 42.5423 150.181 41.9193Z" fill="#7A23A5"/>
<path d="M143.328 46.2809C143.203 44.9102 144.076 43.7887 145.321 43.6641C146.567 43.6641 147.813 44.4117 147.938 45.7824C147.938 47.0285 147.19 48.2746 145.82 48.3992C144.574 48.5239 143.328 47.6516 143.203 46.4055L143.328 46.2809Z" fill="#7A23A5"/>
<path d="M134.112 34.4429C133.862 32.2 135.482 30.2062 137.724 29.957C139.842 29.7078 141.96 31.3277 142.209 33.4461C142.458 35.689 140.963 37.6828 138.721 37.932C136.479 38.1812 134.485 36.5613 134.236 34.3183L134.112 34.4429Z" fill="#7A23A5"/>
<path d="M141.211 15.1281C140.961 12.8851 142.581 10.8914 144.699 10.6422C146.941 10.3929 148.935 12.0129 149.184 14.1312C149.433 16.3742 147.813 18.368 145.571 18.6172C143.328 18.8664 141.46 17.2465 141.086 15.1281H141.211Z" fill="#7A23A5"/>
<path d="M131.992 22.854C131.867 21.6079 132.739 20.4864 133.985 20.3618C135.231 20.3618 136.352 21.1095 136.476 22.3556C136.601 23.6017 135.729 24.7232 134.483 24.8478C133.237 24.9724 132.116 24.1001 131.992 22.854Z" fill="#7A23A5"/>
<path d="M132.866 8.02542C132.741 6.53009 133.738 5.28399 135.108 5.03477C136.603 4.78555 137.973 5.90704 138.098 7.40236C138.347 8.89769 137.226 10.1438 135.731 10.393C134.236 10.5176 132.99 9.52074 132.866 8.02542Z" fill="#7A23A5"/>
<path d="M73.4387 44.7855C73.1896 42.9164 74.56 41.2965 76.4287 41.0472C78.2973 40.798 80.0415 42.1687 80.166 44.0379C80.4152 45.907 79.0448 47.6516 77.1761 47.7762C75.3074 48.0254 73.5633 46.6547 73.4387 44.7855Z" fill="#7A23A5"/>
<path d="M67.2118 28.2121C67.0872 26.7168 67.9593 25.4707 69.4542 25.3461C70.8246 25.2215 72.0704 26.2184 72.3196 27.5891C72.4441 28.9598 71.4475 30.3305 70.0771 30.4551C68.5822 30.5797 67.3364 29.5828 67.2118 28.2121Z" fill="#7A23A5"/>
<path d="M66.8353 36.5614C66.8353 35.5645 67.4582 34.5676 68.5794 34.443C69.576 34.3184 70.5727 35.066 70.6973 36.1875C70.6973 37.309 70.0744 38.1813 68.9532 38.3059C67.8319 38.3059 66.9599 37.6828 66.8353 36.5614Z" fill="#7A23A5"/>
<path d="M60.7321 44.7852C60.4829 43.1653 61.7287 41.6699 63.3482 41.5453C64.9678 41.4207 66.4627 42.5422 66.5873 44.1621C66.8365 45.7821 65.5907 47.2774 63.9712 47.5266C62.3516 47.7758 60.8567 46.5297 60.6075 44.9098L60.7321 44.7852Z" fill="#7A23A5"/>
<path d="M55.4986 36.5611C55.4986 35.5642 56.1215 34.5674 57.1181 34.4427C58.1148 34.4427 58.9868 35.0658 59.1114 36.0627C59.236 37.0596 58.4885 38.0564 57.4919 38.1811C56.4953 38.3057 55.4986 37.558 55.374 36.5611H55.4986Z" fill="#7A23A5"/>
<path d="M52.8858 25.471C52.6366 23.8511 53.8824 22.3557 55.5019 22.2311C57.1215 22.1065 58.6164 23.228 58.8656 24.8479C58.9901 26.4679 57.8689 27.9632 56.2494 28.2124C54.6299 28.4616 53.1349 27.2155 53.0103 25.5956L52.8858 25.471Z" fill="#7A23A5"/>
<path d="M54.0049 15.751C53.8804 14.5049 54.7524 13.5081 55.8736 13.3835C57.1194 13.2588 58.1161 14.1311 58.3652 15.2526C58.3652 16.4987 57.6178 17.4956 56.372 17.6202C55.2507 17.7448 54.1295 16.9971 54.0049 15.751Z" fill="#7A23A5"/>
<path d="M39.0555 26.8414C39.0555 25.5953 39.803 24.4739 40.9242 24.3492C42.17 24.3492 43.1666 25.0969 43.2912 26.343C43.4158 27.4645 42.6683 28.586 41.4225 28.7106C40.1767 28.7106 39.1801 27.9629 38.9309 26.8414H39.0555Z" fill="#7A23A5"/>
<path d="M32.9521 31.3276C32.9521 30.4554 33.4504 29.5831 34.4471 29.4585C35.3191 29.4585 36.0666 29.9569 36.1912 30.8292C36.3157 31.7015 35.6929 32.5737 34.8208 32.6984C33.9487 32.823 33.0767 32.1999 33.0767 31.3276H32.9521Z" fill="#7A23A5"/>
<path d="M45.6564 40.4238C45.4073 38.6793 46.6531 37.184 48.2726 37.0593C50.0167 36.8101 51.5116 38.0562 51.6362 39.8008C51.8854 41.4207 50.6396 43.0406 48.8955 43.1652C47.2759 43.4145 45.6564 42.1684 45.5318 40.4238H45.6564Z" fill="#7A23A5"/>
<path d="M37.6838 46.4054C37.6838 45.2839 38.3067 44.1625 39.5525 44.0378C40.6737 44.0378 41.6703 44.7855 41.7949 45.907C41.7949 47.0285 41.172 48.15 39.9262 48.2746C38.805 48.2746 37.6838 47.5269 37.5592 46.4054H37.6838Z" fill="#7A23A5"/>
<path d="M42.4193 50.7665C42.4193 50.7665 42.793 49.645 43.4159 49.645C44.0388 49.645 44.5371 50.0188 44.5371 50.5173C44.5371 51.1403 44.288 51.6388 43.6651 51.7634C43.1667 51.7634 42.5438 51.3896 42.4193 50.7665Z" fill="#7A23A5"/>
<path d="M35.1946 50.8914C35.1946 50.8914 35.5684 49.7699 36.1913 49.7699C36.8142 49.7699 37.3125 50.1437 37.3125 50.6422C37.3125 51.2652 36.9388 51.7637 36.4404 51.7637C35.8176 51.7637 35.3192 51.5144 35.3192 50.8914H35.1946Z" fill="#7A23A5"/>
<path d="M104.711 22.6049C104.586 21.1096 105.583 19.6143 107.202 19.4897C108.697 19.3651 110.068 20.4866 110.317 21.9819C110.566 23.4772 109.445 24.9725 107.825 25.0971C106.206 25.2217 104.96 24.1003 104.711 22.6049Z" fill="#7A23A5"/>
<path d="M104.087 33.6951C104.087 32.3244 104.959 31.2029 106.33 30.9537C107.7 30.829 108.821 31.8259 109.07 33.072C109.07 34.4427 108.198 35.6888 106.828 35.8134C105.458 35.9381 104.336 34.9412 104.087 33.6951Z" fill="#7A23A5"/>
<path d="M108.322 40.6733C108.322 39.5518 109.07 38.5549 110.191 38.4303C111.312 38.3057 112.309 39.0533 112.434 40.1748C112.434 41.2963 111.811 42.2932 110.689 42.4178C109.568 42.5424 108.572 41.7948 108.447 40.6733H108.322Z" fill="#7A23A5"/>
<path d="M91.1288 29.4581C91.1288 28.3366 91.8763 27.3397 92.8729 27.2151C93.9942 27.2151 94.9908 27.8381 95.1154 28.9596C95.24 30.0811 94.4925 31.078 93.3712 31.2026C92.3746 31.2026 91.378 30.5796 91.1288 29.4581Z" fill="#7A23A5"/>
<path d="M79.1691 53.0095C79.1691 52.1373 79.6675 51.265 80.5395 51.1404C81.4116 51.1404 82.2836 51.6388 82.4082 52.5111C82.4082 53.3834 81.9099 54.131 80.9132 54.2556C80.0412 54.2556 79.2937 53.7572 79.1691 52.8849V53.0095Z" fill="#7A23A5"/>
<path d="M81.6628 46.2804C81.5382 45.159 82.2856 44.1621 83.5314 44.0375C84.6527 43.9129 85.7739 44.6605 85.8984 45.782C85.8984 46.9035 85.151 47.9004 84.0297 48.1496C82.9085 48.2742 81.9119 47.4019 81.6628 46.2804Z" fill="#7A23A5"/>
<path d="M98.9783 46.5301C98.8537 45.4086 99.6012 44.4117 100.722 44.2871C101.844 44.2871 102.84 45.0348 102.965 46.0316C102.965 47.1531 102.342 48.15 101.221 48.2746C100.1 48.2746 99.1029 47.6516 99.1029 46.5301H98.9783Z" fill="#7A23A5"/>
<path d="M123.394 51.888C123.27 50.7665 124.017 49.7696 125.139 49.645C126.26 49.645 127.132 50.2681 127.381 51.3896C127.506 52.511 126.758 53.3833 125.637 53.6325C124.516 53.7571 123.519 53.0095 123.394 51.888Z" fill="#7A23A5"/>
<path d="M108.446 50.1437C108.322 48.5238 109.443 47.0285 111.062 46.9039C112.682 46.7792 114.177 47.9007 114.426 49.5207C114.551 51.1406 113.429 52.6359 111.81 52.8851C110.066 53.0097 108.695 51.8883 108.446 50.2683V50.1437Z" fill="#7A23A5"/>
<path d="M117.543 43.1654C117.418 41.5455 118.539 40.0502 120.159 39.8009C121.778 39.6763 123.273 40.7978 123.398 42.4178C123.647 44.0377 122.401 45.533 120.782 45.6576C119.162 45.9068 117.667 44.6607 117.418 43.0408L117.543 43.1654Z" fill="#7A23A5"/>
<path d="M92.9989 53.3834C92.8743 51.7635 93.9955 50.2682 95.615 50.019C97.2346 49.8944 98.7295 51.0158 98.8541 52.6358C99.1033 54.2557 97.982 55.751 96.2379 56.0002C94.6184 56.1249 93.1235 55.0034 92.8743 53.3834H92.9989Z" fill="#7A23A5"/>
<path d="M91.1286 39.0537C90.8794 37.5583 92.0007 36.063 93.6202 35.9384C95.1152 35.8138 96.6101 36.9353 96.7347 38.4306C96.8593 39.9259 95.738 41.2966 94.2431 41.5459C92.6236 41.6705 91.2532 40.549 91.1286 39.0537Z" fill="#7A23A5"/>
<path d="M115.922 25.3461C115.673 23.2278 117.168 21.3586 119.286 21.1094C121.404 20.8602 123.273 22.3555 123.522 24.4739C123.771 26.5922 122.276 28.4614 120.158 28.7106C118.04 28.9598 116.172 27.4645 115.922 25.3461Z" fill="#7A23A5"/>
<path d="M55.6274 63.2275L55.752 63.3522L49.8967 67.2151L54.8799 73.0717L54.6308 73.1963L49.523 67.2151L55.6274 63.2275Z" fill="#7A23A5"/>
<path d="M41.8004 54.6299V54.7545L49.7734 67.2155L49.5243 67.3401L41.6758 55.0037L24.6084 64.2249L29.3424 73.446L29.0932 73.5706L24.3592 64.1003L24.4838 63.9756L41.8004 54.6299Z" fill="#7A23A5"/>
<path d="M10.5304 54.2561L24.7324 64.1003L15.389 71.2031L4.79972 68.0878L0.065691 74.9414L-0.0588913 74.8168L-12.1431 67.5894L-15.2576 74.3183L-15.5067 74.1937L-12.1431 67.2156L-0.0588913 74.5675L4.67514 67.714H4.79972L15.389 70.8292L24.2341 64.1003L10.4058 54.5053L10.5304 54.2561Z" fill="#7A23A5"/>
<path d="M-3.29661 50.767H-3.04745L-1.92623 60.3619L4.80107 67.7139L14.0199 61.608L14.1445 61.8573L4.80107 68.0878L4.67649 67.9632L-2.1754 60.4866L-3.29661 50.767Z" fill="#7A23A5"/>
<path d="M49.3989 36.063L49.5234 36.1876L37.6884 44.5365L23.1126 46.5302L11.6513 43.415L11.7759 43.0412L23.1126 46.281L37.5638 44.2873L49.3989 36.063Z" fill="#7A23A5"/>
<path d="M38.8075 29.2092H39.0566L38.8075 44.6609H38.4337L38.8075 29.2092Z" fill="#7A23A5"/>
<path d="M53.3838 73.3211C53.3838 72.5735 53.8822 71.9504 54.5051 71.9504C55.128 71.9504 55.8754 72.3243 56 73.0719C56 73.8196 55.5017 74.4426 54.7542 74.5673C54.1313 74.5673 53.3838 74.0688 53.3838 73.4458V73.3211Z" fill="#7A23A5"/>
<path d="M54.1319 63.7263C54.1319 62.9786 54.5056 62.3556 55.2531 62.231C55.876 62.231 56.6235 62.7294 56.748 63.3524C56.748 64.1001 56.2497 64.7232 55.6268 64.8478C54.8794 64.8478 54.2564 64.4739 54.1319 63.7263Z" fill="#7A23A5"/>
<path d="M47.1561 68.0874C47.0315 66.7166 47.9036 65.7198 49.1494 65.4705C50.3952 65.3459 51.641 66.2182 51.7655 67.5889C51.8901 68.835 51.0181 70.0811 49.6477 70.2057C48.4019 70.3303 47.1561 69.4581 47.0315 68.212L47.1561 68.0874Z" fill="#7A23A5"/>
<path d="M37.9356 56.2498C37.6864 54.0069 39.306 52.0131 41.5484 51.7639C43.7908 51.5146 45.7841 53.1346 46.0333 55.253C46.2824 57.4959 44.6629 59.4897 42.545 59.7389C40.3026 59.9881 38.3093 58.3682 38.0602 56.2498H37.9356Z" fill="#7A23A5"/>
<path d="M45.0372 36.8106C44.788 34.6923 46.4075 32.5739 48.65 32.3247C50.8924 32.0754 52.8857 33.6954 53.1348 35.8137C53.384 38.0567 51.7644 40.0505 49.6466 40.2997C47.4042 40.5489 45.4109 38.929 45.1617 36.686L45.0372 36.8106Z" fill="#7A23A5"/>
<path d="M35.8179 44.6609C35.6933 43.4148 36.5654 42.2933 37.8112 42.1687C39.057 42.0441 40.1782 42.9164 40.3027 44.1625C40.3027 45.4086 39.5553 46.5301 38.3095 46.6547C37.0637 46.7793 35.9425 45.907 35.8179 44.6609Z" fill="#7A23A5"/>
<path d="M36.6899 29.7077C36.5653 28.2124 37.562 26.9663 39.0569 26.8417C40.5519 26.5924 41.7977 27.7139 41.9223 29.2093C42.1714 30.7046 41.0502 31.9507 39.5552 32.1999C38.0603 32.3245 36.8145 31.3276 36.5653 29.8323L36.6899 29.7077Z" fill="#7A23A5"/>
<path d="M8.53579 44.4118C8.41121 42.9165 9.40785 41.4212 11.0274 41.2966C12.6469 41.172 14.0173 42.2934 14.1419 43.7888C14.2665 45.2841 13.2698 46.7794 11.6503 46.904C10.1553 47.0286 8.66037 45.9071 8.53579 44.4118Z" fill="#7A23A5"/>
<path d="M8.03737 55.5018C7.78821 54.1311 8.78484 53.0096 10.1552 52.885C11.5256 52.7604 12.6468 53.6326 12.7714 55.0033C12.896 56.3741 12.0239 57.4956 10.6535 57.6202C9.28317 57.7448 8.16195 56.8725 8.03737 55.5018Z" fill="#7A23A5"/>
<path d="M12.1502 62.4802C12.0256 61.3587 12.7731 60.3618 13.8943 60.2372C14.8909 60.1126 16.0121 60.8602 16.1367 61.9817C16.1367 63.1032 15.3892 64.1001 14.3926 64.2247C13.2714 64.3493 12.2747 63.6016 12.1502 62.4802Z" fill="#7A23A5"/>
<path d="M2.80459 68.337C2.80459 67.2155 3.4275 66.2186 4.54872 66.094C5.66993 66.094 6.66657 66.717 6.79115 67.8385C6.91573 68.96 6.16824 69.9569 5.04702 70.0815C3.92581 70.0815 2.92917 69.3339 2.80459 68.337Z" fill="#7A23A5"/>
<path d="M27.2245 73.695C27.2245 72.5735 27.972 71.5766 28.9686 71.452C30.0899 71.452 31.0865 72.1997 31.2111 73.1966C31.3357 74.3181 30.5882 75.3149 29.467 75.4395C28.3458 75.4395 27.3491 74.8165 27.2245 73.695Z" fill="#7A23A5"/>
<path d="M12.2735 71.9505C12.0243 70.3306 13.2701 68.8353 14.8897 68.586C16.5092 68.3368 18.0042 69.5829 18.2533 71.2028C18.5025 72.8228 17.2567 74.3181 15.6371 74.4427C14.0176 74.6919 12.5227 73.4458 12.2735 71.8259V71.9505Z" fill="#7A23A5"/>
<path d="M21.3701 64.8476C21.121 63.2277 22.3668 61.7324 23.9863 61.6078C25.6058 61.3585 27.1008 62.6046 27.3499 64.2246C27.4745 65.8445 26.3533 67.3398 24.7338 67.589C23.1142 67.8383 21.6193 66.5922 21.3701 64.9722V64.8476Z" fill="#7A23A5"/>
<path d="M-3.05112 75.0658C-3.1757 73.4459 -2.05447 71.9506 -0.434935 71.7013C1.1846 71.5767 2.67953 72.6982 2.80411 74.3181C3.05327 75.9381 1.80749 77.4334 0.187953 77.558C-1.43158 77.6826 -2.92654 76.5611 -3.1757 74.9412L-3.05112 75.0658Z" fill="#7A23A5"/>
<path d="M-4.91828 60.7356C-5.16744 59.2403 -3.92163 57.745 -2.42668 57.6204C-0.931723 57.3711 0.563231 58.4926 0.68781 60.1126C0.81239 61.7325 -0.308835 63.1032 -1.80379 63.2278C-3.29874 63.3524 -4.7937 62.3555 -4.91828 60.7356Z" fill="#7A23A5"/>
<path d="M19.7501 47.0287C19.5009 45.0349 20.9959 43.0411 23.1137 42.9165C25.2316 42.6673 27.1003 44.1626 27.2248 46.281C27.474 48.3994 25.979 50.2685 23.8612 50.5177C21.8679 50.767 19.8746 49.2716 19.7501 47.1533V47.0287Z" fill="#7A23A5"/>
<path d="M68.3324 124.287L68.457 124.536L62.6018 128.274L67.4604 134.131L67.2112 134.38L62.1035 128.274L68.3324 124.287Z" fill="#7A23A5"/>
<path d="M54.5035 115.813L62.4766 128.274L62.2274 128.399L54.3789 116.062L37.3115 125.284L42.0455 134.505L41.7964 134.629L36.9378 125.159H37.0623L54.5035 115.813Z" fill="#7A23A5"/>
<path d="M23.235 115.315L37.3125 125.284L28.0936 132.386L27.969 132.262L17.5044 129.147L12.7704 136H12.6458L0.561569 128.648L-2.6775 135.377L-2.92667 135.252L0.436985 128.399H0.561569L12.6458 135.626L17.3798 128.897L17.5044 128.773L27.969 132.013L36.9388 125.284L23.1104 115.564L23.235 115.315Z" fill="#7A23A5"/>
<path d="M-14.2668 109.583L-14.0176 110.081L-7.04118 127.402L0.433594 128.399V128.648L-7.16576 127.651L-14.0176 110.829L-14.516 119.178H-14.6405L-26.1018 119.302L-34.6978 122.791L-42.9201 129.022L-47.2804 133.259L-47.4049 133.134L-43.0446 128.897L-34.8224 122.542L-26.1018 119.053L-14.6405 118.804L-14.2668 109.583Z" fill="#7A23A5"/>
<path d="M9.28 111.826H9.52916L10.6504 121.421L17.3777 128.773L26.7211 122.791L26.8457 123.041L17.3777 129.146L17.2531 129.022L10.4012 121.545L9.28 111.826Z" fill="#7A23A5"/>
<path d="M62.102 97.1216L62.2266 97.2462L50.2669 105.595L35.6911 107.713V107.589L24.2298 104.349L24.3544 104.1L35.6911 107.34L50.2669 105.47L62.102 97.1216Z" fill="#7A23A5"/>
<path d="M51.5126 90.2678H51.7617L51.388 105.719H51.1388L51.5126 90.2678Z" fill="#7A23A5"/>
<path d="M66.0889 134.38C66.0889 133.757 66.4626 133.009 67.2101 133.009C67.9576 133.009 68.5805 133.383 68.7051 134.131C68.7051 134.879 68.2068 135.502 67.5839 135.626C66.8364 135.626 66.2135 135.252 66.2135 134.505L66.0889 134.38Z" fill="#7A23A5"/>
<path d="M66.7115 124.785C66.7115 124.162 67.0853 123.414 67.8327 123.29C68.5802 123.29 69.2031 123.664 69.2031 124.411C69.2031 125.159 68.7048 125.782 68.0819 125.906C67.3344 125.906 66.7115 125.533 66.7115 124.785Z" fill="#7A23A5"/>
<path d="M59.8596 129.146C59.735 127.9 60.6071 126.654 61.9775 126.529C63.2232 126.405 64.4691 127.277 64.5936 128.648C64.7182 129.894 63.8462 131.015 62.6004 131.264C61.3546 131.389 60.1088 130.392 59.9842 129.146H59.8596Z" fill="#7A23A5"/>
<path d="M50.6422 117.308C50.3931 115.19 52.0126 113.072 54.1305 112.822C56.3729 112.573 58.3662 114.193 58.6153 116.436C58.8645 118.679 57.2449 120.673 55.0025 120.922C52.7601 121.171 50.7668 119.676 50.6422 117.433V117.308Z" fill="#7A23A5"/>
<path d="M57.6173 97.9937C57.3681 95.7507 58.9876 93.7569 61.2301 93.5077C63.4725 93.2585 65.4658 94.8784 65.7149 97.1214C65.9641 99.2398 64.3446 101.358 62.1021 101.607C59.8597 101.857 57.8664 100.237 57.6173 97.9937Z" fill="#7A23A5"/>
<path d="M48.5209 105.719C48.3963 104.473 49.2684 103.352 50.5142 103.227C51.76 103.103 52.8812 103.975 53.0057 105.221C53.1303 106.467 52.2583 107.589 51.0125 107.713C49.7667 107.838 48.6455 106.966 48.5209 105.719Z" fill="#7A23A5"/>
<path d="M49.2724 90.8912C49.1478 89.3959 50.1444 88.1498 51.6394 88.0252C53.1343 87.9006 54.3801 88.8974 54.6293 90.2681C54.8785 91.7635 53.7572 93.0096 52.2623 93.2588C50.7673 93.3834 49.5215 92.3865 49.2724 90.8912Z" fill="#7A23A5"/>
<path d="M21.2396 105.47C20.9905 103.85 22.1117 102.48 23.7312 102.355C25.2262 102.231 26.7211 103.352 26.8457 104.847C26.8457 106.343 25.8491 107.713 24.3541 107.963C22.7346 108.087 21.3642 107.09 21.2396 105.47Z" fill="#7A23A5"/>
<path d="M20.6174 116.561C20.3683 115.19 21.3649 114.068 22.7353 113.819C24.1057 113.819 25.2269 114.691 25.3515 116.062C25.4761 117.433 24.604 118.554 23.2336 118.679C21.8633 118.928 20.742 117.931 20.6174 116.561Z" fill="#7A23A5"/>
<path d="M24.8534 123.664C24.7289 122.542 25.6009 121.545 26.5976 121.421C27.7188 121.296 28.7154 122.044 28.84 123.165C28.9646 124.287 28.2171 125.284 27.0959 125.408C25.9747 125.408 24.978 124.785 24.8534 123.664Z" fill="#7A23A5"/>
<path d="M7.6619 112.324C7.6619 111.203 8.40937 110.206 9.406 110.081C10.5272 110.081 11.5239 110.704 11.6484 111.826C11.6484 112.947 11.0255 113.944 9.90433 114.069C8.9077 114.069 7.78648 113.446 7.6619 112.324Z" fill="#7A23A5"/>
<path d="M-1.93102 129.146C-1.93102 128.025 -1.18354 126.903 -0.0623291 126.779C1.05889 126.779 2.05553 127.526 2.30469 128.648C2.30469 129.769 1.55722 130.891 0.436 131.016C-0.685215 131.016 -1.80644 130.268 -1.93102 129.146Z" fill="#7A23A5"/>
<path d="M15.3847 129.396C15.3847 128.274 16.0076 127.277 17.1288 127.153C18.25 127.153 19.2467 127.776 19.3712 128.897C19.4958 130.019 18.7483 131.015 17.6271 131.14C16.5059 131.14 15.5092 130.517 15.3847 129.396Z" fill="#7A23A5"/>
<path d="M39.9279 134.754C39.9279 133.632 40.5508 132.635 41.7966 132.511C42.7933 132.386 43.7899 133.134 44.0391 134.255C44.0391 135.377 43.4161 136.374 42.2949 136.498C41.1737 136.498 40.1771 135.751 40.0525 134.754H39.9279Z" fill="#7A23A5"/>
<path d="M24.9782 133.009C24.729 131.389 25.9748 129.894 27.5944 129.645C29.2139 129.52 30.7088 130.642 30.8334 132.262C31.0826 133.882 29.8368 135.377 28.2173 135.502C26.5977 135.751 25.1028 134.629 24.8536 132.885L24.9782 133.009Z" fill="#7A23A5"/>
<path d="M34.0723 126.031C33.9477 124.411 35.069 122.916 36.6885 122.667C38.308 122.542 39.803 123.663 40.0522 125.283C40.3013 126.903 39.0555 128.399 37.436 128.648C35.8164 128.897 34.3215 127.651 34.0723 126.031Z" fill="#7A23A5"/>
<path d="M9.53091 136.249C9.40634 134.629 10.5275 133.134 12.1471 132.884C13.7666 132.76 15.2616 133.881 15.3861 135.626C15.6353 137.246 14.3895 138.741 12.77 138.99C11.1505 139.115 9.65549 137.993 9.40633 136.374L9.53091 136.249Z" fill="#7A23A5"/>
<path d="M7.66201 121.919C7.53743 120.424 8.65863 118.929 10.1536 118.804C11.6485 118.804 13.1435 119.801 13.2681 121.296C13.5172 122.916 12.396 124.287 10.7765 124.411C9.28154 124.536 7.78659 123.539 7.66201 121.919Z" fill="#7A23A5"/>
<path d="M32.4531 108.212C32.204 106.094 33.6989 104.224 35.6922 104.1C37.8101 103.851 39.6788 105.346 39.9279 107.464C40.1771 109.583 38.6821 111.452 36.6888 111.701C34.571 111.95 32.7023 110.455 32.4531 108.337V108.212Z" fill="#7A23A5"/>
</g>
<g opacity="0.1">
<path d="M223.996 41.4207L223.871 41.6699L229.726 45.5328L224.868 51.2649L224.992 51.5141L230.225 45.4082L223.996 41.4207Z" fill="#7A23A5"/>
<path d="M237.949 32.9473L237.825 33.0719L229.852 45.4083L230.101 45.5329L237.949 33.1965L255.017 42.4176L250.283 51.6388L250.532 51.7634L255.39 42.293H255.266L237.949 32.9473Z" fill="#7A23A5"/>
<path d="M269.093 32.5737L255.016 42.4179L264.235 49.3961H264.359L274.824 46.2808L279.558 53.1344H279.682L291.767 45.7824L295.006 52.5113H295.255L291.891 45.4086L291.767 45.5332L279.682 52.8852L274.948 45.907L274.824 46.0316L264.359 49.1469L255.389 42.4179L269.218 32.6983L269.093 32.5737Z" fill="#7A23A5"/>
<path d="M306.593 26.7166L306.343 27.3396L299.367 44.5358L291.768 45.4081L291.892 45.7819L299.491 44.9096V44.785L306.343 27.9627L306.717 36.3115H306.966L318.428 36.4361L327.024 39.9252L335.246 46.1557L339.606 50.3925L339.731 50.2679L335.37 46.0311L327.148 39.676L318.428 36.1869L307.091 36.0623L306.593 26.7166Z" fill="#7A23A5"/>
<path d="M335.621 46.6548L332.258 50.6423L332.382 50.8915L335.746 46.904L335.621 46.6548Z" fill="#7A23A5"/>
<path d="M334.5 26.4678L334.376 26.5924L327.025 39.6764L327.15 39.8011L334.5 26.8416L341.227 31.3276L341.352 31.0783L334.5 26.4678Z" fill="#7A23A5"/>
<path d="M283.046 28.96H282.797L281.676 38.5549L274.949 45.9069L265.605 39.9257L265.48 40.0503L274.824 46.2808L274.949 46.1562L281.925 38.6796L283.046 28.96Z" fill="#7A23A5"/>
<path d="M230.226 14.2561L230.102 14.3807L242.061 22.8542L256.512 24.848H256.637L268.098 21.6081L267.974 21.3589L256.512 24.5987L242.061 22.4804L230.226 14.2561Z" fill="#7A23A5"/>
<path d="M240.814 7.40234H240.564L240.938 22.854H241.187L240.814 7.40234Z" fill="#7A23A5"/>
<path d="M319.55 15.0039H319.3L320.172 24.3497L318.304 36.3122L311.078 44.9103L311.327 45.0349L318.553 36.4368L320.422 24.4743L319.55 15.0039Z" fill="#7A23A5"/>
<path d="M226.239 51.5143C226.239 50.8912 225.741 50.1436 225.118 50.1436C224.371 50.1436 223.748 50.5174 223.623 51.265C223.623 52.0127 223.997 52.6358 224.744 52.7604C225.367 52.7604 226.115 52.2619 226.115 51.6389L226.239 51.5143Z" fill="#7A23A5"/>
<path d="M225.616 41.9193C225.616 41.2962 225.118 40.5486 224.37 40.5486C223.747 40.5486 223.125 41.047 223 41.6701C223 42.2931 223.374 43.0408 224.121 43.0408C224.869 43.0408 225.492 42.5423 225.616 41.9193Z" fill="#7A23A5"/>
<path d="M232.469 46.2809C232.593 44.9102 231.721 43.7887 230.476 43.6641C229.23 43.6641 227.984 44.4117 227.859 45.7824C227.859 47.0285 228.607 48.2746 229.977 48.3992C231.223 48.5239 232.469 47.6516 232.593 46.4055L232.469 46.2809Z" fill="#7A23A5"/>
<path d="M241.685 34.4429C241.934 32.2 240.315 30.2062 238.072 29.957C235.955 29.7078 233.837 31.3277 233.588 33.4461C233.338 35.689 234.833 37.6828 237.076 37.932C239.318 38.1812 241.312 36.5613 241.561 34.3183L241.685 34.4429Z" fill="#7A23A5"/>
<path d="M234.586 15.1281C234.835 12.8851 233.216 10.8914 231.098 10.6422C228.856 10.3929 226.862 12.0129 226.613 14.1312C226.364 16.3742 227.984 18.368 230.226 18.6172C232.468 18.8664 234.337 17.2465 234.711 15.1281H234.586Z" fill="#7A23A5"/>
<path d="M243.805 22.854C243.93 21.6079 243.058 20.4864 241.812 20.3618C240.566 20.3618 239.445 21.1095 239.32 22.3556C239.196 23.6017 240.068 24.7232 241.314 24.8478C242.559 24.9724 243.681 24.1001 243.805 22.854Z" fill="#7A23A5"/>
<path d="M242.931 8.02542C243.056 6.53009 242.059 5.28399 240.689 5.03477C239.194 4.78555 237.823 5.90704 237.699 7.40236C237.45 8.89769 238.571 10.1438 240.066 10.393C241.561 10.5176 242.807 9.52074 242.931 8.02542Z" fill="#7A23A5"/>
<path d="M302.358 44.7855C302.607 42.9164 301.237 41.2965 299.368 41.0472C297.5 40.798 295.755 42.1687 295.631 44.0379C295.382 45.907 296.752 47.6516 298.621 47.7762C300.489 48.0254 302.234 46.6547 302.358 44.7855Z" fill="#7A23A5"/>
<path d="M308.585 28.2121C308.71 26.7168 307.838 25.4707 306.343 25.3461C304.972 25.2215 303.726 26.2184 303.477 27.5891C303.353 28.9598 304.349 30.3305 305.72 30.4551C307.215 30.5797 308.461 29.5828 308.585 28.2121Z" fill="#7A23A5"/>
<path d="M308.962 36.5614C308.962 35.5645 308.339 34.5676 307.217 34.443C306.221 34.3184 305.224 35.066 305.1 36.1875C305.1 37.309 305.722 38.1813 306.844 38.3059C307.965 38.3059 308.837 37.6828 308.962 36.5614Z" fill="#7A23A5"/>
<path d="M315.065 44.7852C315.314 43.1653 314.068 41.6699 312.449 41.5453C310.829 41.4207 309.334 42.5422 309.21 44.1621C308.96 45.7821 310.206 47.2774 311.826 47.5266C313.445 47.7758 314.94 46.5297 315.189 44.9098L315.065 44.7852Z" fill="#7A23A5"/>
<path d="M320.298 36.5611C320.298 35.5642 319.675 34.5674 318.679 34.4427C317.682 34.4427 316.81 35.0658 316.685 36.0627C316.561 37.0596 317.308 38.0564 318.305 38.1811C319.302 38.3057 320.298 37.558 320.423 36.5611H320.298Z" fill="#7A23A5"/>
<path d="M322.911 25.471C323.16 23.8511 321.914 22.3557 320.295 22.2311C318.675 22.1065 317.18 23.228 316.931 24.8479C316.807 26.4679 317.928 27.9632 319.547 28.2124C321.167 28.4616 322.662 27.2155 322.787 25.5956L322.911 25.471Z" fill="#7A23A5"/>
<path d="M321.792 15.751C321.917 14.5049 321.044 13.5081 319.923 13.3835C318.677 13.2588 317.681 14.1311 317.432 15.2526C317.432 16.4987 318.179 17.4956 319.425 17.6202C320.546 17.7448 321.667 16.9971 321.792 15.751Z" fill="#7A23A5"/>
<path d="M336.741 26.8414C336.741 25.5953 335.994 24.4739 334.873 24.3492C333.627 24.3492 332.63 25.0969 332.506 26.343C332.381 27.4645 333.129 28.586 334.374 28.7106C335.62 28.7106 336.617 27.9629 336.866 26.8414H336.741Z" fill="#7A23A5"/>
<path d="M342.845 31.3276C342.845 30.4554 342.346 29.5831 341.35 29.4585C340.478 29.4585 339.73 29.9569 339.606 30.8292C339.481 31.7015 340.104 32.5737 340.976 32.6984C341.848 32.823 342.72 32.1999 342.72 31.3276H342.845Z" fill="#7A23A5"/>
<path d="M330.14 40.4238C330.39 38.6793 329.144 37.184 327.524 37.0593C325.78 36.8101 324.285 38.0562 324.161 39.8008C323.911 41.4207 325.157 43.0406 326.901 43.1652C328.521 43.4145 330.14 42.1684 330.265 40.4238H330.14Z" fill="#7A23A5"/>
<path d="M338.113 46.4054C338.113 45.2839 337.49 44.1625 336.244 44.0378C335.123 44.0378 334.127 44.7855 334.002 45.907C334.002 47.0285 334.625 48.15 335.871 48.2746C336.992 48.2746 338.113 47.5269 338.238 46.4054H338.113Z" fill="#7A23A5"/>
<path d="M333.378 50.7665C333.378 50.7665 333.004 49.645 332.381 49.645C331.758 49.645 331.26 50.0188 331.26 50.5173C331.26 51.1403 331.509 51.6388 332.132 51.7634C332.63 51.7634 333.253 51.3896 333.378 50.7665Z" fill="#7A23A5"/>
<path d="M340.602 50.8914C340.602 50.8914 340.228 49.7699 339.606 49.7699C338.983 49.7699 338.484 50.1437 338.484 50.6422C338.484 51.2652 338.858 51.7637 339.356 51.7637C339.979 51.7637 340.478 51.5144 340.478 50.8914H340.602Z" fill="#7A23A5"/>
<path d="M271.086 22.6049C271.211 21.1096 270.214 19.6143 268.594 19.4897C267.1 19.3651 265.729 20.4866 265.48 21.9819C265.231 23.4772 266.352 24.9725 267.972 25.0971C269.591 25.2217 270.837 24.1003 271.086 22.6049Z" fill="#7A23A5"/>
<path d="M271.71 33.6951C271.71 32.3244 270.838 31.2029 269.467 30.9537C268.097 30.829 266.976 31.8259 266.727 33.072C266.727 34.4427 267.599 35.6888 268.969 35.8134C270.339 35.9381 271.461 34.9412 271.71 33.6951Z" fill="#7A23A5"/>
<path d="M267.474 40.6733C267.474 39.5518 266.727 38.5549 265.606 38.4303C264.485 38.3057 263.488 39.0533 263.363 40.1748C263.363 41.2963 263.986 42.2932 265.107 42.4178C266.229 42.5424 267.225 41.7948 267.35 40.6733H267.474Z" fill="#7A23A5"/>
<path d="M284.668 29.4581C284.668 28.3366 283.921 27.3397 282.924 27.2151C281.803 27.2151 280.806 27.8381 280.682 28.9596C280.557 30.0811 281.304 31.078 282.426 31.2026C283.422 31.2026 284.419 30.5796 284.668 29.4581Z" fill="#7A23A5"/>
<path d="M296.628 53.0095C296.628 52.1373 296.129 51.265 295.257 51.1404C294.385 51.1404 293.513 51.6388 293.389 52.5111C293.389 53.3834 293.887 54.131 294.884 54.2556C295.756 54.2556 296.503 53.7572 296.628 52.8849V53.0095Z" fill="#7A23A5"/>
<path d="M294.134 46.2804C294.259 45.159 293.511 44.1621 292.265 44.0375C291.144 43.9129 290.023 44.6605 289.898 45.782C289.898 46.9035 290.646 47.9004 291.767 48.1496C292.888 48.2742 293.885 47.4019 294.134 46.2804Z" fill="#7A23A5"/>
<path d="M276.819 46.5301C276.943 45.4086 276.196 44.4117 275.074 44.2871C273.953 44.2871 272.957 45.0348 272.832 46.0316C272.832 47.1531 273.455 48.15 274.576 48.2746C275.697 48.2746 276.694 47.6516 276.694 46.5301H276.819Z" fill="#7A23A5"/>
<path d="M252.402 51.888C252.527 50.7665 251.78 49.7696 250.658 49.645C249.537 49.645 248.665 50.2681 248.416 51.3896C248.291 52.511 249.039 53.3833 250.16 53.6325C251.281 53.7571 252.278 53.0095 252.402 51.888Z" fill="#7A23A5"/>
<path d="M267.351 50.1437C267.475 48.5238 266.354 47.0285 264.734 46.9039C263.115 46.7792 261.62 47.9007 261.371 49.5207C261.246 51.1406 262.367 52.6359 263.987 52.8851C265.731 53.0097 267.101 51.8883 267.351 50.2683V50.1437Z" fill="#7A23A5"/>
<path d="M258.254 43.1654C258.379 41.5455 257.258 40.0502 255.638 39.8009C254.019 39.6763 252.524 40.7978 252.399 42.4178C252.15 44.0377 253.396 45.533 255.015 45.6576C256.635 45.9068 258.13 44.6607 258.379 43.0408L258.254 43.1654Z" fill="#7A23A5"/>
<path d="M282.798 53.3834C282.923 51.7635 281.801 50.2682 280.182 50.019C278.562 49.8944 277.067 51.0158 276.943 52.6358C276.694 54.2557 277.815 55.751 279.559 56.0002C281.178 56.1249 282.673 55.0034 282.923 53.3834H282.798Z" fill="#7A23A5"/>
<path d="M284.668 39.0537C284.917 37.5583 283.796 36.063 282.177 35.9384C280.682 35.8138 279.187 36.9353 279.062 38.4306C278.938 39.9259 280.059 41.2966 281.554 41.5459C283.173 41.6705 284.544 40.549 284.668 39.0537Z" fill="#7A23A5"/>
<path d="M259.874 25.3461C260.124 23.2278 258.629 21.3586 256.511 21.1094C254.393 20.8602 252.524 22.3555 252.275 24.4739C252.026 26.5922 253.521 28.4614 255.639 28.7106C257.757 28.9598 259.625 27.4645 259.874 25.3461Z" fill="#7A23A5"/>
<path d="M320.169 63.2275L320.045 63.3522L325.9 67.2151L320.917 73.0717L321.166 73.1963L326.274 67.2151L320.169 63.2275Z" fill="#7A23A5"/>
<path d="M333.997 54.6299V54.7545L326.023 67.2155L326.273 67.3401L334.121 55.0037L351.188 64.2249L346.454 73.446L346.704 73.5706L351.438 64.1003L351.313 63.9756L333.997 54.6299Z" fill="#7A23A5"/>
<path d="M365.267 54.2561L351.064 64.1003L360.408 71.2031L370.997 68.0878L375.731 74.9414L375.856 74.8168L387.94 67.5894L391.054 74.3183L391.304 74.1937L387.94 67.2156L375.856 74.5675L371.122 67.714H370.997L360.408 70.8292L351.563 64.1003L365.391 54.5053L365.267 54.2561Z" fill="#7A23A5"/>
<path d="M379.093 50.767H378.844L377.723 60.3619L370.996 67.7139L361.777 61.608L361.652 61.8573L370.996 68.0878L371.12 67.9632L377.972 60.4866L379.093 50.767Z" fill="#7A23A5"/>
<path d="M326.398 36.063L326.273 36.1876L338.108 44.5365L352.684 46.5302L364.146 43.415L364.021 43.0412L352.684 46.281L338.233 44.2873L326.398 36.063Z" fill="#7A23A5"/>
<path d="M336.989 29.2092H336.74L336.989 44.6609H337.363L336.989 29.2092Z" fill="#7A23A5"/>
<path d="M322.413 73.3211C322.413 72.5735 321.915 71.9504 321.292 71.9504C320.669 71.9504 319.921 72.3243 319.797 73.0719C319.797 73.8196 320.295 74.4426 321.043 74.5673C321.666 74.5673 322.413 74.0688 322.413 73.4458V73.3211Z" fill="#7A23A5"/>
<path d="M321.665 63.7263C321.665 62.9786 321.291 62.3556 320.544 62.231C319.921 62.231 319.173 62.7294 319.049 63.3524C319.049 64.1001 319.547 64.7232 320.17 64.8478C320.918 64.8478 321.54 64.4739 321.665 63.7263Z" fill="#7A23A5"/>
<path d="M328.641 68.0874C328.765 66.7166 327.893 65.7198 326.647 65.4705C325.402 65.3459 324.156 66.2182 324.031 67.5889C323.907 68.835 324.779 70.0811 326.149 70.2057C327.395 70.3303 328.641 69.4581 328.765 68.212L328.641 68.0874Z" fill="#7A23A5"/>
<path d="M337.861 56.2498C338.11 54.0069 336.491 52.0131 334.248 51.7639C332.006 51.5146 330.013 53.1346 329.764 55.253C329.514 57.4959 331.134 59.4897 333.252 59.7389C335.494 59.9881 337.488 58.3682 337.737 56.2498H337.861Z" fill="#7A23A5"/>
<path d="M330.76 36.8106C331.009 34.6923 329.389 32.5739 327.147 32.3247C324.904 32.0754 322.911 33.6954 322.662 35.8137C322.413 38.0567 324.032 40.0505 326.15 40.2997C328.393 40.5489 330.386 38.929 330.635 36.686L330.76 36.8106Z" fill="#7A23A5"/>
<path d="M339.979 44.6609C340.104 43.4148 339.232 42.2933 337.986 42.1687C336.74 42.0441 335.619 42.9164 335.494 44.1625C335.494 45.4086 336.242 46.5301 337.487 46.6547C338.733 46.7793 339.854 45.907 339.979 44.6609Z" fill="#7A23A5"/>
<path d="M339.107 29.7077C339.232 28.2124 338.235 26.9663 336.74 26.8417C335.245 26.5924 333.999 27.7139 333.875 29.2093C333.625 30.7046 334.747 31.9507 336.242 32.1999C337.737 32.3245 338.982 31.3276 339.232 29.8323L339.107 29.7077Z" fill="#7A23A5"/>
<path d="M367.261 44.4118C367.386 42.9165 366.389 41.4212 364.769 41.2966C363.15 41.172 361.78 42.2934 361.655 43.7888C361.53 45.2841 362.527 46.7794 364.147 46.904C365.642 47.0286 367.137 45.9071 367.261 44.4118Z" fill="#7A23A5"/>
<path d="M367.76 55.5018C368.009 54.1311 367.012 53.0096 365.642 52.885C364.271 52.7604 363.15 53.6326 363.025 55.0033C362.901 56.3741 363.773 57.4956 365.143 57.6202C366.514 57.7448 367.635 56.8725 367.76 55.5018Z" fill="#7A23A5"/>
<path d="M363.647 62.4802C363.771 61.3587 363.024 60.3618 361.903 60.2372C360.906 60.1126 359.785 60.8602 359.66 61.9817C359.66 63.1032 360.408 64.1001 361.404 64.2247C362.526 64.3493 363.522 63.6016 363.647 62.4802Z" fill="#7A23A5"/>
<path d="M372.992 68.337C372.992 67.2155 372.369 66.2186 371.248 66.094C370.127 66.094 369.13 66.717 369.006 67.8385C368.881 68.96 369.629 69.9569 370.75 70.0815C371.871 70.0815 372.868 69.3339 372.992 68.337Z" fill="#7A23A5"/>
<path d="M348.572 73.695C348.572 72.5735 347.825 71.5766 346.828 71.452C345.707 71.452 344.71 72.1997 344.586 73.1966C344.461 74.3181 345.209 75.3149 346.33 75.4395C347.451 75.4395 348.448 74.8165 348.572 73.695Z" fill="#7A23A5"/>
<path d="M363.523 71.9505C363.773 70.3306 362.527 68.8353 360.907 68.586C359.288 68.3368 357.793 69.5829 357.544 71.2028C357.294 72.8228 358.54 74.3181 360.16 74.4427C361.779 74.6919 363.274 73.4458 363.523 71.8259V71.9505Z" fill="#7A23A5"/>
<path d="M354.427 64.8476C354.676 63.2277 353.43 61.7324 351.811 61.6078C350.191 61.3585 348.696 62.6046 348.447 64.2246C348.322 65.8445 349.444 67.3398 351.063 67.589C352.683 67.8383 354.178 66.5922 354.427 64.9722V64.8476Z" fill="#7A23A5"/>
<path d="M378.848 75.0658C378.973 73.4459 377.851 71.9506 376.232 71.7013C374.612 71.5767 373.117 72.6982 372.993 74.3181C372.744 75.9381 373.989 77.4334 375.609 77.558C377.228 77.6826 378.723 76.5611 378.973 74.9412L378.848 75.0658Z" fill="#7A23A5"/>
<path d="M380.715 60.7356C380.964 59.2403 379.719 57.745 378.224 57.6204C376.729 57.3711 375.234 58.4926 375.109 60.1126C374.984 61.7325 376.106 63.1032 377.601 63.2278C379.096 63.3524 380.591 62.3555 380.715 60.7356Z" fill="#7A23A5"/>
<path d="M356.047 47.0287C356.296 45.0349 354.801 43.0411 352.683 42.9165C350.565 42.6673 348.697 44.1626 348.572 46.281C348.323 48.3994 349.818 50.2685 351.936 50.5177C353.929 50.767 355.922 49.2716 356.047 47.1533V47.0287Z" fill="#7A23A5"/>
<path d="M307.464 124.287L307.34 124.536L313.195 128.274L308.336 134.131L308.586 134.38L313.693 128.274L307.464 124.287Z" fill="#7A23A5"/>
<path d="M321.293 115.813L313.32 128.274L313.569 128.399L321.418 116.062L338.485 125.284L333.751 134.505L334.001 134.629L338.859 125.159H338.735L321.293 115.813Z" fill="#7A23A5"/>
<path d="M352.562 115.315L338.484 125.284L347.703 132.386L347.828 132.262L358.293 129.147L363.027 136H363.151L375.235 128.648L378.474 135.377L378.724 135.252L375.36 128.399H375.235L363.151 135.626L358.417 128.897L358.293 128.773L347.828 132.013L338.858 125.284L352.686 115.564L352.562 115.315Z" fill="#7A23A5"/>
<path d="M366.517 111.826H366.268L365.146 121.421L358.419 128.773L349.076 122.791L348.951 123.041L358.419 129.146L358.544 129.022L365.396 121.545L366.517 111.826Z" fill="#7A23A5"/>
<path d="M313.695 97.1216L313.57 97.2462L325.53 105.595L340.106 107.713V107.589L351.567 104.349L351.442 104.1L340.106 107.34L325.53 105.47L313.695 97.1216Z" fill="#7A23A5"/>
<path d="M324.284 90.2678H324.035L324.409 105.719H324.658L324.284 90.2678Z" fill="#7A23A5"/>
<path d="M309.708 134.38C309.708 133.757 309.334 133.009 308.587 133.009C307.839 133.009 307.216 133.383 307.092 134.131C307.092 134.879 307.59 135.502 308.213 135.626C308.96 135.626 309.583 135.252 309.583 134.505L309.708 134.38Z" fill="#7A23A5"/>
<path d="M309.085 124.785C309.085 124.162 308.712 123.414 307.964 123.29C307.217 123.29 306.594 123.664 306.594 124.411C306.594 125.159 307.092 125.782 307.715 125.906C308.462 125.906 309.085 125.533 309.085 124.785Z" fill="#7A23A5"/>
<path d="M315.937 129.146C316.062 127.9 315.19 126.654 313.819 126.529C312.574 126.405 311.328 127.277 311.203 128.648C311.079 129.894 311.951 131.015 313.197 131.264C314.442 131.389 315.688 130.392 315.813 129.146H315.937Z" fill="#7A23A5"/>
<path d="M325.155 117.308C325.404 115.19 323.784 113.072 321.666 112.822C319.424 112.573 317.431 114.193 317.182 116.436C316.932 118.679 318.552 120.673 320.794 120.922C323.037 121.171 325.03 119.676 325.155 117.433V117.308Z" fill="#7A23A5"/>
<path d="M318.18 97.9937C318.429 95.7507 316.809 93.7569 314.567 93.5077C312.324 93.2585 310.331 94.8784 310.082 97.1214C309.833 99.2398 311.452 101.358 313.695 101.607C315.937 101.857 317.93 100.237 318.18 97.9937Z" fill="#7A23A5"/>
<path d="M327.276 105.719C327.401 104.473 326.529 103.352 325.283 103.227C324.037 103.103 322.916 103.975 322.791 105.221C322.667 106.467 323.539 107.589 324.784 107.713C326.03 107.838 327.151 106.966 327.276 105.719Z" fill="#7A23A5"/>
<path d="M326.524 90.8912C326.649 89.3959 325.652 88.1498 324.158 88.0252C322.663 87.9006 321.417 88.8974 321.168 90.2681C320.918 91.7635 322.04 93.0096 323.535 93.2588C325.03 93.3834 326.275 92.3865 326.524 90.8912Z" fill="#7A23A5"/>
<path d="M354.557 105.47C354.806 103.85 353.685 102.48 352.066 102.355C350.571 102.231 349.076 103.352 348.951 104.847C348.951 106.343 349.948 107.713 351.443 107.963C353.062 108.087 354.433 107.09 354.557 105.47Z" fill="#7A23A5"/>
<path d="M355.179 116.561C355.429 115.19 354.432 114.068 353.062 113.819C351.691 113.819 350.57 114.691 350.445 116.062C350.321 117.433 351.193 118.554 352.563 118.679C353.934 118.928 355.055 117.931 355.179 116.561Z" fill="#7A23A5"/>
<path d="M350.943 123.664C351.068 122.542 350.196 121.545 349.199 121.421C348.078 121.296 347.081 122.044 346.957 123.165C346.832 124.287 347.58 125.284 348.701 125.408C349.822 125.408 350.819 124.785 350.943 123.664Z" fill="#7A23A5"/>
<path d="M368.135 112.324C368.135 111.203 367.388 110.206 366.391 110.081C365.27 110.081 364.273 110.704 364.148 111.826C364.148 112.947 364.771 113.944 365.893 114.069C366.889 114.069 368.01 113.446 368.135 112.324Z" fill="#7A23A5"/>
<path d="M377.728 129.146C377.728 128.025 376.98 126.903 375.859 126.779C374.738 126.779 373.741 127.526 373.492 128.648C373.492 129.769 374.24 130.891 375.361 131.016C376.482 131.016 377.603 130.268 377.728 129.146Z" fill="#7A23A5"/>
<path d="M360.412 129.396C360.412 128.274 359.789 127.277 358.668 127.153C357.547 127.153 356.55 127.776 356.426 128.897C356.301 130.019 357.049 131.015 358.17 131.14C359.291 131.14 360.288 130.517 360.412 129.396Z" fill="#7A23A5"/>
<path d="M335.869 134.754C335.869 133.632 335.246 132.635 334 132.511C333.004 132.386 332.007 133.134 331.758 134.255C331.758 135.377 332.381 136.374 333.502 136.498C334.623 136.498 335.62 135.751 335.744 134.754H335.869Z" fill="#7A23A5"/>
<path d="M350.819 133.009C351.068 131.389 349.822 129.894 348.203 129.645C346.583 129.52 345.088 130.642 344.963 132.262C344.714 133.882 345.96 135.377 347.58 135.502C349.199 135.751 350.694 134.629 350.943 132.885L350.819 133.009Z" fill="#7A23A5"/>
<path d="M341.725 126.031C341.849 124.411 340.728 122.916 339.108 122.667C337.489 122.542 335.994 123.663 335.745 125.283C335.496 126.903 336.741 128.399 338.361 128.648C339.98 128.897 341.475 127.651 341.725 126.031Z" fill="#7A23A5"/>
<path d="M366.266 136.249C366.391 134.629 365.269 133.134 363.65 132.884C362.03 132.76 360.535 133.881 360.411 135.626C360.162 137.246 361.407 138.741 363.027 138.99C364.646 139.115 366.141 137.993 366.391 136.374L366.266 136.249Z" fill="#7A23A5"/>
<path d="M368.135 121.919C368.259 120.424 367.138 118.929 365.643 118.804C364.148 118.804 362.653 119.801 362.529 121.296C362.28 122.916 363.401 124.287 365.02 124.411C366.515 124.536 368.01 123.539 368.135 121.919Z" fill="#7A23A5"/>
<path d="M343.344 108.212C343.593 106.094 342.098 104.224 340.105 104.1C337.987 103.851 336.118 105.346 335.869 107.464C335.62 109.583 337.115 111.452 339.108 111.701C341.226 111.95 343.095 110.455 343.344 108.337V108.212Z" fill="#7A23A5"/>
</g>
</g>
</svg>
